/* XPM */
static char *_e4b0186305f437fbf670bb5960a18b4[] = {
/* columns rows colors chars-per-pixel */
"42 42 158 2 ",
"   c #040201",
".  c #0C0906",
"X  c #0E0C09",
"o  c #110A06",
"O  c #120E0A",
"+  c #190F0B",
"@  c #0D110E",
"#  c #1D120B",
"$  c #0F0F12",
"%  c #0D1419",
"&  c #151610",
"*  c #181711",
"=  c #141913",
"-  c #1B1B13",
";  c #141C18",
":  c #21150C",
">  c #2B1A0F",
",  c #231D13",
"<  c #2B1D12",
"1  c #271C19",
"2  c #311F12",
"3  c #1C2119",
"4  c #21251C",
"5  c #28261B",
"6  c #362214",
"7  c #3C2617",
"8  c #35261C",
"9  c #3B2718",
"0  c #3D291A",
"q  c #0F1923",
"w  c #131B2A",
"e  c #0D1F3A",
"r  c #212B21",
"t  c #292B20",
"y  c #332520",
"u  c #3F2E25",
"i  c #253127",
"p  c #2D3225",
"a  c #273429",
"s  c #2A352C",
"d  c #373428",
"f  c #323B2E",
"g  c #263633",
"h  c #2D3D34",
"j  c #3C3E31",
"k  c #402717",
"l  c #412817",
"z  c #442B19",
"x  c #492E1B",
"c  c #4C321E",
"v  c #50341F",
"b  c #453227",
"n  c #4F3320",
"m  c #533721",
"M  c #563923",
"N  c #5A3B27",
"B  c #5C3E29",
"V  c #4E3D30",
"C  c #344435",
"Z  c #35463C",
"A  c #3B4C3C",
"S  c #584236",
"D  c #5B4B3C",
"F  c #60412F",
"G  c #604232",
"H  c #674C39",
"J  c #6F543D",
"K  c #7B553D",
"L  c #1C2B45",
"P  c #1B344E",
"I  c #152D53",
"U  c #2E334B",
"Y  c #3A3640",
"T  c #393945",
"R  c #153062",
"E  c #16346B",
"W  c #1E3F68",
"Q  c #394B42",
"!  c #3F404D",
"~  c #3E5147",
"^  c #3F5248",
"/  c #1C4175",
"(  c #28487A",
")  c #374F79",
"_  c #544E48",
"`  c #405441",
"'  c #435945",
"]  c #415549",
"[  c #465D4E",
"{  c #644F40",
"}  c #755A41",
"|  c #4B644E",
" . c #4C6551",
".. c #4F6856",
"X. c #526C54",
"o. c #536E5A",
"O. c #56725A",
"+. c #58765B",
"@. c #5B7A5F",
"#. c #425278",
"$. c #5E7D62",
"%. c #6D656A",
"&. c #766360",
"*. c #607F65",
"=. c #666773",
"-. c #845C43",
";. c #896046",
":. c #8E6448",
">. c #92694E",
",. c #956D52",
"<. c #996E54",
"1. c #9C7156",
"2. c #9F765B",
"3. c #91785F",
"4. c #9C785E",
"5. c #A37559",
"6. c #A7775A",
"7. c #AB7B5D",
"8. c #8D7A65",
"9. c #807276",
"0. c #628265",
"q. c #658669",
"w. c #67896B",
"e. c #698C6E",
"r. c #6E9272",
"t. c #709574",
"y. c #96836C",
"u. c #AC8266",
"i. c #A3886D",
"p. c #AD987E",
"a. c #B5977A",
"s. c #B6997C",
"d. c #284E8F",
"f. c #2D558F",
"g. c #214B90",
"h. c #255193",
"j. c #2F5A9A",
"k. c #305793",
"l. c #295EAD",
"z. c #3366AF",
"x. c #2B62B0",
"c. c #3469B5",
"v. c #506285",
"b. c #667993",
"n. c #4370AF",
"m. c #5F79A1",
"M. c #877D86",
"N. c #807F8C",
"B. c #7584A1",
"V. c #AD9E8C",
"C. c #B89E82",
"Z. c #B6A185",
"A. c #BCA386",
"S. c #BBA68A",
"D. c #BEA98D",
"F. c #8D92A6",
"G. c #8295B5",
"H. c #C1AC8F",
/* pixels */
"t.t.t.t.t.t.t.t.t.t.t.t.t.t.t.t.t.t.t.t.t.t.t.t.t.t.t.t.t.t.t.t.t.t.t.t.t.t.t.t.t.t.",
"t.t.t.t.t.t.t.t.t.t.t.t.t.t.t.t.t.t.t.t.t.t.t.t.t.t.t.t.t.t.t.t.t.t.t.t.t.t.t.t.t.t.",
"t.t.t.t.t.t.t.t.t.t.t.t.t.t.t.t.t.t.t.t.t.t.t.t.t.t.t.t.t.t.t.t.t.t.t.t.t.t.t.t.t.t.",
"t.t.t.t.t.t.t.t.t.t.t.t.t.t.t.t.t.t.t.t.t.t.t.t.t.t.t.t.t.t.t.t.t.t.t.t.t.t.t.t.t.t.",
"t.t.t.t.t.t.t.t.t.t.t.t.t.t.t.t.t.t.t.t.t.t.t.t.t.t.t.t.t.t.t.t.t.t.t.t.t.t.t.t.t.t.",
"t.t.t.t.t.t.t.t.t.t.t.t.t.t.t.t.t.t.t.t.t.t.t.t.t.t.t.t.t.t.t.t.t.t.t.t.t.t.t.t.t.t.",
"t.t.t.t.t.t.t.t.t.t.t.t.t.t.t.t.t.t.t.t.t.t.t.t.t.t.t.t.t.t.t.t.t.t.t.t.t.t.t.t.t.t.",
"t.t.t.t.t.t.t.t.t.t.t.t.t.t.t.t.t.t.t.t.t.t.t.t.t.t.t.t.t.t.t.t.t.t.t.t.t.t.t.t.t.t.",
"t.t.t.t.t.t.t.t.t.t.t.t.t.t.t.t.t.t.t.t.t.t.t.t.t.t.t.t.t.t.t.t.t.t.t.t.t.t.t.t.t.t.",
"t.t.t.t.t.t.t.t.t.t.t.t.t.t.t.t.t.t.t.t.t.t.t.t.t.t.t.t.t.t.t.t.t.t.t.t.t.t.t.t.t.t.",
"t.t.t.t.t.t.t.t.t.t.t.t.t.t.t.t.t.t.t.t.t.t.t.t.t.t.t.t.t.t.t.t.t.t.t.t.t.t.t.t.t.t.",
"t.t.t.t.t.t.t.t.t.t.t.t.t.t.q. .| | | X.e.X.| +.r.t.t.t.t.t.t.t.t.t.t.t.t.t.t.t.t.t.",
"t.t.t.t.t.t.t.t.t.t.t.t.t.t.X.@ X O O 4  .4 . i $.$.e.t.t.t.t.t.t.t.t.t.t.t.t.t.t.t.",
"t.t.t.t.t.t.t.t.t.t.t.t.t.t.X.O 9 c z < - 0 : . = 3 X.r.t.t.t.t.t.t.t.t.t.t.t.t.t.t.",
"t.t.t.t.t.t.t.t.t.t.t.t.t.t.X.X + z m x 6 c 0 2 9 9 t | t.t.t.t.t.t.t.t.t.t.t.t.t.t.",
"t.t.t.t.t.t.t.t.t.t.t.t.t.O.f : < x M m c M v c M m 6 d | r.t.t.t.t.t.t.t.t.t.t.t.t.",
"t.t.t.t.t.t.t.t.t.t.t.r.@.f : x m M M M M M M M M M M 6 t X.e.t.t.t.t.t.t.t.t.t.t.t.",
"t.t.t.t.t.t.t.t.t.t.t.e.i : z m M M M M M M M m M M M m 9 3 $.t.t.t.t.t.t.t.t.t.t.t.",
"t.t.t.t.t.t.t.t.t.t.r.e.r # x M M c c M M M c z x M M M 0 = @.r.t.t.t.t.t.t.t.t.t.t.",
"t.t.t.t.t.t.t.t.t.t.r.e.r # z x x z x M M M x N -.-.N v x < s +.t.t.t.t.t.t.t.t.t.t.",
"t.t.t.t.t.t.t.t.t.t.t.e.r : z x l k x M M c B -.7.6.K B x 6 X | t.t.t.t.t.t.t.t.t.t.",
"t.t.t.t.t.t.t.t.t.t.t.e.r : x m x n m m M M K 1.u.u.<.F 6 6 X | t.t.t.t.t.t.t.t.t.t.",
"t.t.t.t.t.t.t.t.t.t.t.e.r : x m M -.K c B >.G { A.C.S + + 2 &  .t.t.t.t.t.t.t.t.t.t.",
"t.t.t.t.t.t.t.t.t.t.t.e.r : l x M :.5.-.N i.H D D.Z.V .   * | w.t.t.t.t.t.t.t.t.t.t.",
"t.t.t.t.t.t.t.t.t.t.t.r.| p : 7 c ;.7.6.3.Z.y.y.D.S.8.d = ' w.t.t.t.t.t.t.t.t.t.t.t.",
"t.t.t.t.t.t.t.t.t.t.t.t.t.| t < 7 H -.,.a.D.H.H.H.H.C.D r e.t.t.t.t.t.t.t.t.t.t.t.t.",
"t.t.t.t.t.t.t.t.t.t.t.t.t.r.X.3 2 7 z N ,.s.A.A.A.A.4.V h e.t.t.t.t.t.t.t.t.t.t.t.t.",
"t.t.t.t.t.t.t.t.t.t.t.t.t.t.e.O.- > x m N ,.u.u.u.2.u A q.r.t.t.t.t.t.t.t.t.t.t.t.t.",
"t.t.t.t.t.t.t.t.t.t.t.t.t.t.t.0.= > x M m B &.M.9.S # A t.t.t.t.t.t.t.t.t.t.t.t.t.t.",
"t.t.t.t.t.t.t.t.t.t.t.t.t.t.t.e.` 5 9 M M z %.F.N.b o A t.t.t.t.t.t.t.t.t.t.t.t.t.t.",
"t.t.t.t.t.t.t.t.t.t.t.t.t.t.t.t.r.a 8 } J c =.G.B.! $ A t.t.t.t.t.t.t.t.t.t.t.t.t.t.",
"t.t.t.t.t.t.t.t.t.t.t.t.t.t.t.r.0.g _ S.p.S ) c.z.f.w C q.r.t.t.t.t.t.t.t.t.t.t.t.t.",
"t.t.t.t.t.t.t.t.t.t.t.t.t.t.t.q.i W b.D.V.#.h.x.j.Y 8 , h e.t.t.t.t.t.t.t.t.t.t.t.t.",
"t.t.t.t.t.t.t.t.t.t.t.t.t.t.t.0.; / n.m.v.L e L T 0 k # r e.t.t.t.t.t.t.t.t.t.t.t.t.",
"t.t.t.t.t.t.t.t.t.t.t.t.t.t.0.~ P h.l.g.I h = . : : : t ' r.t.t.t.t.t.t.t.t.t.t.t.t.",
"t.t.t.t.t.t.t.t.t.t.t.t.t.t.X.% ( k.d.E % X.C @ @ @ @ A e.r.t.t.t.t.t.t.t.t.t.t.t.t.",
"t.t.t.t.t.t.t.t.t.t.t.t.t.r.| X y u U R % Z Q Q Q Q Q ~ ..e.r.t.t.t.t.t.t.t.t.t.t.t.",
"t.t.t.t.t.t.t.t.t.t.t.t.t.$.C X 6 k 1 q h Q ~ ~ ~ ~ ~ ~ ] ..e.t.t.t.t.t.t.t.t.t.t.t.",
"t.t.t.t.t.t.t.t.t.t.t.t.t.+.Z s j j f s Q ~ ~ ~ ~ ~ ~ ~ ~ [ e.t.t.t.t.t.t.t.t.t.t.t.",
"t.t.t.t.t.t.t.t.t.t.t.t.t.*. .^ ~ ~ ~ ~ ~ ~ ~ ~ ~ ~ ~ ~ ] o.e.t.t.t.t.t.t.t.t.t.t.t.",
"t.t.t.t.t.t.t.t.t.t.t.t.t.r.q. .[ [ [ [ [ [ [ [ [ [ [ [ o.r.r.t.t.t.t.t.t.t.t.t.t.t.",
"t.t.t.t.t.t.t.t.t.t.t.t.t.t.r.e.e.e.e.e.e.e.e.e.e.e.e.e.e.r.t.t.t.t.t.t.t.t.t.t.t.t."
};
