/* XPM */
static char *result[] = {
/* columns rows colors chars-per-pixel */
"42 42 137 2 ",
"   c #040201",
".  c #0C0906",
"X  c #0E0C09",
"o  c #120E0A",
"O  c #190F0B",
"+  c #0D110E",
"@  c #1D120B",
"#  c #0F0F12",
"$  c #0D1419",
"%  c #181711",
"&  c #141913",
"*  c #1B1B13",
"=  c #141C18",
"-  c #21150C",
";  c #2B1A0F",
":  c #231D13",
">  c #2B1D12",
",  c #271C19",
"<  c #311F12",
"1  c #1C2119",
"2  c #28261B",
"3  c #362214",
"4  c #3C2617",
"5  c #3B2718",
"6  c #3D291A",
"7  c #0F1923",
"8  c #131B2A",
"9  c #0D1F3A",
"0  c #212B21",
"q  c #292B20",
"w  c #332520",
"e  c #3F2E25",
"r  c #253127",
"t  c #2D3225",
"y  c #273429",
"u  c #2A352C",
"i  c #373428",
"p  c #263633",
"a  c #2D3D34",
"s  c #3C3E31",
"d  c #412817",
"f  c #442B19",
"g  c #492E1B",
"h  c #4C321E",
"j  c #50341F",
"k  c #563923",
"l  c #5A3B27",
"z  c #5C3E29",
"x  c #4E3D30",
"c  c #344435",
"v  c #35463C",
"b  c #3B4C3C",
"n  c #584236",
"m  c #5B4B3C",
"M  c #60412F",
"N  c #674C39",
"B  c #6F543D",
"V  c #7B553D",
"C  c #1C2B45",
"Z  c #1B344E",
"A  c #152D53",
"S  c #2E334B",
"D  c #3A3640",
"F  c #393945",
"G  c #153062",
"H  c #16346B",
"J  c #1E3F68",
"K  c #394B42",
"L  c #3F404D",
"P  c #3E5147",
"I  c #3F5248",
"U  c #1C4175",
"Y  c #28487A",
"T  c #374F79",
"R  c #544E48",
"E  c #405441",
"W  c #435945",
"Q  c #415549",
"!  c #465D4E",
"~  c #755A41",
"^  c #4B644E",
"/  c #4C6551",
"(  c #4F6856",
")  c #526C54",
"_  c #536E5A",
"`  c #56725A",
"'  c #58765B",
"]  c #425278",
"[  c #5E7D62",
"{  c #6D656A",
"}  c #766360",
"|  c #666773",
" . c #845C43",
".. c #896046",
"X. c #8E6448",
"o. c #92694E",
"O. c #956D52",
"+. c #996E54",
"@. c #9C7156",
"#. c #91785F",
"$. c #9C785E",
"%. c #A37559",
"&. c #A7775A",
"*. c #8D7A65",
"=. c #807276",
"-. c #628265",
";. c #658669",
":. c #67896B",
">. c #698C6E",
",. c #6E9272",
"<. c #709574",
"1. c #96836C",
"2. c #AC8266",
"3. c #A3886D",
"4. c #AD987E",
"5. c #B5977A",
"6. c #B6997C",
"7. c #2D558F",
"8. c #214B90",
"9. c #255193",
"0. c #2F5A9A",
"q. c #305793",
"w. c #3366AF",
"e. c #2B62B0",
"r. c #3469B5",
"t. c #506285",
"y. c #667993",
"u. c #4370AF",
"i. c #5F79A1",
"p. c #7584A1",
"a. c #AD9E8C",
"s. c #BCA386",
"d. c #BBA68A",
"f. c #BEA98D",
"g. c #8D92A6",
"h. c #8295B5",
"j. c #C1AC8F",
/* pixels */
"<.<.<.<.<.<.<.<.<.<.<.<.<.<.<.<.<.<.<.<.<.<.<.<.<.<.<.<.<.<.<.<.<.<.<.<.<.<.<.<.<.<.",
"<.<.<.<.<.<.<.<.<.<.<.<.<.<.<.<.<.<.<.<.<.<.<.<.<.<.<.<.<.<.<.<.<.<.<.<.<.<.<.<.<.<.",
"<.<.<.<.<.<.<.<.<.<.<.<.<.<.<.<.<.<.<.<.<.<.<.<.<.<.<.<.<.<.<.<.<.<.<.<.<.<.<.<.<.<.",
"<.<.<.<.<.<.<.<.<.<.<.<.<.<.<.<.<.<.<.<.<.<.<.<.<.<.<.<.<.<.<.<.<.<.<.<.<.<.<.<.<.<.",
"<.<.<.<.<.<.<.<.<.<.<.<.<.<.<.<.<.<.<.<.<.<.<.<.<.<.<.<.<.<.<.<.<.<.<.<.<.<.<.<.<.<.",
"<.<.<.<.<.<.<.<.<.<.<.<.<.<.<.<.<.<.<.<.<.<.<.<.<.<.<.<.<.<.<.<.<.<.<.<.<.<.<.<.<.<.",
"<.<.<.<.<.<.<.<.<.<.<.<.<.<.<.<.<.<.<.<.<.<.<.<.<.<.<.<.<.<.<.<.<.<.<.<.<.<.<.<.<.<.",
"<.<.<.<.<.<.<.<.<.<.<.<.<.<.<.<.<.<.<.<.<.<.<.<.<.<.<.<.<.<.<.<.<.<.<.<.<.<.<.<.<.<.",
"<.<.<.<.<.<.<.<.<.<.<.<.<.<.<.<.<.<.<.<.<.<.<.<.<.<.<.<.<.<.<.<.<.<.<.<.<.<.<.<.<.<.",
"<.<.<.<.<.<.<.<.<.<.<.<.<.<.<.<.<.<.<.<.<.<.<.<.<.<.<.<.<.<.<.<.<.<.<.<.<.<.<.<.<.<.",
"<.<.<.<.<.<.<.<.<.<.<.<.<.<.<.,.<.<.<.<.<.<.<.<.<.<.<.<.<.<.<.<.<.<.<.<.<.<.<.<.<.<.",
"<.<.<.<.<.<.<.<.<.<.<.<.<.<.<.,.<.<.' ^ ) >.) ^ / ^ / :.<.<.<.<.<.<.<.<.<.<.<.<.<.<.",
"<.<.<.<.<.<.<.<.<.<.<.<.<.<.,.,.-.-.0 . 1 ) 1 o o X X ) <.<.<.<.<.<.<.<.<.<.<.<.<.<.",
"<.<.<.<.<.<.<.<.<.<.<.<.<.<.,.) 1 & . @ 6 1 < f g 5 + ) <.<.<.<.<.<.<.<.<.<.<.<.<.<.",
"<.<.<.<.<.<.<.<.<.<.<.<.<.,.^ q 5 6 < 6 j 3 g j 6 O . ) <.<.<.<.<.<.<.<.<.<.<.<.<.<.",
"<.<.<.<.<.<.<.<.<.<.<.<.,.^ i 3 j k h j k j j k g ; @ c ` <.<.<.<.<.<.<.<.<.<.<.<.<.",
"<.<.<.<.<.<.<.<.<.<.<.:.) q 3 M k k k k l k k k k k g - c ' ,.<.<.<.<.<.<.<.<.<.<.<.",
"<.<.<.<.<.<.<.<.<.<.<.-.1 6 j j k k j k k k k k k k j d - t >.<.<.<.<.<.<.<.<.<.<.<.",
"<.<.<.<.<.<.<.<.<.<.<.-.* 4 j l k g f h k l j h h k j g @ 0 >.<.<.<.<.<.<.<.<.<.<.<.",
"<.<.<.<.<.<.<.<.<.<.' t > g j z  .V M h k k k h d g g d @ 0 >.<.<.<.<.<.<.<.<.<.<.<.",
"<.<.<.<.<.<.<.<.<.<.^ . 3 g z V &.2. .M j j k j 4 d g d - 0 >.<.<.<.<.<.<.<.<.<.<.<.",
"<.<.<.<.<.<.<.<.<.<.^ . 3 3 M +.2.2.@.B k k j j j g k f - 1 >.<.<.<.<.<.<.<.<.<.<.<.",
"<.<.<.<.<.<.<.<.<.<.^ & ; O O n 6.d.N N o.k j V  .k j f @ 0 >.<.<.<.<.<.<.<.<.<.<.<.",
"<.<.<.<.<.<.<.<.<.<.:.^ %   . x 6.f.m m 3.M  .@.X.k g d - 0 >.<.<.<.<.<.<.<.<.<.<.<.",
"<.<.<.<.<.<.<.<.<.<.<.:.W & i 1.f.f.1.1.6.#.%.2...h 4 ; t ^ ,.<.<.<.<.<.<.<.<.<.<.<.",
"<.<.<.<.<.<.<.<.<.<.<.<.>.0 m 6.f.j.j.f.f.5.o. .N 4 > q ^ <.<.<.<.<.<.<.<.<.<.<.<.<.",
"<.<.<.<.<.<.<.<.<.<.<.<.,.c x $.6.f.6.f.6.O.M d d < 1 ) ,.<.<.<.<.<.<.<.<.<.<.<.<.<.",
"<.<.<.<.<.<.<.<.<.<.<.<.<.;.c e 2.2.2.2.O.M j f ; - ' >.<.<.<.<.<.<.<.<.<.<.<.<.<.<.",
"<.<.<.<.<.<.<.<.<.<.<.<.<.<.b @ M *.=.} M j j g ; * -.<.<.<.<.<.<.<.<.<.<.<.<.<.<.<.",
"<.<.<.<.<.<.<.<.<.<.<.<.<.<.b X e p.g.{ g j M 3 2 b >.<.<.<.<.<.<.<.<.<.<.<.<.<.<.<.",
"<.<.<.<.<.<.<.<.<.<.<.<.<.<.b + L p.h.| h B ~ q y ,.<.<.<.<.<.<.<.<.<.<.<.<.<.<.<.<.",
"<.<.<.<.<.<.<.<.<.<.<.<.,.;.b 8 7.w.r.T n 4.s.R y -.,.<.<.<.<.<.<.<.<.<.<.<.<.<.<.<.",
"<.<.<.<.<.<.<.<.<.<.<.<.,.c : 3 D 0.e.9.] a.f.y.J r ;.<.<.<.<.<.<.<.<.<.<.<.<.<.<.<.",
"<.<.<.<.<.<.<.<.<.<.<.<.>.0 @ 4 e F C 9 C t.i.u.U = -.<.<.<.<.<.<.<.<.<.<.<.<.<.<.<.",
"<.<.<.<.<.<.<.<.<.<.<.<.,.W q ; - - . $ a A 8.e.9.Z P -.<.<.<.<.<.<.<.<.<.<.<.<.<.<.",
"<.<.<.<.<.<.<.<.<.<.<.<.<.:.b + + + + c ( $ H 8.q.Y $ / <.<.<.<.<.<.<.<.<.<.<.<.<.<.",
"<.<.<.<.<.<.<.<.<.<.<.,.>.( P b K K K P K $ G S e w # / ,.,.<.<.<.<.<.<.<.<.<.<.<.<.",
"<.<.<.<.<.<.<.<.<.<.<.>./ I P P P P K P K a 7 , 4 3 X s [ ,.<.<.<.<.<.<.<.<.<.<.<.<.",
"<.<.<.<.<.<.<.<.<.<.<.:.^ I P P P P P P P K p a c s u v [ <.<.<.<.<.<.<.<.<.<.<.<.<.",
"<.<.<.<.<.<.<.<.<.<.<.>._ I P P P P P P P P I I E Q Q ! [ ,.<.<.<.<.<.<.<.<.<.<.<.<.",
"<.<.<.<.<.<.<.<.<.<.<.<.,._ I ^ I / I / I / I / / I / ;.,.<.<.<.<.<.<.<.<.<.<.<.<.<.",
"<.<.<.<.<.<.<.<.<.<.<.<.,.,.>.>.>.>.,.>.>.>.>.>.>.>.>.,.<.<.<.<.<.<.<.<.<.<.<.<.<.<."
};
