/* XPM */
static char *result[] = {
/* columns rows colors chars-per-pixel */
"42 42 150 2 ",
"   c #050503",
".  c #0D0705",
"X  c #070907",
"o  c #0D0906",
"O  c #110B06",
"+  c #150E08",
"@  c #1A0F09",
"#  c #12100C",
"$  c #1D140C",
"%  c #080B12",
"&  c #060D1B",
"*  c #0B0F1A",
"=  c #0A121A",
"-  c #131510",
";  c #141A16",
":  c #1C1B13",
">  c #171F18",
",  c #24160D",
"<  c #271A0F",
"1  c #2A1A0F",
"2  c #241B13",
"3  c #2D1D11",
"4  c #211D18",
"5  c #331F13",
"6  c #1D241D",
"7  c #232017",
"8  c #292217",
"9  c #26251C",
"0  c #29261C",
"q  c #352114",
"w  c #3B2416",
"e  c #3A2619",
"r  c #312C1E",
"t  c #3E281B",
"y  c #141F27",
"u  c #222C25",
"i  c #232E28",
"p  c #253126",
"a  c #273328",
"s  c #2A3528",
"d  c #2B392C",
"f  c #3F3527",
"g  c #342E36",
"h  c #2E3D36",
"j  c #412817",
"k  c #442B1A",
"l  c #482E1C",
"z  c #4C311D",
"x  c #50341F",
"c  c #402E25",
"v  c #453024",
"b  c #4F3520",
"n  c #48382C",
"m  c #523620",
"M  c #563923",
"N  c #5A3C26",
"B  c #5C3D29",
"V  c #443B31",
"C  c #344334",
"Z  c #384635",
"A  c #3A4D3C",
"S  c #3D513F",
"D  c #5E412A",
"F  c #444434",
"G  c #534236",
"H  c #62422C",
"J  c #644730",
"K  c #6C4B35",
"L  c #684F3A",
"P  c #734F38",
"I  c #6C533F",
"U  c #73533D",
"Y  c #10264F",
"T  c #16305E",
"R  c #3E3D49",
"E  c #253857",
"W  c #2D3B57",
"Q  c #2A385B",
"!  c #313C56",
"~  c #1D3A73",
"^  c #1A3C7C",
"/  c #233D75",
"(  c #3D4F45",
")  c #3E5147",
"_  c #3F5348",
"`  c #364665",
"'  c #425643",
"]  c #435845",
"[  c #405549",
"{  c #465D4A",
"}  c #485D48",
"|  c #675445",
" . c #685647",
".. c #4B644E",
"X. c #4D6655",
"o. c #526D56",
"O. c #536D5A",
"+. c #547057",
"@. c #57735C",
"#. c #58745E",
"$. c #5B795E",
"%. c #766352",
"&. c #4E586C",
"*. c #5A7760",
"=. c #5D7C60",
"-. c #607F65",
";. c #736E79",
":. c #797074",
">. c #845D45",
",. c #886247",
"<. c #8C6349",
"1. c #94694D",
"2. c #886751",
"3. c #9B6E52",
"4. c #A07155",
"5. c #A77759",
"6. c #AA795C",
"7. c #9B7663",
"8. c #9E7B6C",
"9. c #618166",
"0. c #648668",
"q. c #66896B",
"w. c #6A8D6E",
"e. c #6C8F70",
"r. c #6E9372",
"t. c #709574",
"y. c #A88063",
"u. c #AE8B6E",
"i. c #B08B6E",
"p. c #A89176",
"a. c #AD967C",
"s. c #B79476",
"d. c #B79578",
"f. c #1D4286",
"g. c #1D438A",
"h. c #245192",
"j. c #23529D",
"k. c #285CA8",
"l. c #4E6DA0",
"z. c #4A73AD",
"x. c #597EB5",
"c. c #7C8EA8",
"v. c #85838C",
"b. c #818396",
"n. c #B29D83",
"m. c #A09C9E",
"M. c #BCA689",
"N. c #BFA98C",
"B. c #9A9FAF",
"V. c #C1AC8F",
/* pixels */
"t.t.t.t.t.t.t.t.t.t.t.t.t.t.t.t.t.t.t.t.t.t.t.t.t.t.t.t.t.t.t.t.t.t.t.t.t.t.t.t.t.t.",
"t.t.t.t.t.t.t.t.t.t.t.t.t.t.t.t.t.t.t.t.t.t.t.t.t.t.t.t.t.t.t.t.t.t.t.t.t.t.t.t.t.t.",
"t.t.t.t.t.t.t.t.t.t.t.t.t.t.t.t.t.t.t.t.t.t.t.t.t.t.t.t.t.t.t.t.t.t.t.t.t.t.t.t.t.t.",
"t.t.t.t.t.t.t.t.t.t.t.t.t.t.t.t.t.t.t.t.t.t.t.t.t.t.t.t.t.t.t.t.t.t.t.t.t.t.t.t.t.t.",
"t.t.t.t.t.t.t.t.t.t.t.t.t.t.t.t.t.t.t.t.t.t.t.t.t.t.t.t.t.t.t.t.t.t.t.t.t.t.t.t.t.t.",
"t.t.t.t.t.t.t.t.t.t.t.t.t.t.t.t.t.t.t.t.t.t.t.t.t.t.t.t.t.t.t.t.t.t.t.t.t.t.t.t.t.t.",
"t.t.t.t.t.t.t.t.t.t.t.t.t.t.t.t.t.t.t.t.t.t.t.t.t.t.t.t.t.t.t.t.t.t.t.t.t.t.t.t.t.t.",
"t.t.t.t.t.t.t.t.t.t.t.t.t.t.t.t.t.t.t.t.t.t.t.t.t.t.t.t.t.t.t.t.t.t.t.t.t.t.t.t.t.t.",
"t.t.t.t.t.t.t.t.t.t.t.t.t.t.t.t.t.t.t.t.t.t.t.t.t.t.t.t.t.t.t.t.t.t.t.t.t.t.t.t.t.t.",
"t.t.t.t.t.t.t.t.t.t.t.t.t.t.t.t.t.t.t.t.t.t.t.t.t.t.t.t.t.t.t.t.t.t.t.t.t.t.t.t.t.t.",
"t.t.t.t.t.t.t.t.t.t.t.t.t.t.t.t.t.t.t.t.t.t.t.t.t.r.r.r.t.t.t.t.t.t.t.t.t.t.t.t.t.t.",
"t.t.t.t.t.t.t.t.t.t.t.t.t.t.t.t.t.t.r.e.e.r.r.e.w.r.r.r.t.t.t.t.t.t.t.t.t.t.t.t.t.t.",
"t.t.t.t.t.t.t.t.t.t.t.t.t.t.t.t.t.t...u C 9.A p p p p +.t.t.t.t.t.t.t.t.t.t.t.t.t.t.",
"t.t.t.t.t.t.t.t.t.t.t.t.t.t.t.0.] S 6 o 8 Z 9 $ < , X { t.t.t.t.t.t.t.t.t.t.t.t.t.t.",
"t.t.t.t.t.t.t.t.t.t.t.t.t.r.0.} : + o < z $ q z z t . ..t.t.t.t.t.t.t.t.t.t.t.t.t.t.",
"t.t.t.t.t.t.t.t.t.t.t.t.r.w.' 2 z x k k x k z M k + . ' w.t.t.t.t.t.t.t.t.t.t.t.t.t.",
"t.t.t.t.t.t.t.t.t.t.t.t.t.Z 8 b x D x x M M M M M l q 7 S r.r.t.t.t.t.t.t.t.t.t.t.t.",
"t.t.t.t.t.t.t.t.t.t.t.q.A p k M M M M M M M M M M M z 5 8 S w.t.t.t.t.t.t.t.t.t.t.t.",
"t.t.t.t.t.t.t.t.t.t.t.9.: q M M x x x x M M M x z M M z @ 6 0.r.t.t.t.t.t.t.t.t.t.t.",
"t.t.t.t.t.t.t.t.t.t.w.o.: e M M J M l z M M M z l x x l , 6 0.t.t.t.t.t.t.t.t.t.t.t.",
"t.t.t.t.t.t.t.t.t.t.@.> 5 l m B 3.4.P z x x M z j j k j , ; 0.r.t.t.t.t.t.t.t.t.t.t.",
"t.t.t.t.t.t.t.t.t.t.o.# q j H 1.5.y.4.P x x x z j j z k , 6 0.t.t.t.t.t.t.t.t.t.t.t.",
"t.t.t.t.t.t.t.t.t.t.o.# 5 3 e U i.d.2.J P D z H K x x z , ; 0.t.t.t.t.t.t.t.t.t.t.t.",
"t.t.t.t.t.t.t.t.t.t.$.s 2 O . c d.V. .G 5.D D ,.1.N x j , 6 0.t.t.t.t.t.t.t.t.t.t.t.",
"t.t.t.t.t.t.t.t.t.t.r.9.u . # G n.V.%.| p.I <.6.1.M k w < u 0.t.t.t.t.t.t.t.t.t.t.t.",
"t.t.t.t.t.t.t.t.t.t.t.r.9.p V a.N.V.n.n.M.d.y.6.,.z w $ C 9.t.t.t.t.t.t.t.t.t.t.t.t.",
"t.t.t.t.t.t.t.t.t.t.t.t.r.d n s.N.V.V.V.N.u.U H x w , C $.t.t.t.t.t.t.t.t.t.t.t.t.t.",
"t.t.t.t.t.t.t.t.t.t.t.t.r...F I u.d.d.d.u.,.N k w 3 C $.t.t.t.t.t.t.t.t.t.t.t.t.t.t.",
"t.t.t.t.t.t.t.t.t.t.t.t.t.t.] $ >.7.8.7.,.H M z 1 - $.t.t.t.t.t.t.t.t.t.t.t.t.t.t.t.",
"t.t.t.t.t.t.t.t.t.t.t.t.t.t.] o v ;.c.:.L J N z 1 # 9.t.t.t.t.t.t.t.t.t.t.t.t.t.t.t.",
"t.t.t.t.t.t.t.t.t.t.t.t.t.t.' o j v.B.m.a.p.U l 5 - 9.r.t.t.t.t.t.t.t.t.t.t.t.t.t.t.",
"t.t.t.t.t.t.t.t.t.t.t.t.t.t.' % Q l.x.c.N.M.I ( E ; $.t.t.t.t.t.t.t.t.t.t.t.t.t.t.t.",
"t.t.t.t.t.t.t.t.t.t.t.t.t.t.] & ^ k.k.z.c.b.&.` W 4 A 9.t.t.t.t.t.t.t.t.t.t.t.t.t.t.",
"t.t.t.t.t.t.t.t.t.t.t.t.t.t.] & ^ g.j.k.h.h.h.! w w o } t.t.t.t.t.t.t.t.t.t.t.t.t.t.",
"t.t.t.t.t.t.t.t.t.t.t.t.r.w.' = ~ f.f.T = * * 2 w 3 o } t.t.t.t.t.t.t.t.t.t.t.t.t.t.",
"t.t.t.t.t.t.t.t.t.t.t.t.r.A 4 q g / Y y h h h 6 o .   ..t.t.t.t.t.t.t.t.t.t.t.t.t.t.",
"t.t.t.t.t.t.t.t.t.t.r.r.#.u @ e r R = ; ( ( ( R u u i [ -.t.t.t.t.t.t.t.t.t.t.t.t.t.",
"t.t.t.t.t.t.t.t.t.r.r.w.{ a 9 v f f 0 i ( ( ( _ ( ' _ _ O.t.t.t.t.t.t.t.t.t.t.t.t.t.",
"t.t.t.t.t.t.t.t.t.t.r.r.X._ ) ( _ ( ( _ ( _ _ _ _ _ ) [ #.t.t.t.t.t.t.t.t.t.t.t.t.t.",
"t.t.t.t.t.t.t.t.t.t.r.r.w.O._ _ _ _ _ _ _ _ _ _ [ _ [ *.e.t.t.t.t.t.t.t.t.t.t.t.t.t.",
"t.t.t.t.t.t.t.t.t.t.t.t.r.q.9.9.9.9.9.9.=.0.=.0.9.9.9.e.t.t.t.t.t.t.t.t.t.t.t.t.t.t.",
"t.t.t.t.t.t.t.t.t.t.t.t.t.t.t.t.t.t.t.t.t.t.t.t.t.t.t.t.t.t.t.t.t.t.t.t.t.t.t.t.t.t."
};
