/* XPM */
static char *result[] = {
/* columns rows colors chars-per-pixel */
"42 42 136 2 ",
"   c #040302",
".  c #0D0704",
"X  c #070807",
"o  c #0D0906",
"O  c #0B0C0A",
"+  c #120B07",
"@  c #110E09",
"#  c #0D110D",
"$  c #12140F",
"%  c #1B120C",
"&  c #080D13",
"*  c #0B1116",
"=  c #0B131B",
"-  c #121612",
";  c #191710",
":  c #141A14",
">  c #1B1D15",
",  c #191C1E",
"<  c #22160D",
"1  c #27180E",
"2  c #28180E",
"3  c #2C1D12",
"4  c #321F12",
"5  c #1A221A",
"6  c #1E281F",
"7  c #28261B",
"8  c #28281D",
"9  c #352114",
"0  c #392415",
"q  c #3E2A19",
"w  c #2B2221",
"e  c #222E23",
"r  c #332721",
"t  c #3B2F27",
"y  c #243126",
"u  c #2D3327",
"i  c #313224",
"p  c #363028",
"a  c #2E3D35",
"s  c #412817",
"d  c #442B1A",
"f  c #492E1B",
"g  c #4C321E",
"h  c #50341F",
"j  c #4D392C",
"k  c #533621",
"l  c #563923",
"z  c #593B25",
"x  c #5C3E29",
"c  c #324037",
"v  c #384739",
"b  c #3B453A",
"n  c #374939",
"m  c #5D422E",
"M  c #424B3A",
"N  c #534134",
"B  c #5D4131",
"V  c #5D4739",
"C  c #5D4A3C",
"Z  c #64442F",
"A  c #664532",
"S  c #674C34",
"D  c #704D34",
"F  c #7A543D",
"G  c #1E325D",
"H  c #183872",
"J  c #243D71",
"K  c #3A4C42",
"L  c #3E5147",
"P  c #3F5248",
"I  c #1C417E",
"U  c #254677",
"Y  c #23447C",
"T  c #415542",
"R  c #425844",
"E  c #635243",
"W  c #685141",
"Q  c #615748",
"!  c #4C644D",
"~  c #4D6655",
"^  c #4E6851",
"/  c #526E56",
"(  c #536E59",
")  c #56725B",
"_  c #58765D",
"`  c #5B795E",
"'  c #736452",
"]  c #5A7760",
"[  c #5E7D62",
"{  c #7A6E64",
"}  c #835B42",
"|  c #91674C",
" . c #95694D",
".. c #9B6F54",
"X. c #86735F",
"o. c #887058",
"O. c #9D7157",
"+. c #9E765A",
"@. c #A2795C",
"#. c #AA795C",
"$. c #83706E",
"%. c #8E7C7E",
"&. c #A77E62",
"*. c #618164",
"=. c #64856A",
"-. c #67896B",
";. c #6A8D6E",
":. c #6E9272",
">. c #709574",
",. c #A58166",
"<. c #AE8365",
"1. c #A3876C",
"2. c #B08467",
"3. c #B19B7F",
"4. c #224E99",
"5. c #325A94",
"6. c #275CA9",
"7. c #3C67A4",
"8. c #2C65B5",
"9. c #3C6DB4",
"0. c #6B7289",
"q. c #717384",
"w. c #4D72A7",
"e. c #4772AE",
"r. c #768195",
"t. c #81869D",
"y. c #A29485",
"u. c #B49E82",
"i. c #B7A387",
"p. c #BCA386",
"a. c #BEA68A",
"s. c #BEA98D",
"d. c #AEA393",
"f. c #818EAA",
"g. c #8F9CB4",
"h. c #C1AB8E",
/* pixels */
">.>.>.>.>.>.>.>.>.>.>.>.>.>.>.>.>.>.>.>.>.>.>.>.>.>.>.>.>.>.>.>.>.>.>.>.>.>.>.>.>.>.",
">.>.>.>.>.>.>.>.>.>.>.>.>.>.>.>.>.>.>.>.>.>.>.>.>.>.>.>.>.>.>.>.>.>.>.>.>.>.>.>.>.>.",
">.>.>.>.>.>.>.>.>.>.>.>.>.>.>.>.>.>.>.>.>.>.>.>.>.>.>.>.>.>.>.>.>.>.>.>.>.>.>.>.>.>.",
">.>.>.>.>.>.>.>.>.>.>.>.>.>.>.>.>.>.>.>.>.>.>.>.>.>.>.>.>.>.>.>.>.>.>.>.>.>.>.>.>.>.",
">.>.>.>.>.>.>.>.>.>.>.>.>.>.>.>.>.>.>.>.>.>.>.>.>.>.>.>.>.>.>.>.>.>.>.>.>.>.>.>.>.>.",
">.>.>.>.>.>.>.>.>.>.>.>.>.>.>.>.>.>.>.>.>.>.>.>.>.>.>.>.>.>.>.>.>.>.>.>.>.>.>.>.>.>.",
">.>.>.>.>.>.>.>.>.>.>.>.>.>.>.>.>.>.>.>.>.>.>.>.>.>.>.>.>.>.>.>.>.>.>.>.>.>.>.>.>.>.",
">.>.>.>.>.>.>.>.>.>.>.>.>.>.>.>.>.>.>.>.>.>.>.>.>.>.>.>.>.>.>.>.>.>.>.>.>.>.>.>.>.>.",
">.>.>.>.>.>.>.>.>.>.>.>.>.>.>.>.>.>.>.>.>.>.>.>.>.>.>.>.>.>.>.>.>.>.>.>.>.>.>.>.>.>.",
">.>.>.>.>.>.>.>.>.>.>.>.>.>.>.>.>.>.>.>.>.>.>.>.>.>.>.>.>.>.>.>.>.>.>.>.>.>.>.>.>.>.",
">.>.>.>.>.>.>.>.>.>.>.>.>.>.>.>.>.>.>.>.>.>.>.>.>.>.>.>.>.>.>.>.>.>.>.>.>.>.>.>.>.>.",
">.>.>.>.>.>.>.>.>.>.>.>.>.>.>.>.>.>.>.>.>.>.>.>.>.>.>.>.>.>.>.>.>.>.>.>.>.>.>.>.>.>.",
">.>.>.>.>.>.>.>.>.>.>.>.>.>.>.>.>.>.>.>.>.>.>.>.>.>.>.>.>.>.>.>.>.>.>.>.>.>.>.>.>.>.",
">.>.>.>.>.>.>.>.>.>.>.>.>.>.>.>.>.>./ T ! -./ T R R R ` >.>.>.>.>.>.>.>.>.>.>.>.>.>.",
">.>.>.>.>.>.>.>.>.>.>.>.>.>.>.;.` ` e   5 ! e . + .   R >.>.>.>.>.>.>.>.>.>.>.>.>.>.",
">.>.>.>.>.>.>.>.>.>.>.>.>.>.;.^ > - . < d ; 3 d g q . R >.>.>.>.>.>.>.>.>.>.>.>.>.>.",
">.>.>.>.>.>.>.>.>.>.>.>.>.>.R 8 q q 9 q g 0 f h f %   T >.>.>.>.>.>.>.>.>.>.>.>.>.>.",
">.>.>.>.>.>.>.>.>.>.>.>.;.! i q l l h g l g l l g 3 < u ! :.>.>.>.>.>.>.>.>.>.>.>.>.",
">.>.>.>.>.>.>.>.>.>.>.;.^ 7 q h l l l l l z l l l l f 1 u / ;.>.>.>.>.>.>.>.>.>.>.>.",
">.>.>.>.>.>.>.>.>.>.:.` > d h x l l h l l l l l l l l d 2 5 *.>.>.>.>.>.>.>.>.>.>.>.",
">.>.>.>.>.>.>.>.>.>.:._ - d h h l g d f l l l g g h h f 2 : *.>.>.>.>.>.>.>.>.>.>.>.",
">.>.>.>.>.>.>.>.>.>./ u 2 g h Z } } z f l l l g d f g d 2 : *.>.>.>.>.>.>.>.>.>.>.>.",
">.>.>.>.>.>.>.>.>.>.n @ 0 g z F #.#.} z h l l g s s f s 2 : *.:.>.>.>.>.>.>.>.>.>.>.",
">.>.>.>.>.>.>.>.>.>.M o 0 0 A O.<.<.O.F l l k k g f h f 2 : *.>.>.>.>.>.>.>.>.>.>.>.",
">.>.>.>.>.>.>.>.>.>.R $ 9 + % V 3.i.E m | x g D } x h h 2 : *.>.>.>.>.>.>.>.>.>.>.>.",
">.>.>.>.>.>.>.>.>.>.*.M %   + N i.s.C V 1.m F .. .x f s 2 ; *.>.>.>.>.>.>.>.>.>.>.>.",
">.>.>.>.>.>.>.>.>.>.>.=.n # p X.s.h.X.,.3.o.+.#.| h d 2 8 M -.>.>.>.>.>.>.>.>.>.>.>.",
">.>.>.>.>.>.>.>.>.>.>.>.-.5 Q p.h.h.h.h.h.3.+.| F d 4 7 n ;.>.>.>.>.>.>.>.>.>.>.>.>.",
">.>.>.>.>.>.>.>.>.>.>.>.-.y B ,.p.a.a.a.3.#.Z f d 9 ; R :.>.>.>.>.>.>.>.>.>.>.>.>.>.",
">.>.>.>.>.>.>.>.>.>.>.>.:.*.v j &.2.2.2.@.D m f 4 ; ! -.>.>.>.>.>.>.>.>.>.>.>.>.>.>.",
">.>.>.>.>.>.>.>.>.>.>.>.>.>./ M N $.%.%.$.m l h 0 $ ` >.>.>.>.>.>.>.>.>.>.>.>.>.>.>.",
">.>.>.>.>.>.>.>.>.>.>.>.>.>.>./ , q.t.t.q.B l l d $ ` >.>.>.>.>.>.>.>.>.>.>.>.>.>.>.",
">.>.>.>.>.>.>.>.>.>.>.>.>.>.>./ , r.g.f.0.W S z q 6 [ :.>.>.>.>.>.>.>.>.>.>.>.>.>.>.",
">.>.>.>.>.>.>.>.>.>.>.>.>.>.>.^ = 5.9.9.w.y.u.Q 6 ] :.>.>.>.>.>.>.>.>.>.>.>.>.>.>.>.",
">.>.>.>.>.>.>.>.>.>.>.>.>.>.>.^ = I 6.8.e.d.h.Q 6 -.>.>.>.>.>.>.>.>.>.>.>.>.>.>.>.>.",
">.>.>.>.>.>.>.>.>.>.>.>.:.*.` L * H 4.6.7.{ ' p , ( ] -.>.>.>.>.>.>.>.>.>.>.>.>.>.>.",
">.>.>.>.>.>.>.>.>.>.>.:.=.! K a & G J Y U w X   - K L ) -.:.>.>.>.>.>.>.>.>.>.>.>.>.",
">.>.>.>.>.>.>.>.>.>.>.-.! L K a $ r t w * O X X : K P P ) :.>.>.>.>.>.>.>.>.>.>.>.>.",
">.>.>.>.>.>.>.>.>.>.>.-.P P L K a b b b a a a c c L L L ( >.>.>.>.>.>.>.>.>.>.>.>.>.",
">.>.>.>.>.>.>.>.>.>.>.:.] P L L P L L P L P L L P P L ~ [ :.>.>.>.>.>.>.>.>.>.>.>.>.",
">.>.>.>.>.>.>.>.>.>.>.>.:.] ~ ~ ~ ~ ~ ~ ~ ~ ~ ~ ~ ~ ~ =.>.>.>.>.>.>.>.>.>.>.>.>.>.>.",
">.>.>.>.>.>.>.:.>.>.>.>.:.:.:.:.;.:.:.:.:.:.;.:.:.:.:.:.>.>.>.>.>.>.>.>.>.>.>.>.>.>."
};
