/* XPM */
static char *result[] = {
/* columns rows colors chars-per-pixel */
"42 42 145 2 ",
"   c #0B0604",
".  c #0C0906",
"X  c #090B09",
"o  c #140C07",
"O  c #110E0A",
"+  c #180E08",
"@  c #15100B",
"#  c #1C140D",
"$  c #070E1A",
"%  c #0F1410",
"&  c #07101C",
"*  c #0B111A",
"=  c #191613",
"-  c #151A14",
";  c #1F1C16",
":  c #13171A",
">  c #161D18",
",  c #1E1B1A",
"<  c #22160C",
"1  c #25180E",
"2  c #2A1A0F",
"3  c #261F15",
"4  c #2C1E13",
"5  c #311E12",
"6  c #1B231C",
"7  c #282217",
"8  c #26231B",
"9  c #342114",
"0  c #3B2516",
"q  c #37281C",
"w  c #3B2A1C",
"e  c #0C1828",
"r  c #1E2722",
"t  c #192936",
"y  c #242125",
"u  c #242C22",
"i  c #372820",
"p  c #3D2B23",
"a  c #2B3125",
"s  c #29352A",
"d  c #2C3B2E",
"f  c #383128",
"g  c #2F3F31",
"h  c #412817",
"j  c #442B19",
"k  c #492E1B",
"l  c #4D321E",
"z  c #50341F",
"x  c #523621",
"c  c #563923",
"v  c #5D3D29",
"b  c #493B37",
"n  c #334435",
"m  c #384636",
"M  c #35443B",
"N  c #3E463B",
"B  c #374A39",
"V  c #3F513E",
"C  c #414435",
"Z  c #574639",
"A  c #5E493D",
"S  c #63432C",
"D  c #69472F",
"F  c #624434",
"G  c #6A4D3A",
"H  c #6C533D",
"J  c #7B553D",
"K  c #0F2348",
"L  c #132D5E",
"P  c #293250",
"I  c #323D5C",
"U  c #17356B",
"Y  c #193A77",
"T  c #213F7A",
"R  c #394B42",
"E  c #3E5147",
"W  c #2E4778",
"Q  c #344A70",
"!  c #425441",
"~  c #405449",
"^  c #455D49",
"/  c #485F50",
"(  c #735743",
")  c #4B634D",
"_  c #4C6554",
"`  c #4F6954",
"'  c #516C54",
"]  c #567359",
"[  c #59755B",
"{  c #5B795E",
"}  c #7C6957",
"|  c #535E7A",
" . c #605D68",
".. c #5D7C62",
"X. c #7E7169",
"o. c #845D45",
"O. c #87634A",
"+. c #936A4F",
"@. c #846E55",
"#. c #996C51",
"$. c #8F7059",
"%. c #9A735B",
"&. c #A37457",
"*. c #A57659",
"=. c #AA795C",
"-. c #967963",
";. c #9F7B6B",
":. c #618164",
">. c #648669",
",. c #67896B",
"<. c #6A8D6E",
"1. c #6B8E70",
"2. c #6E9272",
"3. c #709574",
"4. c #91867B",
"5. c #A9866B",
"6. c #AB896D",
"7. c #B28F72",
"8. c #A7937A",
"9. c #A9947A",
"0. c #AC987E",
"q. c #B79476",
"w. c #B9987B",
"e. c #294987",
"r. c #20468A",
"t. c #35528B",
"y. c #275598",
"u. c #2E5DA2",
"i. c #2C60AB",
"p. c #2C65B5",
"a. c #4D6B9C",
"s. c #66718A",
"d. c #777A8E",
"f. c #797888",
"g. c #5B7EB2",
"h. c #607BA8",
"j. c #958A8C",
"k. c #818295",
"l. c #A79B8E",
"z. c #B7A387",
"x. c #BEA689",
"c. c #BEA88B",
"v. c #9398AA",
"b. c #9B9FAF",
"n. c #C1AC8F",
/* pixels */
"3.3.3.3.3.3.3.3.3.3.3.3.3.3.3.3.3.3.3.3.3.3.3.3.3.3.3.3.3.3.3.3.3.3.3.3.3.3.3.3.3.3.",
"3.3.3.3.3.3.3.3.3.3.3.3.3.3.3.3.3.3.3.3.3.3.3.3.3.3.3.3.3.3.3.3.3.3.3.3.3.3.3.3.3.3.",
"3.3.3.3.3.3.3.3.3.3.3.3.3.3.3.3.3.3.3.3.3.3.3.3.3.3.3.3.3.3.3.3.3.3.3.3.3.3.3.3.3.3.",
"3.3.3.3.3.3.3.3.3.3.3.3.3.3.3.3.3.3.3.3.3.3.3.3.3.3.3.3.3.3.3.3.3.3.3.3.3.3.3.3.3.3.",
"3.3.3.3.3.3.3.3.3.3.3.3.3.3.3.3.3.3.3.3.3.3.3.3.3.3.3.3.3.3.3.3.3.3.3.3.3.3.3.3.3.3.",
"3.3.3.3.3.3.3.3.3.3.3.3.3.3.3.3.3.3.3.3.3.3.3.3.3.3.3.3.3.3.3.3.3.3.3.3.3.3.3.3.3.3.",
"3.3.3.3.3.3.3.3.3.3.3.3.3.3.3.3.3.3.3.3.3.3.3.3.3.3.3.3.3.3.3.3.3.3.3.3.3.3.3.3.3.3.",
"3.3.3.3.3.3.3.3.3.3.3.3.3.3.3.3.3.3.3.3.3.3.3.3.3.3.3.3.3.3.3.3.3.3.3.3.3.3.3.3.3.3.",
"3.3.3.3.3.3.3.3.3.3.3.3.3.3.3.3.3.3.2.2.3.2.2.2.3.3.2.3.3.3.3.3.3.3.3.3.3.3.3.3.3.3.",
"3.3.3.3.3.3.3.3.3.3.3.3.3.3.3.3.3.3.<.:.:.2.,.:.:.:.:.,.2.3.3.3.3.3.3.3.3.3.3.3.3.3.",
"3.3.3.3.3.3.3.3.3.3.3.3.3.3.3.2.2.2.) % 6 [ V 6 - - - B 2.3.3.3.3.3.3.3.3.3.3.3.3.3.",
"3.3.3.3.3.3.3.3.3.3.3.3.3.3.3.,.n s 6 . 7 a 7 4 9 q o d 2.3.3.3.3.3.3.3.3.3.3.3.3.3.",
"3.3.3.3.3.3.3.3.3.3.3.3.3.3.:.V 7 1 # 1 l 2 9 l z 0 o d 3.2.2.3.3.3.3.3.3.3.3.3.3.3.",
"3.3.3.3.3.3.3.3.3.3.3.3.3.>.! # l c z k z j l c l # . a :.2.3.3.3.3.3.3.3.3.3.3.3.3.",
"3.3.3.3.3.3.3.3.3.3.3.2.<.B 3 l c c z c S z c c c z j 7 8 { 2.3.3.3.3.3.3.3.3.3.3.3.",
"3.3.3.3.3.3.3.3.3.3.3.,.g q k x c c c c z z S c c c x k 7 u { 3.3.3.3.3.3.3.3.3.3.3.",
"3.3.3.3.3.3.3.3.3.3.3.>.6 9 c c c z k z S z c z z c z z 0 O ' 3.3.3.3.3.3.3.3.3.3.3.",
"3.3.3.3.3.3.3.3.3.3.,.) ; 9 c c D D z j z c c z j z z l 9 O ' 3.3.3.3.3.3.3.3.3.3.3.",
"3.3.3.3.3.3.3.3.3.3.[ - 7 k x v #.&.J z c c c z h h j h 9 O ' 3.3.3.3.3.3.3.3.3.3.3.",
"3.3.3.3.3.3.3.3.3.3.] @ 5 h v #.*.5.*.o.z z c z j 0 l k 9 . ' 3.3.3.3.3.3.3.3.3.3.3.",
"3.3.3.3.3.3.3.3.3.3.] @ 5 2 4 F 5.w.$.Z J S l z J z z l 9 O ' 3.3.3.3.3.3.3.3.3.3.3.",
"3.3.3.3.3.3.3.3.3.3.:.d 3 o   i 7.n.} p %.D S J #.D z k 9 O ' 3.3.3.3.3.3.3.3.3.3.3.",
"3.3.3.3.3.3.3.3.3.3.3.>.a X @ b 0.n.$.Z 0.( O.=.&.S k 0 5 6 ] 3.3.3.3.3.3.3.3.3.3.3.",
"3.3.3.3.3.3.3.3.3.3.3.2.>.d f 8.c.n.z.0.c.0.5.*.#.z h 2 6 ] <.3.3.3.3.3.3.3.3.3.3.3.",
"3.3.3.3.3.3.3.3.3.3.3.3.3.n p 6.x.n.n.n.c.q.O.S S h 1 a ] <.3.3.3.3.3.3.3.3.3.3.3.3.",
"3.3.3.3.3.3.3.3.3.3.3.3.3.` C G 5.q.w.w.7.+.S l k 0 + s 2.3.3.3.3.3.3.3.3.3.3.3.3.3.",
"3.3.3.3.3.3.3.3.3.3.3.3.3.3.) @ G -.;.;.-.G c c z k # s 2.3.3.3.3.3.3.3.3.3.3.3.3.3.",
"3.3.3.3.3.3.3.3.3.3.3.3.3.3.)   <  .k.d.f.A c c c z < n 2.3.3.3.3.3.3.3.3.3.3.3.3.3.",
"3.3.3.3.3.3.3.3.3.3.3.3.3.3./ = ( j.b.v.f.C z c c z # n 3.3.3.3.3.3.3.3.3.3.3.3.3.3.",
"3.3.3.3.3.3.3.3.3.3.3.3.3.3.) : | h.g.g.a.b H %.@.0 n ' 2.3.3.3.3.3.3.3.3.3.3.3.3.3.",
"3.3.3.3.3.3.3.3.3.3.3.3.3.{ m , Q u.p.p.i.I X.n.9.7 ^ 2.3.3.3.3.3.3.3.3.3.3.3.3.3.3.",
"3.3.3.3.3.3.3.3.3.3.3.3.3.n + 0 p Q y.y.y.r.s.l.4.6 ) 3.3.3.3.3.3.3.3.3.3.3.3.3.3.3.",
"3.3.3.3.3.3.3.3.3.3.3.3.3.m @ 0 0 p y & e U e.t.W * ^ 3.3.3.3.3.3.3.3.3.3.3.3.3.3.3.",
"3.3.3.3.3.3.3.3.3.3.3.3.3.{ m @ o .   * E t L r.Y $ ^ 3.3.3.3.3.3.3.3.3.3.3.3.3.3.3.",
"3.3.3.3.3.3.3.3.3.3.3.3.2.>.^ r r r r d ) > K T P 3 f ' 2.3.3.3.3.3.3.3.3.3.3.3.3.3.",
"3.3.3.3.3.3.3.3.3.3.3.2.,.' E E E E E E R 6 t L w 0 @ s ,.2.3.3.3.3.3.3.3.3.3.3.3.3.",
"3.3.3.3.3.3.3.3.3.3.3.1._ ~ E E E E E E E R y : 0 w = y _ <.3.3.3.3.3.3.3.3.3.3.3.3.",
"3.3.3.3.3.3.3.3.3.3.3.1./ E E E E E E E E E R M N N g M ^ <.3.3.3.3.3.3.3.3.3.3.3.3.",
"3.3.3.3.3.3.3.3.3.3.3.2..._ E E E E E E E E E E E ~ E / ..2.3.3.3.3.3.3.3.3.3.3.3.3.",
"3.3.3.3.3.3.3.3.3.3.3.3.3..._ _ _ _ _ _ _ _ _ _ _ _ _ ..2.3.3.3.3.3.3.3.3.3.3.3.3.3.",
"3.3.3.3.3.3.3.3.3.3.3.3.3.2.2.2.2.1.2.2.1.2.2.2.2.1.2.2.3.3.3.3.3.3.3.3.3.3.3.3.3.3.",
"3.3.3.3.3.3.3.3.3.3.3.3.3.3.3.3.3.3.3.3.3.2.3.3.3.3.3.3.3.3.3.3.3.3.3.3.3.3.3.3.3.3."
};
