/* XPM */
static char *result[] = {
/* columns rows colors chars-per-pixel */
"42 42 142 2 ",
"   c #050302",
".  c #0B0704",
"X  c #0C0905",
"o  c #0C0D0B",
"O  c #110A06",
"+  c #140D09",
"@  c #14150F",
"#  c #1A110A",
"$  c #151611",
"%  c #141A15",
"&  c #1F1B14",
"*  c #151C1A",
"=  c #23160E",
"-  c #26190F",
";  c #28180E",
":  c #2E1D11",
">  c #311E12",
",  c #1C251D",
"<  c #252117",
"1  c #2D271D",
"2  c #28291E",
"3  c #332115",
"4  c #3C2616",
"5  c #352419",
"6  c #302C1F",
"7  c #3F2A1A",
"8  c #0F1623",
"9  c #161F21",
"0  c #1B1B20",
"q  c #0D1F3D",
"w  c #192426",
"e  c #1E263F",
"r  c #282B20",
"t  c #242F29",
"y  c #3A2D23",
"u  c #3D2F2C",
"i  c #2A3528",
"p  c #29362A",
"a  c #352F39",
"s  c #2F3E36",
"d  c #343D34",
"f  c #412817",
"g  c #442B1A",
"h  c #492E1C",
"j  c #4C311E",
"k  c #50341F",
"l  c #523621",
"z  c #563A23",
"x  c #5A3C26",
"c  c #553B2B",
"v  c #5C3E2A",
"b  c #473A36",
"n  c #4D3B33",
"m  c #5B3F30",
"M  c #324334",
"N  c #3C4436",
"B  c #35453D",
"V  c #3E4438",
"C  c #384B3A",
"Z  c #3E513F",
"A  c #5D402B",
"S  c #4C4638",
"D  c #554234",
"F  c #5A4131",
"G  c #5D4B3E",
"H  c #65442E",
"J  c #694B37",
"K  c #634D3F",
"L  c #714D36",
"P  c #75513A",
"I  c #7A543C",
"U  c #13284D",
"Y  c #132D53",
"T  c #313E60",
"R  c #3B4E44",
"E  c #3E5147",
"W  c #344465",
"Q  c #304A75",
"!  c #344D7D",
"~  c #415542",
"^  c #435945",
"/  c #41564A",
"(  c #455B4A",
")  c #485D48",
"_  c #615041",
"`  c #4B634D",
"'  c #496151",
"]  c #516C55",
"[  c #536E5A",
"{  c #55715B",
"}  c #59775C",
"|  c #7B644E",
" . c #7F6851",
".. c #525362",
"X. c #5F7E64",
"o. c #776563",
"O. c #706A70",
"+. c #8C6248",
"@. c #91664B",
"#. c #966A4E",
"$. c #8E6B5B",
"%. c #946C52",
"&. c #9A6E53",
"*. c #9B755B",
"=. c #A27356",
"-. c #A57A5E",
";. c #AB7A5C",
":. c #608164",
">. c #658769",
",. c #67896B",
"<. c #6A8D6E",
"1. c #6B8F70",
"2. c #6E9272",
"3. c #709574",
"4. c #988066",
"5. c #96836C",
"6. c #9B8770",
"7. c #AC8166",
"8. c #AF8669",
"9. c #A68C71",
"0. c #A79379",
"q. c #AA987E",
"w. c #B99B7D",
"e. c #1E4686",
"r. c #214483",
"t. c #204A8D",
"y. c #315184",
"u. c #23509B",
"i. c #305895",
"p. c #285DAB",
"a. c #2D60A9",
"s. c #2C64B3",
"d. c #356AB5",
"f. c #65779B",
"g. c #787C90",
"h. c #7E90B1",
"j. c #B7A286",
"k. c #BDA386",
"l. c #BCA589",
"z. c #BEA98C",
"x. c #898FA3",
"c. c #C1AC8E",
/* pixels */
"3.3.3.3.3.3.3.3.3.3.3.3.3.3.3.3.3.3.3.3.3.3.3.3.3.3.3.3.3.3.3.3.3.3.3.3.3.3.3.3.3.3.",
"3.3.3.3.3.3.3.3.3.3.3.3.3.3.3.3.3.3.3.3.3.3.3.3.3.3.3.3.3.3.3.3.3.3.3.3.3.3.3.3.3.3.",
"3.3.3.3.3.3.3.3.3.3.3.3.3.3.3.3.3.3.3.3.3.3.3.3.3.3.3.3.3.3.3.3.3.3.3.3.3.3.3.3.3.3.",
"3.3.3.3.3.3.3.3.3.3.3.3.3.3.3.3.3.3.3.3.3.3.3.3.3.3.3.3.3.3.3.3.3.3.3.3.3.3.3.3.3.3.",
"3.3.3.3.3.3.3.3.3.3.3.3.3.3.3.3.3.3.3.3.3.3.3.3.3.3.3.3.3.3.3.3.3.3.3.3.3.3.3.3.3.3.",
"3.3.3.3.3.3.3.3.3.3.3.3.3.3.3.3.3.3.3.3.3.3.3.3.3.3.3.3.3.3.3.3.3.3.3.3.3.3.3.3.3.3.",
"3.3.3.3.3.3.3.3.3.3.3.3.3.3.3.3.3.3.3.3.3.3.3.3.3.3.3.3.3.3.3.3.3.3.3.3.3.3.3.3.3.3.",
"3.3.3.3.3.3.3.3.3.3.3.3.3.3.3.3.3.3.3.3.3.3.3.3.3.3.3.3.3.3.3.3.3.3.3.3.3.3.3.3.3.3.",
"3.3.3.3.3.3.3.3.3.3.3.3.3.3.3.3.3.3.3.3.3.3.3.3.3.3.3.3.3.3.3.3.3.3.3.3.3.3.3.3.3.3.",
"3.3.3.3.3.3.3.3.3.3.3.3.3.3.3.3.3.3.3.3.3.3.3.3.3.3.3.3.3.3.3.3.3.3.3.3.3.3.3.3.3.3.",
"3.3.3.3.3.3.3.3.3.3.3.3.3.3.3.3.3.3.2.3.3.3.3.3.3.2.3.2.3.3.3.3.3.3.3.3.3.3.3.3.3.3.",
"3.3.3.3.3.3.3.3.3.3.3.3.3.3.3.2.3.2.` M Z >.^ M M M M } 3.3.3.3.3.3.3.3.3.3.3.3.3.3.",
"3.3.3.3.3.3.3.3.3.3.3.3.3.3.2.>.` ` , X < S r # # #   ^ 3.3.3.3.3.3.3.3.3.3.3.3.3.3.",
"3.3.3.3.3.3.3.3.3.3.3.3.3.3.,.) @ o X - h @ < j l f X ^ 3.3.3.3.3.3.3.3.3.3.3.3.3.3.",
"3.3.3.3.3.3.3.3.3.3.3.3.2.2.Z < h j 4 g j 4 j z g +   ^ 2.3.3.3.3.3.3.3.3.3.3.3.3.3.",
"3.3.3.3.3.3.3.3.3.3.3.3.<.C 6 g z z k k z j z x j 4 ; 2 ^ 2.3.3.3.3.3.3.3.3.3.3.3.3.",
"3.3.3.3.3.3.3.3.3.3.3.,.^ 1 f z A z z z z z z A z k k > 2 ` ,.3.3.3.3.3.3.3.3.3.3.3.",
"3.3.3.3.3.3.3.3.3.3.3.} @ g z z k k z k z z z k k z k h ; % :.3.3.3.3.3.3.3.3.3.3.3.",
"3.3.3.3.3.3.3.3.3.3.1.] @ g z z A j h j A k z j j k k h ; % :.3.3.3.3.3.3.3.3.3.3.3.",
"3.3.3.3.3.3.3.3.3.3.` , 3 j j v @.@.A h z z z j g g j g ; $ :.3.3.3.3.3.3.3.3.3.3.3.",
"3.3.3.3.3.3.3.3.3.3.S o 4 h H +.;.;.+.H k z k k f f j g ; % :.3.3.3.3.3.3.3.3.3.3.3.",
"3.3.3.3.3.3.3.3.3.3.E X 3 > c @.8.8.%.P A A k A k j k h ; % :.3.3.3.3.3.3.3.3.3.3.3.",
"3.3.3.3.3.3.3.3.3.3.` @ : O + D w.l.K F %.A k I #.A k j ; % :.2.3.3.3.3.3.3.3.3.3.3.",
"3.3.3.3.3.3.3.3.3.3.,.` @   + D j.z.G K 9.A I =.#.x g f ; % :.3.3.3.3.3.3.3.3.3.3.3.",
"3.3.3.3.3.3.3.3.3.3.3.,.) @ S 5.z.z.6.6.j.4.;.;.@.k f ; 2 ` <.3.3.3.3.3.3.3.3.3.3.3.",
"3.3.3.3.3.3.3.3.3.3.3.3.>., _ w.c.c.c.c.c.w.7.#.L g f # i 2.3.3.3.3.3.3.3.3.3.3.3.3.",
"3.3.3.3.3.3.3.3.3.3.3.3.,.p D *.w.k.k.k.w.7.=.L g g f # i 2.3.3.3.3.3.3.3.3.3.3.3.3.",
"3.3.3.3.3.3.3.3.3.3.3.3.2.>.C y *.-.7.7.7.=.P A k k f # i 2.3.3.3.3.3.3.3.3.3.3.3.3.",
"3.3.3.3.3.3.3.3.3.3.3.3.2.2.B X 5 c o.x.x.O.J z k g 7 # i 2.2.3.3.3.3.3.3.3.3.3.3.3.",
"3.3.3.3.3.3.3.3.3.3.3.3.1.) S m c g o.x.x.g.K k A |  .y i 2.3.3.3.3.3.3.3.3.3.3.3.3.",
"3.3.3.3.3.3.3.3.3.3.3.3.,., m ;.*.b O.h.h.f...b J j.z.S i 2.3.3.3.3.3.3.3.3.3.3.3.3.",
"3.3.3.3.3.3.3.3.3.3.3.3.,.t D &.$.y.a.d.d.a.a.W G 0.q.S M 2.3.3.3.3.3.3.3.3.3.3.3.3.",
"3.3.3.3.3.3.3.3.3.3.3.3.2.:.N 3 b i.s.s.s.s.u.r.T n 5 ~ >.2.3.3.3.3.3.3.3.3.3.3.3.3.",
"3.3.3.3.3.3.3.3.3.3.3.3.3.3.M 8 Q a.s.p.t.Y q e a 5 . / 3.3.3.3.3.3.3.3.3.3.3.3.3.3.",
"3.3.3.3.3.3.3.3.3.3.3.3.2.] i w ! p.p.e.U 9 * & ; = . ~ 2.2.3.3.3.3.3.3.3.3.3.3.3.3.",
"3.3.3.3.3.3.3.3.3.3.3.2.:., = f u y.r.U * R R t o o o ~ 2.3.3.3.3.3.3.3.3.3.3.3.3.3.",
"3.3.3.3.3.3.3.3.3.3.3.,.( % = 7 7 u 0 w R R E R B B B E { 2.3.3.3.3.3.3.3.3.3.3.3.3.",
"3.3.3.3.3.3.3.3.3.3.3.>./ s d N V V d s R E E E E E E E [ 2.3.3.3.3.3.3.3.3.3.3.3.3.",
"3.3.3.3.3.3.3.3.3.3.3.1.{ ( E E E E E E R E E E E E E ' X.2.3.3.3.3.3.3.3.3.3.3.3.3.",
"3.3.3.3.3.3.3.3.3.3.3.3.1.[ ' ' ' ' ' ' ' ' ' ' ' ' ' :.2.3.3.3.3.3.3.3.3.3.3.3.3.3.",
"3.3.3.3.3.3.3.3.3.3.3.3.2.2.1.1.1.1.1.1.1.1.1.1.1.1.1.2.3.3.3.3.3.3.3.3.3.3.3.3.3.3.",
"3.3.3.3.3.3.3.3.3.3.3.3.3.3.3.3.3.3.3.3.3.3.3.3.3.3.3.3.3.3.3.3.3.3.3.3.3.3.3.3.3.3."
};
