/* XPM */
static char *result[] = {
/* columns rows colors chars-per-pixel */
"42 42 137 2 ",
"   c #060402",
".  c #080503",
"X  c #0D0906",
"o  c #0C0D0A",
"O  c #120B06",
"+  c #140D09",
"@  c #180F09",
"#  c #11130E",
"$  c #1B130B",
"%  c #0F1110",
"&  c #141510",
"*  c #161C17",
"=  c #1B1C15",
"-  c #211712",
";  c #221B13",
":  c #2D1D12",
">  c #231B1B",
",  c #301D11",
"<  c #19221C",
"1  c #242117",
"2  c #232218",
"3  c #28241B",
"4  c #22291F",
"5  c #29281D",
"6  c #352214",
"7  c #3A2516",
"8  c #30251C",
"9  c #3D2B1B",
"0  c #1D2621",
"q  c #2C2D23",
"w  c #362E26",
"e  c #3D2D28",
"r  c #243025",
"t  c #243029",
"y  c #29352B",
"u  c #34342C",
"i  c #39332B",
"p  c #242B38",
"a  c #412817",
"s  c #442B1A",
"d  c #492E1B",
"f  c #4D321E",
"g  c #50341F",
"h  c #4E3426",
"j  c #443228",
"k  c #45392B",
"l  c #533621",
"z  c #563923",
"x  c #5A3C25",
"c  c #563B2C",
"v  c #334535",
"b  c #35463C",
"n  c #394B3C",
"m  c #5D432F",
"M  c #4C4439",
"N  c #62422C",
"B  c #684631",
"V  c #6B4B37",
"C  c #704C36",
"Z  c #6D533C",
"A  c #755039",
"S  c #79533D",
"D  c #1D2943",
"F  c #172A50",
"G  c #333543",
"H  c #393A49",
"J  c #363F59",
"K  c #3C4C42",
"L  c #3E5147",
"P  c #3F5248",
"I  c #334262",
"U  c #2A4470",
"Y  c #415441",
"T  c #425845",
"R  c #475E4A",
"E  c #424352",
"W  c #485F50",
"Q  c #6B584A",
"!  c #735840",
"~  c #725F4E",
"^  c #4B644E",
"/  c #4B6453",
"(  c #4E6951",
")  c #516B53",
"_  c #55715C",
"`  c #59775C",
"'  c #5E7D64",
"]  c #5E667D",
"[  c #7B6C6E",
"{  c #7D7279",
"}  c #825A41",
"|  c #8C634A",
" . c #93674D",
".. c #966A4E",
"X. c #966E54",
"o. c #9B6E52",
"O. c #946E58",
"+. c #967157",
"@. c #9C745A",
"#. c #A67659",
"$. c #907D67",
"%. c #628266",
"&. c #648569",
"*. c #67896A",
"=. c #698C6D",
"-. c #6B8F70",
";. c #6E9272",
":. c #709574",
">. c #98836B",
",. c #AB8267",
"<. c #B28A6C",
"1. c #A48D74",
"2. c #AE997E",
"3. c #B99B7E",
"4. c #264D8D",
"5. c #325286",
"6. c #265094",
"7. c #295FAD",
"8. c #2E61A9",
"9. c #2C64B4",
"0. c #3166B1",
"q. c #346AB5",
"w. c #4F6A9A",
"e. c #727488",
"r. c #607195",
"t. c #867D87",
"y. c #7A8DAF",
"u. c #878189",
"i. c #8E8E9D",
"p. c #AE9A80",
"a. c #B5A185",
"s. c #BDA385",
"d. c #BBA78B",
"f. c #878DA1",
"g. c #8E93A6",
"h. c #8396B5",
"j. c #C1AB8E",
/* pixels */
":.:.:.:.:.:.:.:.:.:.:.:.:.:.:.:.:.:.:.:.:.:.:.:.:.:.:.:.:.:.:.:.:.:.:.:.:.:.:.:.:.:.",
":.:.:.:.:.:.:.:.:.:.:.:.:.:.:.:.:.:.:.:.:.:.:.:.:.:.:.:.:.:.:.:.:.:.:.:.:.:.:.:.:.:.",
":.:.:.:.:.:.:.:.:.:.:.:.:.:.:.:.:.:.:.:.:.:.:.:.:.:.:.:.:.:.:.:.:.:.:.:.:.:.:.:.:.:.",
":.:.:.:.:.:.:.:.:.:.:.:.:.:.:.:.:.:.:.:.:.:.:.:.:.:.:.:.:.:.:.:.:.:.:.:.:.:.:.:.:.:.",
":.:.:.:.:.:.:.:.:.:.:.:.:.:.:.:.:.:.:.:.:.:.:.:.:.:.:.:.:.:.:.:.:.:.:.:.:.:.:.:.:.:.",
":.:.:.:.:.:.:.:.:.:.:.:.:.:.:.:.:.:.:.:.:.:.:.:.:.:.:.:.:.:.:.:.:.:.:.:.:.:.:.:.:.:.",
":.:.:.:.:.:.:.:.:.:.:.:.:.:.:.:.:.:.:.:.:.:.:.:.:.:.:.:.:.:.:.:.:.:.:.:.:.:.:.:.:.:.",
":.:.:.:.:.:.:.:.:.:.:.:.:.:.:.:.:.:.:.:.:.:.:.:.:.:.:.:.:.:.:.:.:.:.:.:.:.:.:.:.:.:.",
":.:.:.:.:.:.:.:.:.:.:.:.:.:.:.:.:.:.:.:.:.:.:.:.:.:.:.:.:.:.:.:.:.:.:.:.:.:.:.:.:.:.",
":.:.:.:.:.:.:.:.:.:.:.:.:.:.:.:.:.:.:.:.:.:.:.:.:.:.:.:.:.:.:.:.:.:.:.:.:.:.:.:.:.:.",
":.:.:.:.:.:.:.:.:.:.:.:.:.:.:.:.:.:.:.:.:.:.:.:.:.:.:.:.:.:.:.:.:.:.:.:.:.:.:.:.:.:.",
":.:.:.:.:.:.:.:.:.:.:.:.:.:.:.:.:.:.:.:.:.:.:.:.:.:.:.:.:.:.:.:.:.:.:.:.:.:.:.:.:.:.",
":.:.:.:.:.:.:.:.:.:.:.:.:.:.:.:.:.:.:.:.:.:.:.;.;.;.:.:.:.:.:.:.:.:.:.:.:.:.:.:.:.:.",
":.:.:.:.:.:.:.:.:.:.:.:.:.:.:.:.:.:.( v n *.^ v v v v ) :.:.:.:.:.:.:.:.:.:.:.:.:.:.",
":.:.:.:.:.:.:.:.:.:.:.:.:.:.:.*.( ^ r   = M q + $ $ . v :.:.:.:.:.:.:.:.:.:.:.:.:.:.",
":.:.:.:.:.:.:.:.:.:.:.:.:.:.=.) = # X & s $ 6 d f s + v :.:.:.:.:.:.:.:.:.:.:.:.:.:.",
":.:.:.:.:.:.:.:.:.:.:.:.;.;.^ ; s f 9 9 g s f x g $ . v -.;.;.:.:.:.:.:.:.:.:.:.:.:.",
":.:.:.:.:.:.:.:.:.:.:.:.;.T 5 9 g z g g g g g g g 7 , 3 n =.:.:.:.:.:.:.:.:.:.:.:.:.",
":.:.:.:.:.:.:.:.:.:.:.=.R 5 7 z g x g x g x x x x g g 6 4 M *.:.:.:.:.:.:.:.:.:.:.:.",
":.:.:.:.:.:.:.:.:.:.:.%.* 7 x z x x g g x x g g g x x f : # ` :.:.:.:.:.:.:.:.:.:.:.",
":.:.:.:.:.:.:.:.:.:.;.` = 7 g z x g d d g g x g d g z f , # %.;.:.:.:.:.:.:.:.:.:.:.",
":.:.:.:.:.:.:.:.:.:.) 4 , d g z | ..B s g x x g a a d 7 , # %.;.:.:.:.:.:.:.:.:.:.:.",
":.:.:.:.:.:.:.:.:.:.( O 6 s m } #.,. .C g g x g a 7 d d : # ) ;.:.:.:.:.:.:.:.:.:.:.",
":.:.:.:.:.:.:.:.:.:.( o 6 , h | ,.<.o.S N x g g x f g d : o %.:.:.:.:.:.:.:.:.:.:.:.",
":.:.:.:.:.:.:.:.:.:.( < : O O j 2.j.~ h X.N g A ..N g f , # ` :.:.:.:.:.:.:.:.:.:.:.",
":.:.:.:.:.:.:.:.:.:.-.) <   X s 2.j.~ M 1.m S o.o.N d 7 , & ` :.:.:.:.:.:.:.:.:.:.:.",
":.:.:.:.:.:.:.:.:.:.:.-.^ < w $.s.j.1.>.a.>.,.#.o.g d , 1 R *.:.:.:.:.:.:.:.:.:.:.:.",
":.:.:.:.:.:.:.:.:.:.:.:.-.y M 3.d.j.j.j.j.3.@.S A d , 2 n -.:.:.:.:.:.:.:.:.:.:.:.:.",
":.:.:.:.:.:.:.:.:.:.:.:.-.n k +.3.s.s.s.3.@.B s s 7 O v :.:.:.:.:.:.:.:.:.:.:.:.:.:.",
":.:.:.:.:.:.:.:.:.:.:.:.:.-.M 3 +.,.,.,.@.m g z g a O n :.:.:.:.:.:.:.:.:.:.:.:.:.:.",
":.:.:.:.:.:.:.:.:.:.:.:.:.:.T O c [ t.t.{ l f z z f @ v :.:.:.:.:.:.:.:.:.:.:.:.:.:.",
":.:.:.:.:.:.:.:.:.:.:.:.:.:.Y # V u.g.i.e.k d g z g $ n :.:.:.:.:.:.:.:.:.:.:.:.:.:.",
":.:.:.:.:.:.:.:.:.:.:.:.:.:.M < O.f.h.y.r.E e l ! Z - b :.:.:.:.:.:.:.:.:.:.:.:.:.:.",
":.:.:.:.:.:.:.:.:.:.:.:.:.:.^ 5 | w.q.q.0.7.J Q a.p.i v :.:.:.:.:.:.:.:.:.:.:.:.:.:.",
":.:.:.:.:.:.:.:.:.:.:.:.;.;.*.( t 4.9.9.9.9.4.] d.a.i v :.:.:.:.:.:.:.:.:.:.:.:.:.:.",
":.:.:.:.:.:.:.:.:.:.:.:.;.%.T q 3 G 5.8.6.I D p M M u ^ :.:.:.:.:.:.:.:.:.:.:.:.:.:.",
":.:.:.:.:.:.:.:.:.:.:.;.%.^ t . 6 7 H U F > . o * 0 b / %.;.:.:.:.:.:.:.:.:.:.:.:.:.",
":.:.:.:.:.:.:.:.:.:.:.=.R L y & 9 w 9 8 % % o < K K L P / -.:.:.:.:.:.:.:.:.:.:.:.:.",
":.:.:.:.:.:.:.:.:.:.:.=.W L K K K n K K K G K K L L L P / -.;.:.:.:.:.:.:.:.:.:.:.:.",
":.:.:.:.:.:.:.:.:.:.:.-.%./ L L L L L L L L P P L P L / &.;.:.:.:.:.:.:.:.:.:.:.:.:.",
":.:.:.:.:.:.:.:.:.:.:.:.;.' ' ) ' _ _ _ _ _ _ _ _ ' _ &.:.:.:.:.:.:.:.:.:.:.:.:.:.:.",
":.:.:.:.:.:.:.:.:.:.:.:.:.:.;.;.;.;.-.;.:.:.:.:.-.:.;.:.:.:.:.:.:.:.:.:.:.:.:.:.:.:."
};
