/* XPM */
static char *_2e9038f40654f4c8348ff6ba85c8d06[] = {
/* columns rows colors chars-per-pixel */
"42 42 162 2 ",
"   c #050503",
".  c #0D0705",
"X  c #070907",
"o  c #0D0906",
"O  c #110B06",
"+  c #150E08",
"@  c #1A0F09",
"#  c #12100C",
"$  c #1D140C",
"%  c #080B12",
"&  c #060D1B",
"*  c #0B0F1A",
"=  c #0A121A",
"-  c #131510",
";  c #141A16",
":  c #1C1B13",
">  c #171F18",
",  c #24160D",
"<  c #271A0F",
"1  c #2A1A0F",
"2  c #241B13",
"3  c #2D1D11",
"4  c #211D18",
"5  c #331F13",
"6  c #1D241D",
"7  c #232017",
"8  c #292217",
"9  c #26251C",
"0  c #29261C",
"q  c #352114",
"w  c #3B2416",
"e  c #3A2619",
"r  c #312C1E",
"t  c #3E281B",
"y  c #151721",
"u  c #141F27",
"i  c #222C25",
"p  c #232E28",
"a  c #253126",
"s  c #273328",
"d  c #2A3528",
"f  c #2B392C",
"g  c #3F3527",
"h  c #303C2E",
"j  c #342E36",
"k  c #2E3D36",
"l  c #313F34",
"z  c #34303E",
"x  c #402717",
"c  c #412817",
"v  c #442B1A",
"b  c #482E1C",
"n  c #4C311D",
"m  c #50341F",
"M  c #402E25",
"N  c #453024",
"B  c #4F3520",
"V  c #48382C",
"C  c #523620",
"Z  c #563923",
"A  c #5A3C26",
"S  c #523A2D",
"D  c #5C3D29",
"F  c #443B31",
"G  c #344334",
"H  c #384635",
"J  c #3A4D3C",
"K  c #3D513F",
"L  c #5E412A",
"P  c #444434",
"I  c #534236",
"U  c #62422C",
"Y  c #644730",
"T  c #6C4B35",
"R  c #684F3A",
"E  c #734F38",
"W  c #6C533F",
"Q  c #73533D",
"!  c #10264F",
"~  c #16305E",
"^  c #3E3D49",
"/  c #253857",
"(  c #2D3B57",
")  c #2A385B",
"_  c #313C56",
"`  c #1D3A73",
"'  c #1A3C7C",
"]  c #233D75",
"[  c #3D4F45",
"{  c #3E5147",
"}  c #3F5348",
"|  c #364665",
" . c #425643",
".. c #435845",
"X. c #405549",
"o. c #465D4A",
"O. c #485D48",
"+. c #675445",
"@. c #685647",
"#. c #7A5740",
"$. c #4B644E",
"%. c #4D6655",
"&. c #526D56",
"*. c #536D5A",
"=. c #547057",
"-. c #57735C",
";. c #58745E",
":. c #5B795E",
">. c #766352",
",. c #4E586C",
"<. c #5A7760",
"1. c #5D7C60",
"2. c #607F65",
"3. c #736E79",
"4. c #797074",
"5. c #845D45",
"6. c #886247",
"7. c #8C6349",
"8. c #94694D",
"9. c #886751",
"0. c #9B6E52",
"q. c #9D785D",
"w. c #A07155",
"e. c #A77759",
"r. c #AA795C",
"t. c #9B7663",
"y. c #9E7B6C",
"u. c #618166",
"i. c #648668",
"p. c #66896B",
"a. c #6A8D6E",
"s. c #6C8F70",
"d. c #6E9372",
"f. c #709574",
"g. c #A88063",
"h. c #AE8B6E",
"j. c #B08B6E",
"k. c #AD8C70",
"l. c #A89176",
"z. c #AD967C",
"x. c #B79476",
"c. c #B79578",
"v. c #1D4286",
"b. c #1D438A",
"n. c #245192",
"m. c #23529D",
"M. c #285CA8",
"N. c #4E6DA0",
"B. c #4A73AD",
"V. c #597EB5",
"C. c #7C8EA8",
"Z. c #85838C",
"A. c #818396",
"S. c #818C9D",
"D. c #AF9B81",
"F. c #B29D83",
"G. c #A09C9E",
"H. c #BCA689",
"J. c #BFA98C",
"K. c #BDAA90",
"L. c #9A9FAF",
"P. c #C1AC8F",
/* pixels */
"f.f.f.f.f.f.f.f.f.f.f.f.f.f.f.f.f.f.f.f.f.f.f.f.f.f.f.f.f.f.f.f.f.f.f.f.f.f.f.f.f.f.",
"f.f.f.f.f.f.f.f.f.f.f.f.f.f.f.f.f.f.f.f.f.f.f.f.f.f.f.f.f.f.f.f.f.f.f.f.f.f.f.f.f.f.",
"f.f.f.f.f.f.f.f.f.f.f.f.f.f.f.f.f.f.f.f.f.f.f.f.f.f.f.f.f.f.f.f.f.f.f.f.f.f.f.f.f.f.",
"f.f.f.f.f.f.f.f.f.f.f.f.f.f.f.f.f.f.f.f.f.f.f.f.f.f.f.f.f.f.f.f.f.f.f.f.f.f.f.f.f.f.",
"f.f.f.f.f.f.f.f.f.f.f.f.f.f.f.f.f.f.f.f.f.f.f.f.f.f.f.f.f.f.f.f.f.f.f.f.f.f.f.f.f.f.",
"f.f.f.f.f.f.f.f.f.f.f.f.f.f.f.f.f.f.f.f.f.f.f.f.f.f.f.f.f.f.f.f.f.f.f.f.f.f.f.f.f.f.",
"f.f.f.f.f.f.f.f.f.f.f.f.f.f.f.f.f.f.f.f.f.f.f.f.f.f.f.f.f.f.f.f.f.f.f.f.f.f.f.f.f.f.",
"f.f.f.f.f.f.f.f.f.f.f.f.f.f.f.f.f.f.f.f.f.f.f.f.f.f.f.f.f.f.f.f.f.f.f.f.f.f.f.f.f.f.",
"f.f.f.f.f.f.f.f.f.f.f.f.f.f.f.f.f.f.f.f.f.f.f.f.f.f.f.f.f.f.f.f.f.f.f.f.f.f.f.f.f.f.",
"f.f.f.f.f.f.f.f.f.f.f.f.f.f.f.f.f.f.f.f.f.f.f.f.f.f.f.f.f.f.f.f.f.f.f.f.f.f.f.f.f.f.",
"f.f.f.f.f.f.f.f.f.f.f.f.f.f.f.f.f.f.f.f.f.f.f.f.f.f.f.f.f.f.f.f.f.f.f.f.f.f.f.f.f.f.",
"f.f.f.f.f.f.f.f.f.f.f.f.f.f.d.a.a.a.a.d.d.d.a.d.f.f.f.f.f.f.f.f.f.f.f.f.f.f.f.f.f.f.",
"f.f.f.f.f.f.f.f.f.f.f.f.f.f.=.s a a a J u.G a o.f.f.f.f.f.f.f.f.f.f.f.f.f.f.f.f.f.f.",
"f.f.f.f.f.f.f.f.f.f.f.f.f.f.o.o , 2 , 9 H 8 o 6 K ..i.f.f.f.f.f.f.f.f.f.f.f.f.f.f.f.",
"f.f.f.f.f.f.f.f.f.f.f.f.f.f.o.o e C n q $ n < O + : O.i.f.f.f.f.f.f.f.f.f.f.f.f.f.f.",
"f.f.f.f.f.f.f.f.f.f.f.f.f.p. .o + v Z n c C v v B n :  .p.d.f.f.f.f.f.f.f.f.f.f.f.f.",
"f.f.f.f.f.f.f.f.f.f.f.f.d.J 4 q v C Z Z C Z C Z Z Z n 8 J d.f.f.f.f.f.f.f.f.f.f.f.f.",
"f.f.f.f.f.f.f.f.f.f.f.a.J 8 q n Z Z Z Z Z Z Z Z Z Z Z v r J p.f.f.f.f.f.f.f.f.f.f.f.",
"f.f.f.f.f.f.f.f.f.f.f.i.> , b Z Z m C Z Z Z C n m Z Z Z q ; u.f.f.f.f.f.f.f.f.f.f.f.",
"f.f.f.f.f.f.f.f.f.f.f.i.> , v C C v n Z Z Z b b A U Z Z e : &.a.f.f.f.f.f.f.f.f.f.f.",
"f.f.f.f.f.f.f.f.f.f.f.i.> , c c c x n Z Z Z n T w.0.D C n 5 : -.f.f.f.f.f.f.f.f.f.f.",
"f.f.f.f.f.f.f.f.f.f.f.i.> , v n c x n Z Z n Q 0.r.r.8.U c q # &.f.f.f.f.f.f.f.f.f.f.",
"f.f.f.f.f.f.f.f.f.f.f.i.> , b Z C T U n A E T 9.c.k.Q e 1 5 # &.f.f.f.f.f.f.f.f.f.f.",
"f.f.f.f.f.f.f.f.f.f.f.i.> , v m A 8.5.D L q.S @.P.D.M . O 3 d 1.f.f.f.f.f.f.f.f.f.f.",
"f.f.f.f.f.f.f.f.f.f.f.p.a 2 q v Z 8.r.7.R l.+.>.P.F.I # X i u.d.f.f.f.f.f.f.f.f.f.f.",
"f.f.f.f.f.f.f.f.f.f.f.d.u.h $ w b 7.e.g.z.H.F.F.P.J.z.F a u.d.f.f.f.f.f.f.f.f.f.f.f.",
"f.f.f.f.f.f.f.f.f.f.f.f.f.:.H $ w A U #.j.H.P.P.P.J.x.V f d.f.f.f.f.f.f.f.f.f.f.f.f.",
"f.f.f.f.f.f.f.f.f.f.f.f.f.f.:.l 2 q v D 6.h.c.c.c.k.W P $.d.f.f.f.f.f.f.f.f.f.f.f.f.",
"f.f.f.f.f.f.f.f.f.f.f.f.f.f.f.1.- 3 n Z U 7.t.y.t.5.$ ..f.f.f.f.f.f.f.f.f.f.f.f.f.f.",
"f.f.f.f.f.f.f.f.f.f.f.f.f.f.f.1.- 3 n A Y T 4.A.3.N o ..f.f.f.f.f.f.f.f.f.f.f.f.f.f.",
"f.f.f.f.f.f.f.f.f.f.f.f.f.f.f.1.- 3 n Q l.z.G.L.Z.M o ..f.f.f.f.f.f.f.f.f.f.f.f.f.f.",
"f.f.f.f.f.f.f.f.f.f.f.f.f.f.f.1.; / ^ W H.K.C.V.N.) % ..f.f.f.f.f.f.f.f.f.f.f.f.f.f.",
"f.f.f.f.f.f.f.f.f.f.f.f.f.f.1.J 4 ( | ,.S.S.B.M.m.' & ..f.f.f.f.f.f.f.f.f.f.f.f.f.f.",
"f.f.f.f.f.f.f.f.f.f.f.f.f.f.o.o q x _ n.n.n.M.m.b.' & ..f.f.f.f.f.f.f.f.f.f.f.f.f.f.",
"f.f.f.f.f.f.f.f.f.f.f.f.f.f.o.o 5 q 4 = = = ~ v.v.` * { a.d.f.f.f.f.f.f.f.f.f.f.f.f.",
"f.f.f.f.f.f.f.f.f.f.f.f.f.f.o.  . o 6 k k k u ! ] j q 7 J d.f.f.f.f.f.f.f.f.f.f.f.f.",
"f.f.f.f.f.f.f.f.f.f.f.f.f.2...p p p k { { [ > y z t x @ i ;.d.f.f.f.f.f.f.f.f.f.f.f.",
"f.f.f.f.f.f.f.f.f.f.f.f.f.*.{ { { { { { { [ p 0 g g g 9 p o.a.f.f.f.f.f.f.f.f.f.f.f.",
"f.f.f.f.f.f.f.f.f.f.f.f.f.;.X.{ { { { { { { [ [ [ [ [ [ { %.s.f.f.f.f.f.f.f.f.f.f.f.",
"f.f.f.f.f.f.f.f.f.f.f.f.f.s.<.........} ................%.a.d.f.f.f.f.f.f.f.f.f.f.f.",
"f.f.f.f.f.f.f.f.f.f.f.f.f.f.a.u.u.u.u.u.u.u.u.u.u.u.u.u.p.d.f.f.f.f.f.f.f.f.f.f.f.f.",
"f.f.f.f.f.f.f.f.f.f.f.f.f.f.f.f.f.f.f.f.f.f.f.f.f.f.f.f.f.f.f.f.f.f.f.f.f.f.f.f.f.f."
};
