/* XPM */
static char *result[] = {
/* columns rows colors chars-per-pixel */
"42 42 132 2 ",
"   c #040302",
".  c #0D0704",
"X  c #070807",
"o  c #0D0906",
"O  c #0B0C0A",
"+  c #120B07",
"@  c #110E09",
"#  c #0D110D",
"$  c #12140F",
"%  c #1B120C",
"&  c #080D13",
"*  c #0B1116",z
"=  c #0B131B",
"-  c #121612",
";  c #191710",
":  c #141A14",
">  c #1B1D15",
",  c #191C1E",
"<  c #22160D",
"1  c #27180E",
"2  c #28180E",
"3  c #2C1D12",
"4  c #321F12",
"5  c #1A221A",
"6  c #1E281F",
"7  c #24251B",
"8  c #28261B",
"9  c #22281E",
"0  c #28281D",
"q  c #352114",
"w  c #392415",
"e  c #3E2A19",
"r  c #2B2221",
"t  c #332721",
"y  c #3B2F27",
"u  c #243126",
"i  c #2D3327",
"p  c #313224",
"a  c #363028",
"s  c #2E3D35",
"d  c #412817",
"f  c #442B1A",
"g  c #492E1B",
"h  c #4C321E",
"j  c #50341F",
"k  c #4D392C",
"l  c #533621",
"z  c #563923",
"x  c #593B25",
"c  c #5C3E29",
"v  c #324037",
"b  c #384739",
"n  c #3B453A",
"m  c #374939",
"M  c #5D422E",
"N  c #424B3A",
"B  c #534134",
"V  c #5D4131",
"C  c #5D4739",
"Z  c #5D4A3C",
"A  c #64442F",
"S  c #664532",
"D  c #674C34",
"F  c #724E38",
"G  c #7A543D",
"H  c #1E325D",
"J  c #183872",
"K  c #243D71",
"L  c #3A4C42",
"P  c #3E5147",
"I  c #3F5248",
"U  c #1C417E",
"Y  c #23447C",
"T  c #425844",
"R  c #415549",
"E  c #455C4D",
"W  c #635243",
"Q  c #685141",
"!  c #615748",
"~  c #4C644D",
"^  c #4D6655",
"/  c #4E6851",
"(  c #526E56",
")  c #56725B",
"_  c #58765D",
"`  c #5B795E",
"'  c #736452",
"]  c #5A7760",
"[  c #5E7D62",
"{  c #7A6E64",
"}  c #835B42",
"|  c #91674C",
" . c #95694D",
".. c #9B6F54",
"X. c #887058",
"o. c #9E765A",
"O. c #A2795C",
"+. c #AA795C",
"@. c #8D7A65",
"#. c #83706E",
"$. c #8E7C7E",
"%. c #618164",
"&. c #64856A",
"*. c #67896B",
"=. c #6A8D6E",
"-. c #6E9272",
";. c #709574",
":. c #A58166",
">. c #AE8365",
",. c #A3876C",
"<. c #B08467",
"1. c #B19B7F",
"2. c #224E99",
"3. c #275CA9",
"4. c #3C67A4",
"5. c #2C65B5",
"6. c #3C6DB4",
"7. c #6B7289",
"8. c #717384",
"9. c #4D72A7",
"0. c #4772AE",
"q. c #768195",
"w. c #81869D",
"e. c #A29485",
"r. c #B49E82",
"t. c #BA9E81",
"y. c #BCA386",
"u. c #BEA68A",
"i. c #BEA98D",
"p. c #AEA393",
"a. c #8F9CB4",
"s. c #C1AB8E",
/* pixels */
";.;.;.;.;.;.;.;.;.;.;.;.;.;.;.;.;.;.;.;.;.;.;.;.;.;.;.;.;.;.;.;.;.;.;.;.;.;.;.;.;.;.",
";.;.;.;.;.;.;.;.;.;.;.;.;.;.;.;.;.;.;.;.;.;.;.;.;.;.;.;.;.;.;.;.;.;.;.;.;.;.;.;.;.;.",
";.;.;.;.;.;.;.;.;.;.;.;.;.;.;.;.;.;.;.;.;.;.;.;.;.;.;.;.;.;.;.;.;.;.;.;.;.;.;.;.;.;.",
";.;.;.;.;.;.;.;.;.;.;.;.;.;.;.;.;.;.;.;.;.;.;.;.;.;.;.;.;.;.;.;.;.;.;.;.;.;.;.;.;.;.",
";.;.;.;.;.;.;.;.;.;.;.;.;.;.;.;.;.;.;.;.;.;.;.;.;.;.;.;.;.;.;.;.;.;.;.;.;.;.;.;.;.;.",
";.;.;.;.;.;.;.;.;.;.;.;.;.;.;.;.;.;.;.;.;.;.;.;.;.;.;.;.;.;.;.;.;.;.;.;.;.;.;.;.;.;.",
";.;.;.;.;.;.;.;.;.;.;.;.;.;.;.;.;.;.;.;.;.;.;.;.;.;.;.;.;.;.;.;.;.;.;.;.;.;.;.;.;.;.",
";.;.;.;.;.;.;.;.;.;.;.;.;.;.;.;.;.;.;.;.;.;.;.;.;.;.;.;.;.;.;.;.;.;.;.;.;.;.;.;.;.;.",
";.;.;.;.;.;.;.;.;.;.;.;.;.;.;.;.;.;.;.;.;.;.;.;.;.;.;.;.;.;.;.;.;.;.;.;.;.;.;.;.;.;.",
";.;.;.;.;.;.;.;.;.;.;.;.;.;.;.;.;.;.;.;.;.;.;.;.;.;.;.;.;.;.;.;.;.;.;.;.;.;.;.;.;.;.",
";.;.;.;.;.;.;.;.;.;.;.;.;.;.;.;.;.;.;.;.;.;.;.;.;.;.;.;.;.;.;.;.;.;.;.;.;.;.;.;.;.;.",
";.;.;.;.;.;.;.;.;.;.;.;.;.;.;.;.;.;.;.;.;.;.;.;.;.;.;.;.;.;.;.;.;.;.;.;.;.;.;.;.;.;.",
";.;.;.;.;.;.;.;.;.;.;.;.;.;.;.;.;.;.;.;.;.;.;.;.;.;.;.;.;.;.;.;.;.;.;.;.;.;.;.;.;.;.",
";.;.;.;.;.;.;.;.;.;.;.;.;.;.` T T T T / *.~ T ( -.;.;.;.;.;.;.;.;.;.;.;.;.;.;.;.;.;.",
";.;.;.;.;.;.;.;.;.;.;.;.;.;.T   o + . 9 ~ 5   u _ ` =.;.;.;.;.;.;.;.;.;.;.;.;.;.;.;.",
";.;.;.;.;.;.;.;.;.;.;.;.;.;.T o e h d q ; f < O $ > / =.;.;.;.;.;.;.;.;.;.;.;.;.;.;.",
";.;.;.;.;.;.;.;.;.;.;.;.;.;.T   % g z g w j d q d e 0 ~ -.;.;.;.;.;.;.;.;.;.;.;.;.;.",
";.;.;.;.;.;.;.;.;.;.;.;.-.~ i < 2 h z j j x j j x j w p T =.;.;.;.;.;.;.;.;.;.;.;.;.",
";.;.;.;.;.;.;.;.;.;.;.-.( 0 1 h z z z z j x A j x z z e 8 / =.;.;.;.;.;.;.;.;.;.;.;.",
";.;.;.;.;.;.;.;.;.;.;.%.5 2 h j z z z z x j j j j x x j e ; %.;.;.;.;.;.;.;.;.;.;.;.",
";.;.;.;.;.;.;.;.;.;.;.%.: 2 g j z h h x j x h d h j x j e $ _ -.;.;.;.;.;.;.;.;.;.;.",
";.;.;.;.;.;.;.;.;.;.;.%.- 2 g g g e h x M j g x } } A h h 3 i ( ;.;.;.;.;.;.;.;.;.;.",
";.;.;.;.;.;.;.;.;.;.;.%.: 1 g g d e g x j j A } +.+.G M g w o m ;.;.;.;.;.;.;.;.;.;.",
";.;.;.;.;.;.;.;.;.;.-.%.: 1 g j g h j j j x G ..>.>...A w q o ~ ;.;.;.;.;.;.;.;.;.;.",
";.;.;.;.;.;.;.;.;.;.;.%.: 2 h j c } F h c | V Q 1.1.C % + 4 @ T ;.;.;.;.;.;.;.;.;.;.",
";.;.;.;.;.;.;.;.;.;.;.%.: 2 d h c  ...G c ,.Z Z s.u.B +   ; N %.;.;.;.;.;.;.;.;.;.;.",
";.;.;.;.;.;.;.;.;.;.;.*.m 0 4 d l | +.o.X.r.@.@.s.u.X.y # m *.;.;.;.;.;.;.;.;.;.;.;.",
";.;.;.;.;.;.;.;.;.;.;.;.;.m 7 4 f G | o.t.i.s.s.s.s.y.! 6 *.;.;.;.;.;.;.;.;.;.;.;.;.",
";.;.;.;.;.;.;.;.;.;.;.;.-.=.T % q f g S O.t.u.u.s.1.:.M u *.;.;.;.;.;.;.;.;.;.;.;.;.",
";.;.;.;.;.;.;.;.;.;.;.;.;.;.*.~ ; 4 g x F O.<.<.<.:.k b %.-.;.;.;.;.;.;.;.;.;.;.;.;.",
";.;.;.;.;.;.;.;.;.;.;.;.;.;.;.` $ q j x V #.$.,.#.M m _ ;.;.;.;.;.;.;.;.;.;.;.;.;.;.",
";.;.;.;.;.;.;.;.;.;.;.;.;.;.;.` $ d x x C 7.q.w.8., / ;.;.;.;.;.;.;.;.;.;.;.;.;.;.;.",
";.;.;.;.;.;.;.;.;.;.;.;.;.;.;.%.9 e x D W 7.q.a.q., ^ ;.;.;.;.;.;.;.;.;.;.;.;.;.;.;.",
";.;.;.;.;.;.;.;.;.;.;.;.;.;.;.=.` 9 W r.e.9.6.6.4.= / ;.;.;.;.;.;.;.;.;.;.;.;.;.;.;.",
";.;.;.;.;.;.;.;.;.;.;.;.;.;.;.;.*.6 ! s.p.0.5.3.U = / ;.;.;.;.;.;.;.;.;.;.;.;.;.;.;.",
";.;.;.;.;.;.;.;.;.;.;.;.;.-.*.` ( 5 a ' { 4.3.2.J * I ] [ -.;.;.;.;.;.;.;.;.;.;.;.;.",
";.;.;.;.;.;.;.;.;.;.;.;.-.=.) P L *   o r Y Y K H & s P E %.-.;.;.;.;.;.;.;.;.;.;.;.",
";.;.;.;.;.;.;.;.;.;.;.;.-.) I P L ,   X O * r y t # s P I E =.;.;.;.;.;.;.;.;.;.;.;.",
";.;.;.;.;.;.;.;.;.;.;.;.-.( I P L v s s s s b n n v L P I I *.-.;.;.;.;.;.;.;.;.;.;.",
";.;.;.;.;.;.;.;.;.;.;.-.-.%.^ I I I I I P R P P I I P P E ] -.-.;.;.;.;.;.;.;.;.;.;.",
";.;.;.;.;.;.;.;.;.;.;.;.;.;.&.^ ^ ^ ^ ^ ^ ^ ^ ^ ^ ^ ^ ^ ] -.;.;.;.;.;.;.;.;.;.;.;.;.",
";.;.;.;.;.;.;.-.;.;.;.;.;.;.-.-.=.-.-.-.-.-.=.-.-.-.-.-.-.-.;.;.;.;.;.;.;.;.;.;.;.;."
};
