/* XPM */
static char *result[] = {
/* columns rows colors chars-per-pixel */
"42 42 146 2 ",
"   c #0B0604",
".  c #0C0906",
"X  c #090B09",
"o  c #140C07",
"O  c #110E0A",
"+  c #180E08",
"@  c #15100B",
"#  c #1C140D",
"$  c #070E1A",
"%  c #0F1410",
"&  c #0B111A",
"*  c #191613",
"=  c #151A14",
"-  c #13171A",
";  c #161D18",
":  c #1E1B1A",
">  c #22160C",
",  c #25180E",
"<  c #2A1A0F",
"1  c #261F15",
"2  c #2C1E13",
"3  c #311E12",
"4  c #1B231C",
"5  c #282217",
"6  c #26231B",
"7  c #342114",
"8  c #3B2516",
"9  c #37281C",
"0  c #3B2A1C",
"q  c #0C1828",
"w  c #1E2722",
"e  c #192936",
"r  c #242125",
"t  c #242C22",
"y  c #3D2B23",
"u  c #2B3125",
"i  c #29352A",
"p  c #2C3B2E",
"a  c #383128",
"s  c #323C2E",
"d  c #2F3F31",
"f  c #412817",
"g  c #442B19",
"h  c #492E1B",
"j  c #4D321E",
"k  c #50341F",
"l  c #4F3320",
"z  c #523621",
"x  c #563923",
"c  c #5A3B27",
"v  c #5D3D29",
"b  c #493B37",
"n  c #513F38",
"m  c #334435",
"M  c #384636",
"N  c #35443B",
"B  c #374A39",
"V  c #384938",
"C  c #3F513E",
"Z  c #414435",
"A  c #574639",
"S  c #63432C",
"D  c #69472F",
"F  c #624434",
"G  c #674932",
"H  c #6A4D3A",
"J  c #6C533D",
"K  c #77513A",
"L  c #7B553D",
"P  c #0F2348",
"I  c #132D5E",
"U  c #233052",
"Y  c #323D5C",
"T  c #17356B",
"R  c #193A77",
"E  c #213F7A",
"W  c #394B42",
"Q  c #3E5147",
"!  c #2E466E",
"~  c #2E4778",
"^  c #344A70",
"/  c #405449",
"(  c #455D49",
")  c #485F50",
"_  c #735743",
"`  c #4B634D",
"'  c #4C6554",
"]  c #4F6954",
"[  c #516C54",
"{  c #567359",
"}  c #59755B",
"|  c #5B795E",
" . c #7C6957",
".. c #535E7A",
"X. c #605D68",
"o. c #5D7C62",
"O. c #7E7169",
"+. c #845D45",
"@. c #87634A",
"#. c #936A4F",
"$. c #846E55",
"%. c #996C51",
"&. c #8F7059",
"*. c #9A735B",
"=. c #A37457",
"-. c #AA795C",
";. c #967963",
":. c #618164",
">. c #648669",
",. c #67896B",
"<. c #6A8D6E",
"1. c #6B8E70",
"2. c #6E9272",
"3. c #709574",
"4. c #91867B",
"5. c #A9866B",
"6. c #AB896D",
"7. c #B28F72",
"8. c #A7937A",
"9. c #A9947A",
"0. c #AC987E",
"q. c #B79476",
"w. c #B9987B",
"e. c #1D438A",
"r. c #294987",
"t. c #20468A",
"y. c #35528B",
"u. c #275598",
"i. c #2E5DA2",
"p. c #2C60AB",
"a. c #2C65B5",
"s. c #4D6B9C",
"d. c #66718A",
"f. c #777A8E",
"g. c #797888",
"h. c #5B7EB2",
"j. c #607BA8",
"k. c #5F82B5",
"l. c #958A8C",
"z. c #818295",
"x. c #A79B8E",
"c. c #B29C81",
"v. c #BEA88B",
"b. c #9398AA",
"n. c #9B9FAF",
"m. c #C1AC8F",
/* pixels */
"3.3.3.3.3.3.3.3.3.3.3.3.3.3.3.3.3.3.3.3.3.3.3.3.3.3.3.3.3.3.3.3.3.3.3.3.3.3.3.3.3.3.",
"3.3.3.3.3.3.3.3.3.3.3.3.3.3.3.3.3.3.3.3.3.3.3.3.3.3.3.3.3.3.3.3.3.3.3.3.3.3.3.3.3.3.",
"3.3.3.3.3.3.3.3.3.3.3.3.3.3.3.3.3.3.3.3.3.3.3.3.3.3.3.3.3.3.3.3.3.3.3.3.3.3.3.3.3.3.",
"3.3.3.3.3.3.3.3.3.3.3.3.3.3.3.3.3.3.3.3.3.3.3.3.3.3.3.3.3.3.3.3.3.3.3.3.3.3.3.3.3.3.",
"3.3.3.3.3.3.3.3.3.3.3.3.3.3.3.3.3.3.3.3.3.3.3.3.3.3.3.3.3.3.3.3.3.3.3.3.3.3.3.3.3.3.",
"3.3.3.3.3.3.3.3.3.3.3.3.3.3.3.3.3.3.3.3.3.3.3.3.3.3.3.3.3.3.3.3.3.3.3.3.3.3.3.3.3.3.",
"3.3.3.3.3.3.3.3.3.3.3.3.3.3.3.3.3.3.3.3.3.3.3.3.3.3.3.3.3.3.3.3.3.3.3.3.3.3.3.3.3.3.",
"3.3.3.3.3.3.3.3.3.3.3.3.3.3.3.3.3.3.3.3.3.3.3.3.3.3.3.3.3.3.3.3.3.3.3.3.3.3.3.3.3.3.",
"3.3.3.3.3.3.3.3.3.3.3.3.3.3.3.2.3.3.3.3.3.2.2.2.3.3.3.3.3.3.3.3.3.3.3.3.3.3.3.3.3.3.",
"3.3.3.3.3.3.3.3.3.3.3.3.3.3.,.:.:.:.:.,.2.:.:.>.3.3.3.3.3.3.3.3.3.3.3.3.3.3.3.3.3.3.",
"3.3.3.3.3.3.3.3.3.3.3.3.3.2.B = = = = C } 4 = ` 2.2.2.3.3.3.3.3.3.3.3.3.3.3.3.3.3.3.",
"3.3.3.3.3.3.3.3.3.3.3.3.3.2.p @ 8 7 2 6 u 7   4 i m ,.3.3.3.3.3.3.3.3.3.3.3.3.3.3.3.",
"3.3.3.3.3.3.3.3.3.3.3.3.3.2.p + 8 k j 7 < j , # > 5 C >.3.3.3.3.3.3.3.3.3.3.3.3.3.3.",
"3.3.3.3.3.3.3.3.3.3.3.3.2.o.u . # j x j j k j j k j 4 Z >.3.3.3.3.3.3.3.3.3.3.3.3.3.",
"3.3.3.3.3.3.3.3.3.3.3.2.o.6 5 g k x x x x x x x S k k 5 V ,.2.3.3.3.3.3.3.3.3.3.3.3.",
"3.3.3.3.3.3.3.3.3.3.3.} t 5 g k x x x x x x x x x k k g 9 m ,.3.3.3.3.3.3.3.3.3.3.3.",
"3.3.3.3.3.3.3.3.3.3.2.[ @ 7 j x x j x x S k j j j k x x 7 4 :.3.3.3.3.3.3.3.3.3.3.3.",
"3.3.3.3.3.3.3.3.3.3.3.[ O 3 j k j 0 k x x x g k D D x k 8 4 ` ,.3.3.3.3.3.3.3.3.3.3.",
"3.3.3.3.3.3.3.3.3.3.3.] O 7 g g f 0 k x x k k L =.#.S k j 3 = } 3.3.3.3.3.3.3.3.3.3.",
"3.3.3.3.3.3.3.3.3.3.3.] O 7 j j f g k x k j @.=.-.-.#.S 8 3 @ { 3.3.3.3.3.3.3.3.3.3.",
"3.3.3.3.3.3.3.3.3.3.3.[ O 7 j k x K S j S K G &.w.6.G 3 < 3 @ { 3.3.3.3.3.3.3.3.3.3.",
"3.3.3.3.3.3.3.3.3.3.3.[ O 3 g k D %.L x G *.a  .v.8.9   o 1 p :.3.3.3.3.3.3.3.3.3.3.",
"3.3.3.3.3.3.3.3.3.3.3.{ 6 3 8 h S =.-.+._ 9.A $.m.c.b o X i >.2.3.3.3.3.3.3.3.3.3.3.",
"3.3.3.3.3.3.3.3.3.3.3.<.} 4 < 8 k %.=.5.w.v.0.v.v.v.8.a p >.2.3.3.3.3.3.3.3.3.3.3.3.",
"3.3.3.3.3.3.3.3.3.3.3.3.2.[ u > g v v @.q.m.m.m.v.v.6.y m 2.3.3.3.3.3.3.3.3.3.3.3.3.",
"3.3.3.3.3.3.3.3.3.3.3.3.3.2.p + 8 h j S #.7.q.w.w.6.H Z ' 2.3.3.3.3.3.3.3.3.3.3.3.3.",
"3.3.3.3.3.3.3.3.3.3.3.3.3.3.p # h z c z G ;.-.-.&.J # ` 3.3.3.3.3.3.3.3.3.3.3.3.3.3.",
"3.3.3.3.3.3.3.3.3.3.3.3.3.2.p > z x c c F g.k.z.X.: X ` 3.3.3.3.3.3.3.3.3.3.3.3.3.3.",
"3.3.3.3.3.3.3.3.3.3.3.3.3.2.p # x x x l n f.b.n.l._ * ` 3.3.3.3.3.3.3.3.3.3.3.3.3.3.",
"3.3.3.3.3.3.3.3.3.3.3.3.3.3.[ s 0 $.;.J b s.h.k.j...- ` 3.3.3.3.3.3.3.3.3.3.3.3.3.3.",
"3.3.3.3.3.3.3.3.3.3.3.3.3.3.3.` 6 0.v.O.Y p.a.a.i.! : M | 3.3.3.3.3.3.3.3.3.3.3.3.3.",
"3.3.3.3.3.3.3.3.3.3.3.3.3.3.2.( : 4.x.d.t.u.u.u.^ 0 8 @ m 3.3.3.3.3.3.3.3.3.3.3.3.3.",
"3.3.3.3.3.3.3.3.3.3.3.3.3.3.3.` & ~ y.r.T q $ r y 8 8 + N 2.2.3.3.3.3.3.3.3.3.3.3.3.",
"3.3.3.3.3.3.3.3.3.3.3.3.3.3.2.( $ R e.I e W %   o o + N o.3.3.3.3.3.3.3.3.3.3.3.3.3.",
"3.3.3.3.3.3.3.3.3.3.3.3.3.3.[ p 1 U E P ; ' i w w w w ( >.3.3.3.3.3.3.3.3.3.3.3.3.3.",
"3.3.3.3.3.3.3.3.3.3.3.3.2.>.i o 8 y U P 4 W Q Q W Q Q Q ' ,.3.3.3.3.3.3.3.3.3.3.3.3.",
"3.3.3.3.3.3.3.3.3.3.3.3.<.` 4 # g 0 * r W Q Q Q Q Q Q Q / ' 1.3.3.3.3.3.3.3.3.3.3.3.",
"3.3.3.3.3.3.3.3.3.3.3.3.<.` N N W W d W Q Q Q Q Q Q Q Q Q ' 1.3.3.3.3.3.3.3.3.3.3.3.",
"3.3.3.3.3.3.3.3.3.3.3.3.1.o.` Q Q Q Q Q Q Q Q Q Q Q / Q ) o.2.3.3.3.3.3.3.3.3.3.3.3.",
"3.3.3.3.3.3.3.3.3.3.3.3.2.2.o.' ] ' ' ' ' ' ' ' ' ' ' ' o.3.3.3.3.3.3.3.3.3.3.3.3.3.",
"3.3.3.3.3.3.3.3.3.3.3.3.3.3.2.2.2.2.2.2.2.2.2.2.2.2.2.2.2.3.3.3.3.3.3.3.3.3.3.3.3.3.",
"3.3.3.3.3.3.3.3.3.3.3.3.3.3.3.3.3.3.2.3.3.2.3.3.3.3.2.3.3.3.3.3.3.3.3.3.3.3.3.3.3.3."
};
