/* XPM */
static char *result[] = {
/* columns rows colors chars-per-pixel */
"42 42 149 2 ",
"   c #050302",
".  c #0B0704",
"X  c #0C0905",
"o  c #0C0D0B",
"O  c #110A06",
"+  c #140D09",
"@  c #14150F",
"#  c #1A110A",
"$  c #151611",
"%  c #141A15",
"&  c #1F1B14",
"*  c #151C1A",
"=  c #23160E",
"-  c #26190F",
";  c #28180E",
":  c #2E1D11",
">  c #311E12",
",  c #1C251D",
"<  c #252117",
"1  c #22241B",
"2  c #2D271D",
"3  c #28291E",
"4  c #332115",
"5  c #3C2616",
"6  c #352419",
"7  c #3E2618",
"8  c #302C1F",
"9  c #3F2A1A",
"0  c #0F1623",
"q  c #1B1B20",
"w  c #0D1F3D",
"e  c #192426",
"r  c #1F212A",
"t  c #1E263F",
"y  c #242F29",
"u  c #3A2D23",
"i  c #3D2F2C",
"p  c #2A3528",
"a  c #29362A",
"s  c #352F39",
"d  c #2F3E36",
"f  c #343D34",
"g  c #412817",
"h  c #442B1A",
"j  c #492E1C",
"k  c #4C311E",
"l  c #50341F",
"z  c #4F3520",
"x  c #523621",
"c  c #563A23",
"v  c #5A3C26",
"b  c #553B2B",
"n  c #5C3E2A",
"m  c #473A36",
"M  c #4D3B33",
"N  c #324334",
"B  c #3C4436",
"V  c #35453D",
"C  c #3E4438",
"Z  c #384B3A",
"A  c #3E513F",
"S  c #5D402B",
"D  c #4C4638",
"F  c #554234",
"G  c #5D4B3E",
"H  c #65442E",
"J  c #634D3F",
"K  c #714D36",
"L  c #75513A",
"P  c #7A543C",
"I  c #13284D",
"U  c #132D53",
"Y  c #313E60",
"T  c #3B4E44",
"R  c #3E5147",
"E  c #344465",
"W  c #304A75",
"Q  c #344D7D",
"!  c #415542",
"~  c #435945",
"^  c #41564A",
"/  c #485D48",
"(  c #614E42",
")  c #4B634D",
"_  c #496151",
"`  c #516C55",
"'  c #55715B",
"]  c #59775C",
"[  c #7B644E",
"{  c #7F6851",
"}  c #525362",
"|  c #776563",
" . c #607F64",
".. c #706A70",
"X. c #825A41",
"o. c #8C6248",
"O. c #91664B",
"+. c #966A4E",
"@. c #8E6B5B",
"#. c #946C52",
"$. c #9C7057",
"%. c #9B755B",
"&. c #A27356",
"*. c #A3775E",
"=. c #A57A5E",
"-. c #AB7A5C",
";. c #83787F",
":. c #AB7F62",
">. c #608164",
",. c #658769",
"<. c #67896B",
"1. c #6A8D6E",
"2. c #6B8F70",
"3. c #6E9272",
"4. c #709574",
"5. c #96836C",
"6. c #9B8770",
"7. c #9C8871",
"8. c #AC8166",
"9. c #AF8669",
"0. c #A68C71",
"q. c #A79379",
"w. c #AA987E",
"e. c #B99B7D",
"r. c #1E4686",
"t. c #214483",
"y. c #315184",
"u. c #23509B",
"i. c #305895",
"p. c #2D5CA3",
"a. c #285DAB",
"s. c #2D60A9",
"d. c #2C64B3",
"f. c #3266B2",
"g. c #356AB5",
"h. c #666E85",
"j. c #65779B",
"k. c #787C90",
"l. c #877D86",
"z. c #7E90B1",
"x. c #BB9F82",
"c. c #B7A286",
"v. c #BDA386",
"b. c #BCA589",
"n. c #BEA98C",
"m. c #898FA3",
"M. c #8D93A6",
"N. c #8496B5",
"B. c #C1AC8E",
/* pixels */
"4.4.4.4.4.4.4.4.4.4.4.4.4.4.4.4.4.4.4.4.4.4.4.4.4.4.4.4.4.4.4.4.4.4.4.4.4.4.4.4.4.4.",
"4.4.4.4.4.4.4.4.4.4.4.4.4.4.4.4.4.4.4.4.4.4.4.4.4.4.4.4.4.4.4.4.4.4.4.4.4.4.4.4.4.4.",
"4.4.4.4.4.4.4.4.4.4.4.4.4.4.4.4.4.4.4.4.4.4.4.4.4.4.4.4.4.4.4.4.4.4.4.4.4.4.4.4.4.4.",
"4.4.4.4.4.4.4.4.4.4.4.4.4.4.4.4.4.4.4.4.4.4.4.4.4.4.4.4.4.4.4.4.4.4.4.4.4.4.4.4.4.4.",
"4.4.4.4.4.4.4.4.4.4.4.4.4.4.4.4.4.4.4.4.4.4.4.4.4.4.4.4.4.4.4.4.4.4.4.4.4.4.4.4.4.4.",
"4.4.4.4.4.4.4.4.4.4.4.4.4.4.4.4.4.4.4.4.4.4.4.4.4.4.4.4.4.4.4.4.4.4.4.4.4.4.4.4.4.4.",
"4.4.4.4.4.4.4.4.4.4.4.4.4.4.4.4.4.4.4.4.4.4.4.4.4.4.4.4.4.4.4.4.4.4.4.4.4.4.4.4.4.4.",
"4.4.4.4.4.4.4.4.4.4.4.4.4.4.4.4.4.4.4.4.4.4.4.4.4.4.4.4.4.4.4.4.4.4.4.4.4.4.4.4.4.4.",
"4.4.4.4.4.4.4.4.4.4.4.4.4.4.4.4.4.4.4.4.4.4.4.4.4.4.4.4.4.4.4.4.4.4.4.4.4.4.4.4.4.4.",
"4.4.4.4.4.4.4.4.4.4.4.4.4.4.4.4.4.4.4.4.4.4.4.4.4.4.4.4.4.4.4.4.4.4.4.4.4.4.4.4.4.4.",
"4.4.4.4.4.4.4.4.4.4.4.4.4.4.4.4.4.4.4.4.4.4.4.4.4.4.4.4.4.4.4.4.4.4.4.4.4.4.4.4.4.4.",
"4.4.4.4.4.4.4.4.4.4.4.4.4.4.' N N N N R ,.A N ) 3.4.4.4.4.4.4.4.4.4.4.4.4.4.4.4.4.4.",
"4.4.4.4.4.4.4.4.4.4.4.4.4.4.!   # # # 1 D , o , ) ) ,.3.4.4.4.4.4.4.4.4.4.4.4.4.4.4.",
"4.4.4.4.4.4.4.4.4.4.4.4.4.4.~ X 9 l k 4 # h - X O @ ) <.4.4.4.4.4.4.4.4.4.4.4.4.4.4.",
"4.4.4.4.4.4.4.4.4.4.4.4.4.3.!   + h x k 9 l h 9 k h < A 2.4.4.4.4.4.4.4.4.4.4.4.4.4.",
"4.4.4.4.4.4.4.4.4.4.4.4.3.! 3 : 5 l c x k c l l c c h 8 Z 1.4.4.4.4.4.4.4.4.4.4.4.4.",
"4.4.4.4.4.4.4.4.4.4.4.<./ 3 : k x c c c c c c c c c c h 8 A <.4.4.4.4.4.4.4.4.4.4.4.",
"4.4.4.4.4.4.4.4.4.4.4.>.% ; j v c x c c c c c l l c c c h @ ] 4.4.4.4.4.4.4.4.4.4.4.",
"4.4.4.4.4.4.4.4.4.4.4.>.% ; j l x j l c c c k h l S l l h @ ` 3.4.4.4.4.4.4.4.4.4.4.",
"4.4.4.4.4.4.4.4.4.4.4.>.% ; g j h 5 l c l S j S O.+.S l k 4 , ) 4.4.4.4.4.4.4.4.4.4.",
"4.4.4.4.4.4.4.4.4.4.4.>.% ; h k 9 9 k c c k H o.-.*.o.S j 5 . A 4.4.4.4.4.4.4.4.4.4.",
"4.4.4.4.4.4.4.4.4.4.4.>.% ; j l k c c l c S L #.9.9.#.S > 5 X A 4.4.4.4.4.4.4.4.4.4.",
"4.4.4.4.4.4.4.4.4.4.4.>.% ; k l v O.P l H +.S J b.c.F # O : $ ) 4.4.4.4.4.4.4.4.4.4.",
"4.4.4.4.4.4.4.4.4.4.4.>.% ; g h v +.&.X.S 0.J J n.c.F O   @ ) <.4.4.4.4.4.4.4.4.4.4.",
"4.4.4.4.4.4.4.4.4.4.4.2.) 3 ; g k O.-.=.*.x.7.6.n.n.5.D @ R 1.4.4.4.4.4.4.4.4.4.4.4.",
"4.4.4.4.4.4.4.4.4.4.4.4.3.a # 9 h K +.9.x.n.B.B.B.n.e.J , ,.4.4.4.4.4.4.4.4.4.4.4.4.",
"4.4.4.4.4.4.4.4.4.4.4.4.3.a # g h h K &.8.x.v.v.b.v.%.F a 1.4.4.4.4.4.4.4.4.4.4.4.4.",
"4.4.4.4.4.4.4.4.4.4.4.4.3.a # g l x b L %.:.:.:.=.$.u B ,.3.4.4.4.4.4.4.4.4.4.4.4.4.",
"4.4.4.4.4.4.4.4.4.4.4.4.3.a # 9 j l c J ;.l.l.| b 2 X N 4.3.4.4.4.4.4.4.4.4.4.4.4.4.",
"4.4.4.4.4.4.4.4.4.4.4.4.3.a u { [ n x ( k.m.M...j z S D ) 1.4.4.4.4.4.4.4.4.4.4.4.4.",
"4.4.4.4.4.4.4.4.4.4.4.3.3.a D n.x.J m } j.z.N.h.D $.8.S , ,.4.4.4.4.4.4.4.4.4.4.4.4.",
"4.4.4.4.4.4.4.4.4.4.4.3.2.d D w.q.G E p.f.g.g.p.y.@.#.F p <.4.4.4.4.4.4.4.4.4.4.4.4.",
"4.4.4.4.4.4.4.4.4.4.4.4.4.>.D 3 M Y t.u.s.d.d.d.i.M : C >.4.4.4.4.4.4.4.4.4.4.4.4.4.",
"4.4.4.4.4.4.4.4.4.4.4.4.4.4.~ o 6 s t w U r.a.d.a.W 0 V 4.4.4.4.4.4.4.4.4.4.4.4.4.4.",
"4.4.4.4.4.4.4.4.4.4.4.4.4.4.~ . = - & * e I r.a.s.Q r p ` 2.4.4.4.4.4.4.4.4.4.4.4.4.",
"4.4.4.4.4.4.4.4.4.4.4.4.3.1.R o o o y T T * I r.y.i 7 = e  .3.4.4.4.4.4.4.4.4.4.4.4.",
"4.4.4.4.4.4.4.4.4.4.4.4.4.' R V V V T R T V e q i 9 h = % ^ <.4.4.4.4.4.4.4.4.4.4.4.",
"4.4.4.4.4.4.4.4.4.4.4.4.4.` R R R R R R R R V d B C C f d ^ ,.4.4.4.4.4.4.4.4.4.4.4.",
"4.4.4.4.4.4.4.4.4.4.4.4.3.>._ R R R R R R R R R R R R R ^ ' 2.4.4.4.4.4.4.4.4.4.4.4.",
"4.4.4.4.4.4.4.4.4.4.4.4.4.4.>.) _ _ _ _ _ _ _ _ _ _ _ _ ' 3.3.4.4.4.4.4.4.4.4.4.4.4.",
"4.4.4.4.4.4.4.4.4.4.4.4.4.4.3.3.3.2.2.3.2.2.2.2.2.3.2.3.3.3.4.4.4.4.4.4.4.4.4.4.4.4.",
"4.4.4.4.4.4.4.4.4.4.4.4.4.4.4.3.4.4.3.4.4.3.4.4.3.4.3.4.4.4.4.4.4.4.4.4.4.4.4.4.4.4."
};
