/* XPM */
static char *result[] = {
/* columns rows colors chars-per-pixel */
"42 42 134 2 ",
"   c #060402",
".  c #080503",
"X  c #0D0906",
"o  c #0C0D0A",
"O  c #120B06",
"+  c #140D09",
"@  c #180F09",
"#  c #11130E",
"$  c #1B130B",
"%  c #0F1110",
"&  c #141510",
"*  c #161C17",
"=  c #1B1C15",
"-  c #2D1D12",
";  c #231B1B",
":  c #301D11",
">  c #19221C",
",  c #232218",
"<  c #28241B",
"1  c #22291F",
"2  c #29281D",
"3  c #352214",
"4  c #3A2516",
"5  c #3D2B1B",
"6  c #1D2621",
"7  c #2C2D23",
"8  c #362E26",
"9  c #3F2E20",
"0  c #243025",
"q  c #243029",
"w  c #29352B",
"e  c #34342C",
"r  c #39332B",
"t  c #242B38",
"y  c #402717",
"u  c #412817",
"i  c #442B1A",
"p  c #492E1B",
"a  c #4D321E",
"s  c #50341F",
"d  c #4E3426",
"f  c #443228",
"g  c #45392B",
"h  c #533621",
"j  c #563923",
"k  c #5A3C25",
"l  c #4D3D32",
"z  c #334535",
"x  c #35463C",
"c  c #394B3C",
"v  c #5D432F",
"b  c #4C4439",
"n  c #62422C",
"m  c #684631",
"M  c #6B4B37",
"N  c #704C36",
"B  c #6D533C",
"V  c #755039",
"C  c #79533D",
"Z  c #172A50",
"A  c #333543",
"S  c #393A49",
"D  c #363F59",
"F  c #3C4C42",
"G  c #3E5147",
"H  c #3F5248",
"J  c #334262",
"K  c #2A4470",
"L  c #415441",
"P  c #425845",
"I  c #475E4A",
"U  c #424352",
"Y  c #485F50",
"T  c #6B584A",
"R  c #735840",
"E  c #725F4E",
"W  c #4B644E",
"Q  c #4B6453",
"!  c #4E6951",
"~  c #516B53",
"^  c #55715C",
"/  c #59775C",
"(  c #5E7D64",
")  c #5E667D",
"_  c #7B6C6E",
"`  c #7D7279",
"'  c #825A41",
"]  c #8C634A",
"[  c #93674D",
"{  c #966A4E",
"}  c #966E54",
"|  c #9B6E52",
" . c #946E58",
".. c #967157",
"X. c #9C745A",
"o. c #A07255",
"O. c #A67659",
"+. c #A17B5F",
"@. c #AC7B5D",
"#. c #628266",
"$. c #648569",
"%. c #67896A",
"&. c #698C6D",
"*. c #6B8F70",
"=. c #6E9272",
"-. c #709574",
";. c #98836B",
":. c #AB8267",
">. c #B28A6C",
",. c #A48D74",
"<. c #AE997E",
"1. c #B79B7E",
"2. c #B99B7E",
"3. c #264D8D",
"4. c #325286",
"5. c #265094",
"6. c #295FAD",
"7. c #2C64B4",
"8. c #3166B1",
"9. c #346AB5",
"0. c #4F6A9A",
"q. c #727488",
"w. c #607195",
"e. c #7A8DAF",
"r. c #878189",
"t. c #8E8E9D",
"y. c #AE9A80",
"u. c #B5A185",
"i. c #BDA385",
"p. c #BBA78B",
"a. c #878DA1",
"s. c #8E93A6",
"d. c #8396B5",
"f. c #C1AB8E",
/* pixels */
"-.-.-.-.-.-.-.-.-.-.-.-.-.-.-.-.-.-.-.-.-.-.-.-.-.-.-.-.-.-.-.-.-.-.-.-.-.-.-.-.-.-.",
"-.-.-.-.-.-.-.-.-.-.-.-.-.-.-.-.-.-.-.-.-.-.-.-.-.-.-.-.-.-.-.-.-.-.-.-.-.-.-.-.-.-.",
"-.-.-.-.-.-.-.-.-.-.-.-.-.-.-.-.-.-.-.-.-.-.-.-.-.-.-.-.-.-.-.-.-.-.-.-.-.-.-.-.-.-.",
"-.-.-.-.-.-.-.-.-.-.-.-.-.-.-.-.-.-.-.-.-.-.-.-.-.-.-.-.-.-.-.-.-.-.-.-.-.-.-.-.-.-.",
"-.-.-.-.-.-.-.-.-.-.-.-.-.-.-.-.-.-.-.-.-.-.-.-.-.-.-.-.-.-.-.-.-.-.-.-.-.-.-.-.-.-.",
"-.-.-.-.-.-.-.-.-.-.-.-.-.-.-.-.-.-.-.-.-.-.-.-.-.-.-.-.-.-.-.-.-.-.-.-.-.-.-.-.-.-.",
"-.-.-.-.-.-.-.-.-.-.-.-.-.-.-.-.-.-.-.-.-.-.-.-.-.-.-.-.-.-.-.-.-.-.-.-.-.-.-.-.-.-.",
"-.-.-.-.-.-.-.-.-.-.-.-.-.-.-.-.-.-.-.-.-.-.-.-.-.-.-.-.-.-.-.-.-.-.-.-.-.-.-.-.-.-.",
"-.-.-.-.-.-.-.-.-.-.-.-.-.-.-.-.-.-.-.-.-.-.-.-.-.-.-.-.-.-.-.-.-.-.-.-.-.-.-.-.-.-.",
"-.-.-.-.-.-.-.-.-.-.-.-.-.-.-.-.-.-.-.-.-.-.-.-.-.-.-.-.-.-.-.-.-.-.-.-.-.-.-.-.-.-.",
"-.-.-.-.-.-.-.-.-.-.-.-.-.-.-.-.-.-.-.-.-.-.-.-.-.-.-.-.-.-.-.-.-.-.-.-.-.-.-.-.-.-.",
"-.-.-.-.-.-.-.-.-.-.-.-.-.-.-.-.-.-.-.-.-.-.-.-.-.-.-.-.-.-.-.-.-.-.-.-.-.-.-.-.-.-.",
"-.-.-.-.-.-.-.-.-.-.-.-.-.-.=.-.-.*.-.-.-.-.-.-.-.-.-.-.-.-.-.-.-.-.-.-.-.-.-.-.-.-.",
"-.-.-.-.-.-.-.-.-.-.-.-.-.-.! z z z z W %.c z ! -.-.-.-.-.-.-.-.-.-.-.-.-.-.-.-.-.-.",
"-.-.-.-.-.-.-.-.-.-.-.-.-.-.z . $ $ O 0 b > . 0 W ! &.-.-.-.-.-.-.-.-.-.-.-.-.-.-.-.",
"-.-.-.-.-.-.-.-.-.-.-.-.-.-.x + i s i - $ p $ X O = ! &.-.-.-.-.-.-.-.-.-.-.-.-.-.-.",
"-.-.-.-.-.-.-.-.-.-.-.-.=.*.z   $ a j p u s u i a i , W &.-.-.-.-.-.-.-.-.-.-.-.-.-.",
"-.-.-.-.-.-.-.-.-.-.-.-.&.c < : 4 s j s s s s s v s i 7 c -.-.-.-.-.-.-.-.-.-.-.-.-.",
"-.-.-.-.-.-.-.-.-.-.-.%.b > 3 a j j j j k k k s s j j 4 7 P &.-.-.-.-.-.-.-.-.-.-.-.",
"-.-.-.-.-.-.-.-.-.-.-./ & 3 a j j s j k s k s s s k j j 4 = #.-.-.-.-.-.-.-.-.-.-.-.",
"-.-.-.-.-.-.-.-.-.-.-./ # : p j s p s s k s p p s k j s 4 = #.&.-.-.-.-.-.-.-.-.-.-.",
"-.-.-.-.-.-.-.-.-.-.-./ # : u i i i s j k k p m { [ s s p - 1 ~ -.-.-.-.-.-.-.-.-.-.",
"-.-.-.-.-.-.-.-.-.-.-./ # : i a 4 4 a k s s N { :.O.' v i 3 o ! -.-.-.-.-.-.-.-.-.-.",
"-.-.-.-.-.-.-.-.-.-.-./ # : a s s v s s k n V | >.:.] s 3 3 o W -.-.-.-.-.-.-.-.-.-.",
"-.-.-.-.-.-.-.-.-.-.-./ # : p s n { N s n } d E f.<.g X + 3 = ! -.-.-.-.-.-.-.-.-.-.",
"-.-.-.-.-.-.-.-.-.-.-./ & : u a n | o.C v ,.l E f.<.9 X   = ~ &.-.-.-.-.-.-.-.-.-.-.",
"-.-.-.-.-.-.-.-.-.-.-.&.I < - u s | @.+.;.u.;.,.f.2.;.5 > W &.-.-.-.-.-.-.-.-.-.-.-.",
"-.-.-.-.-.-.-.-.-.-.-.-.&.c 2 : p V ' ..2.f.f.f.f.f.2.b w =.-.-.-.-.-.-.-.-.-.-.-.-.",
"-.-.-.-.-.-.-.-.-.-.-.-.-.-.z O 4 i i n X.2.i.i.2.1...z c =.-.-.-.-.-.-.-.-.-.-.-.-.",
"-.-.-.-.-.-.-.-.-.-.-.-.-.-.z @ u s j s v X.:.:.:...4 b %.=.-.-.-.-.-.-.-.-.-.-.-.-.",
"-.-.-.-.-.-.-.-.-.-.-.-.-.-.z $ p j j s g ` r.r._ v + H -.-.-.-.-.-.-.-.-.-.-.-.-.-.",
"-.-.-.-.-.-.-.-.-.-.-.-.-.-.z @ h j a p g q.a.s.r.M @ H -.-.-.-.-.-.-.-.-.-.-.-.-.-.",
"-.-.-.-.-.-.-.-.-.-.-.-.-.-.z > B R d f U w.e.d.t. .= L -.-.-.-.-.-.-.-.-.-.-.-.-.-.",
"-.-.-.-.-.-.-.-.-.-.-.-.-.-.z 8 y.u.T D 6.8.9.9.0.] ; I -.-.-.-.-.-.-.-.-.-.-.-.-.-.",
"-.-.-.-.-.-.-.-.-.-.-.-.-.-.c r u.p.) 3.7.7.7.7.3.7 ! %.=.-.-.-.-.-.-.-.-.-.-.-.-.-.",
"-.-.-.-.-.-.-.-.-.-.-.-.-.-.W e b b t Z J 5.6.4.A - w P ( -.-.-.-.-.-.-.-.-.-.-.-.-.",
"-.-.-.-.-.-.-.-.-.-.-.-.=.#.! z * * o X ; Z K S y 4 X q Y ( *.-.-.-.-.-.-.-.-.-.-.-.",
"-.-.-.-.-.-.-.-.-.-.-.-.*.W H F G F 6 o o % < 8 9 5 & w H Y *.-.-.-.-.-.-.-.-.-.-.-.",
"-.-.-.-.-.-.-.-.-.-.-.-.=.Q H H G G F x F x F F F F x F H Y *.-.-.-.-.-.-.-.-.-.-.-.",
"-.-.-.-.-.-.-.-.-.-.=.=.=.$.Q H G G G G G G G G G G G G Y ( =.-.-.-.-.-.-.-.-.-.-.-.",
"-.-.-.-.-.-.-.-.-.-.-.-.-.-.$.^ ( ^ ^ ^ ^ ^ ( ~ ^ ^ ^ ( #.=.-.-.-.-.-.-.-.-.-.-.-.-.",
"-.-.-.-.-.-.-.-.-.-.-.-.-.-.-.=.-.=.=.=.-.=.-.-.=.=.=.-.-.-.-.-.-.-.-.-.-.-.-.-.-.-."
};
