/* XPM */
static char *result[] = {
/* columns rows colors chars-per-pixel */
"42 42 114 2 ",
"   c #010306",
".  c #090604",
"X  c #0C0906",
"o  c #0C0C09",
"O  c #100B07",
"+  c #130E09",
"@  c #12120D",
"#  c #1D120B",
"$  c #050C19",
"%  c #0E1316",
"&  c #131611",
"*  c #151914",
"=  c #1B1A13",
"-  c #21150D",
";  c #23180F",
":  c #29190E",
">  c #211610",
",  c #261F17",
"<  c #2A1D12",
"1  c #321E12",
"2  c #1B241C",
"3  c #2F2017",
"4  c #252319",
"5  c #342114",
"6  c #3B2416",
"7  c #372519",
"8  c #3D2919",
"9  c #081322",
"0  c #232C23",
"q  c #282D22",
"w  c #242F29",
"e  c #283125",
"r  c #27332C",
"t  c #283429",
"y  c #2F382A",
"u  c #393428",
"i  c #303A2C",
"p  c #2F3D35",
"a  c #402717",
"s  c #452B19",
"d  c #492F1C",
"f  c #47301D",
"g  c #4C311E",
"h  c #51351F",
"j  c #422F22",
"k  c #4F3523",
"l  c #463B2D",
"z  c #523622",
"x  c #573A23",
"c  c #5A3B27",
"v  c #543B29",
"b  c #413A30",
"n  c #354737",
"m  c #324139",
"M  c #3A4E3D",
"N  c #5F442D",
"B  c #444334",
"V  c #494636",
"C  c #44483A",
"Z  c #62422D",
"A  c #644430",
"S  c #684631",
"D  c #6E4B32",
"F  c #724F35",
"G  c #76533C",
"H  c #7C563C",
"J  c #2D3B5B",
"K  c #353F5D",
"L  c #1D396C",
"P  c #443F47",
"I  c #3C4E44",
"U  c #3E5147",
"Y  c #3F5348",
"T  c #294269",
"R  c #314167",
"E  c #3C4C6E",
"W  c #354C73",
"Q  c #37507B",
"!  c #425542",
"~  c #435945",
"^  c #42574A",
"/  c #455B4C",
"(  c #464A5B",
")  c #7A5640",
"_  c #4C634E",
"`  c #4A6252",
"'  c #4F6952",
"]  c #516B53",
"[  c #526D59",
"{  c #547057",
"}  c #56725B",
"|  c #59755D",
" . c #5B795E",
".. c #786C59",
"X. c #607F63",
"o. c #815A42",
"O. c #8A6249",
"+. c #92674B",
"@. c #95694E",
"#. c #9F7054",
"$. c #A17256",
"%. c #618165",
"&. c #67896B",
"*. c #6A8D6E",
"=. c #6C8F70",
"-. c #6E9272",
";. c #709574",
":. c #A28D74",
">. c #255296",
",. c #355B94",
"<. c #325C9C",
"1. c #2759A0",
"2. c #2C65B5",
"3. c #B9A589",
/* pixels */
";.;.;.;.;.;.;.;.;.;.;.;.;.;.;.;.;.;.;.;.;.;.;.;.;.;.;.;.;.;.;.;.;.;.;.;.;.;.;.;.;.;.",
";.;.;.;.;.;.;.;.;.;.;.;.;.;.;.;.;.;.;.;.;.;.;.;.;.;.;.;.;.;.;.;.;.;.;.;.;.;.;.;.;.;.",
";.;.;.;.;.;.;.;.;.;.;.;.;.;.;.;.;.;.;.;.;.;.;.;.;.;.;.;.;.;.;.;.;.;.;.;.;.;.;.;.;.;.",
";.;.;.;.;.;.;.;.;.;.;.;.;.;.;.;.;.;.;.;.;.;.;.;.;.;.;.;.;.;.;.;.;.;.;.;.;.;.;.;.;.;.",
";.;.;.;.;.;.;.;.;.;.;.;.;.;.;.;.;.;.;.;.;.;.;.;.;.;.;.;.;.;.;.;.;.;.;.;.;.;.;.;.;.;.",
";.;.;.;.;.;.;.;.;.;.;.;.;.;.;.;.;.;.;.;.;.;.;.;.;.;.;.;.;.;.;.;.;.;.;.;.;.;.;.;.;.;.",
";.;.;.;.;.;.;.;.;.;.;.;.;.;.;.;.;.;.;.;.;.;.;.;.;.;.;.;.;.;.;.;.;.;.;.;.;.;.;.;.;.;.",
";.;.;.;.;.;.;.;.;.;.;.;.;.;.;.;.;.;.;.;.;.;.;.;.;.;.;.;.;.;.;.;.;.;.;.;.;.;.;.;.;.;.",
";.;.;.;.;.;.;.;.;.;.;.;.;.;.;.;.;.;.;.;.;.;.;.;.;.;.;.;.;.;.;.;.;.;.;.;.;.;.;.;.;.;.",
";.;.;.;.;.;.;.;.;.;.;.;.;.;.;.;.;.;.;.;.;.;.;.;.;.;.;.;.;.;.;.;.;.;.;.;.;.;.;.;.;.;.",
";.;.;.;.;.;.;.;.;.;.;.;.;.;.;.;.;.;.;.;.;.;.;.;.;.;.;.;.;.;.;.;.;.;.;.;.;.;.;.;.;.;.",
";.;.;.;.;.;.;.;.;.;.;.;.;.;.;.;.;.=.' ~ ' &._ ~ ~ ~ ~ %.;.;.;.;.;.;.;.;.;.;.;.;.;.;.",
";.;.;.;.;.;.;.;.;.;.;.;.;.;.;.&. .{ 2 . 4 ' 2 X + X o ' ;.;.;.;.;.;.;.;.;.;.;.;.;.;.",
";.;.;.;.;.;.;.;.;.;.;.;.;.-.=.~ & @ X : 8 = 5 s g 6 o ] ;.;.;.;.;.;.;.;.;.;.;.;.;.;.",
";.;.;.;.;.;.;.;.;.;.;.;.;.-.M 4 5 8 8 g g 5 g h 8 + o ] ;.;.;.;.;.;.;.;.;.;.;.;.;.;.",
";.;.;.;.;.;.;.;.;.;.;.;.;.-.t # g h x x h g x x f : > i { ;.;.;.;.;.;.;.;.;.;.;.;.;.",
";.;.;.;.;.;.;.;.;.;.;.;.=.{ q 3 x x x N x x x x x h d - y { -.;.;.;.;.;.;.;.;.;.;.;.",
";.;.;.;.;.;.;.;.;.;.;.;.%.2 : s x x h h x x x x x x h s : q &.;.;.;.;.;.;.;.;.;.;.;.",
";.;.;.;.;.;.;.;.;.;.;.;.%.& : s x x N h x x x x x x x d - 2 &.;.;.;.;.;.;.;.;.;.;.;.",
";.;.;.;.;.;.;.;.;.;.;.;.%.& : g x x x h c x x x x c x d - 2 &.;.;.;.;.;.;.;.;.;.;.;.",
";.;.;.;.;.;.;.;.;.;.;.;.%.* : s h x x x x x c x x h h s - 2 &.;.;.;.;.;.;.;.;.;.;.;.",
";.;.;.;.;.;.;.;.;.;.;.;.%.0 < 6 d h h h x x h h h h a a - 2 &.;.;.;.;.;.;.;.;.;.;.;.",
";.;.;.;.;.;.;.;.;.;.;.;.-.%.e # a s s d h h h d s s a 8 ; q &.;.;.;.;.;.;.;.;.;.;.;.",
";.;.;.;.;.;.;.;.;.;.;.;.-.=.t # a a a s h d h s a a 6 # y { -.;.;.;.;.;.;.;.;.;.;.;.",
";.;.;.;.;.;.;.;.;.;.;.;.;.=.t 3 S s a a a a a 8 a d A ; n ;.;.;.;.;.;.;.;.;.;.;.;.;.",
";.;.;.;.;.;.;.;.;.;.;.;.;.-.M l ) N c g a a a z x Z G u ~ ;.;.;.;.;.;.;.;.;.;.;.;.;.",
";.;.;.;.;.;.;.;.;.;.;.;.;.-.*.! , O.#.F g g g H $.o.4 _ *.;.;.;.;.;.;.;.;.;.;.;.;.;.",
";.;.;.;.;.;.;.;.;.;.;.;.;.;.;.! + Z #.$.@.@.@.$.+.x # ' ;.;.;.;.;.;.;.;.;.;.;.;.;.;.",
";.;.;.;.;.;.;.;.;.;.;.;.-.-._ 2 O k F H G H H H D f @ ' ;.;.;.;.;.;.;.;.;.;.;.;.;.;.",
";.;.;.;.;.;.;.;.;.;.;.;.=.' C b l x x x x x x x x s @ ' ;.;.;.;.;.;.;.;.;.;.;.;.;.;.",
";.;.;.;.;.;.;.;.;.;.;.;.%.2 ..3.:.N x x h x x h h f @ ' ;.;.;.;.;.;.;.;.;.;.;.;.;.;.",
";.;.;.;.;.;.;.;.;.;.;.-.X.2 ..3.:.v z v N x v N h 7 @ ' ;.;.;.;.;.;.;.;.;.;.;.;.;.;.",
";.;.;.;.;.;.;.;.;.;.;.;.=.] C l K E Q Q Q R R W Q T % ' ;.;.;.;.;.;.;.;.;.;.;.;.;.;.",
";.;.;.;.;.;.;.;.;.;.;.;.-.-._ 2 9 1.2.,.E R J R W R & ' ;.;.;.;.;.;.;.;.;.;.;.;.;.;.",
";.;.;.;.;.;.;.;.;.;.;.;.;.-.&.M 9 >.<.( h h 6 1 5 : * _ =.-.;.;.;.;.;.;.;.;.;.;.;.;.",
";.;.;.;.;.;.;.;.;.;.;.;.-.=.[ r $ L P v c h # . o & m Y } -.;.;.;.;.;.;.;.;.;.;.;.;.",
";.;.;.;.;.;.;.;.;.;.;.;.-.[ Y r   9 j c c j . 2 p m I U ^ [ =.-.;.;.;.;.;.;.;.;.;.;.",
";.;.;.;.;.;.;.;.;.;.;.;.&./ U m 0 w b V V B w I U U U U U ` -.;.;.;.;.;.;.;.;.;.;.;.",
";.;.;.;.;.;.;.;.;.;.;.;.*.[ Y Y U U U U I U Y Y U U U U / } -.;.;.;.;.;.;.;.;.;.;.;.",
";.;.;.;.;.;.;.;.;.;.;.-.-.-.{ / / / / / / / / / / / / / | -.-.;.;.;.;.;.;.;.;.;.;.;.",
";.;.;.;.;.;.;.;.;.;.;.;.;.-.-.&.&.&.&.&.&.&.&.&.&.&.&.*.-.;.;.;.;.;.;.;.;.;.;.;.;.;.",
";.;.;.;.;.;.;.;.;.;.;.;.;.;.;.-.;.;.;.;.;.;.;.;.;.;.;.;.-.;.;.;.;.;.;.;.;.;.;.;.;.;."
};
