/* XPM */
static char *result[] = {
/* columns rows colors chars-per-pixel */
"42 42 112 2 ",
"   c #070503",
".  c #0D0906",
"X  c #040609",
"o  c #0B0D0A",
"O  c #110B06",
"+  c #160E0A",
"@  c #180F09",
"#  c #12120D",
"$  c #1C120B",
"%  c #070B14",
"&  c #060D1A",
"*  c #0D151E",
"=  c #141914",
"-  c #1E1F17",
";  c #21150D",
":  c #24180E",
">  c #29180E",
",  c #2B1D12",
"<  c #1C241B",
"1  c #21271D",
"2  c #2A221B",
"3  c #28281D",
"4  c #322114",
"5  c #3D2516",
"6  c #33261B",
"7  c #3D2A19",
"8  c #2A2224",
"9  c #222D23",
"0  c #362D22",
"q  c #392C2C",
"w  c #2A3226",
"e  c #2B392D",
"r  c #323D2E",
"t  c #2A3834",
"y  c #353D31",
"u  c #402717",
"i  c #442B1A",
"p  c #492F1C",
"a  c #4B311D",
"s  c #4E3321",
"d  c #493528",
"f  c #4E382B",
"g  c #523620",
"h  c #573A23",
"j  c #583A27",
"k  c #523C2D",
"l  c #443530",
"z  c #4D3E3B",
"x  c #354636",
"c  c #34433B",
"v  c #3A4E3D",
"b  c #414737",
"n  c #4E423F",
"m  c #50403A",
"M  c #42513F",
"N  c #62442F",
"B  c #6D4B34",
"V  c #76523A",
"C  c #7B553B",
"Z  c #182745",
"A  c #182D58",
"S  c #143063",
"D  c #17356B",
"F  c #1B3C7A",
"G  c #233762",
"H  c #213F7B",
"J  c #433C41",
"K  c #3A4C42",
"L  c #3E5147",
"P  c #31436C",
"I  c #3A4870",
"U  c #4B4549",
"Y  c #425844",
"T  c #495B47",
"R  c #42564A",
"E  c #465D4E",
"W  c #4A5D48",
"Q  c #454450",
"!  c #7E5942",
"~  c #49614E",
"^  c #4C6552",
"/  c #4E6851",
"(  c #536E56",
")  c #536D5A",
"_  c #55725B",
"`  c #58765D",
"'  c #5B795F",
"]  c #597760",
"[  c #845C43",
"{  c #886045",
"}  c #896148",
"|  c #976B4E",
" . c #806152",
".. c #916952",
"X. c #9A6D51",
"o. c #9D7053",
"O. c #618164",
"+. c #648568",
"@. c #66886A",
"#. c #698C6E",
"$. c #6B8F70",
"%. c #6E9272",
"&. c #709574",
"*. c #1E4585",
"=. c #1D438A",
"-. c #2F518B",
";. c #335286",
":. c #3A5685",
">. c #37598F",
",. c #224E99",
"<. c #24539F",
"1. c #345C99",
/* pixels */
"&.&.&.&.&.&.&.&.&.&.&.&.&.&.&.&.&.&.&.&.&.&.&.&.&.&.&.&.&.&.&.&.&.&.&.&.&.&.&.&.&.&.",
"&.&.&.&.&.&.&.&.&.&.&.&.&.&.&.&.&.&.&.&.&.&.&.&.&.&.&.&.&.&.&.&.&.&.&.&.&.&.&.&.&.&.",
"&.&.&.&.&.&.&.&.&.&.&.&.&.&.&.&.&.&.&.&.&.&.&.&.&.&.&.&.&.&.&.&.&.&.&.&.&.&.&.&.&.&.",
"&.&.&.&.&.&.&.&.&.&.&.&.&.&.&.&.&.&.&.&.&.&.&.&.&.&.&.&.&.&.&.&.&.&.&.&.&.&.&.&.&.&.",
"&.&.&.&.&.&.&.&.&.&.&.&.&.&.&.&.&.&.&.&.&.&.&.&.&.&.&.&.&.&.&.&.&.&.&.&.&.&.&.&.&.&.",
"&.&.&.&.&.&.&.&.&.&.&.&.&.&.&.&.&.&.&.&.&.&.&.&.&.&.&.&.&.&.&.&.&.&.&.&.&.&.&.&.&.&.",
"&.&.&.&.&.&.&.&.&.&.&.&.&.&.&.&.&.&.&.&.&.&.&.&.&.&.&.&.&.&.&.&.&.&.&.&.&.&.&.&.&.&.",
"&.&.&.&.&.&.&.&.&.&.&.&.&.&.&.&.&.&.&.&.&.&.&.&.&.&.&.&.&.&.&.&.&.&.&.&.&.&.&.&.&.&.",
"&.&.&.&.&.&.&.&.&.&.&.&.&.&.&.&.&.&.&.&.&.&.&.&.&.&.&.&.&.&.&.&.&.&.&.&.&.&.&.&.&.&.",
"&.&.&.&.&.&.&.&.&.&.&.&.&.&.&.&.&.&.&.&.&.&.&.&.&.&.&.&.&.&.&.&.&.&.&.&.&.&.&.&.&.&.",
"&.&.&.&.&.&.&.&.&.&.&.&.&.&.&.&.&.&.&.&.&.&.&.&.&.&.&.&.&.&.&.&.&.&.&.&.&.&.&.&.&.&.",
"&.&.&.&.&.&.&.&.&.&.&.&.&.&.&.&.&.&.&.&.&.&.&.&.&.&.&.&.&.&.&.&.&.&.&.&.&.&.&.&.&.&.",
"&.&.&.&.&.&.&.&.&.&.&.&.&.&.&.&.&.%.O.( ` #.' ( ( ( ( +.&.&.&.&.&.&.&.&.&.&.&.&.&.&.",
"&.&.&.&.&.&.&.&.&.&.&.&.&.&.&.$.+.O.e o 1 ( w # # # o T &.&.&.&.&.&.&.&.&.&.&.&.&.&.",
"&.&.&.&.&.&.&.&.&.&.&.&.&.&.&._ < < . $ 7 < 4 7 p 7 . Y &.&.&.&.&.&.&.&.&.&.&.&.&.&.",
"&.&.&.&.&.&.&.&.&.&.&.&.&.&./ w ; 4 4 7 a , 7 a a :   Y &.&.&.&.&.&.&.&.&.&.&.&.&.&.",
"&.&.&.&.&.&.&.&.&.&.&.&.&.%.x + i h h h g a g h p ; @ x ( %.&.&.&.&.&.&.&.&.&.&.&.&.",
"&.&.&.&.&.&.&.&.&.&.&.&.$.O.x ; a h h h h h h h h g i ; w O.$.&.&.&.&.&.&.&.&.&.&.&.",
"&.&.&.&.&.&.&.&.&.&.&.&.@.w : 7 h h h h h h h h h h g i , 3 O.&.&.&.&.&.&.&.&.&.&.&.",
"&.&.&.&.&.&.&.&.&.&.&.&.@.< ; p h h h h h h h h h h h p : = O.&.&.&.&.&.&.&.&.&.&.&.",
"&.&.&.&.&.&.&.&.&.&.&.&.@.< ; i h h h h h h h h h h h p : = O.&.&.&.&.&.&.&.&.&.&.&.",
"&.&.&.&.&.&.&.&.&.&.&.&.@.< ; i a h h h h h h h h h g p > = O.&.&.&.&.&.&.&.&.&.&.&.",
"&.&.&.&.&.&.&.&.&.&.&.&.@.9 : 5 i g h h h h h h h g i u > = O.%.&.&.&.&.&.&.&.&.&.&.",
"&.&.&.&.&.&.&.&.&.&.&.&.%.' r $ 5 i i a h h h g i i u 5 > = O.&.&.&.&.&.&.&.&.&.&.&.",
"&.&.&.&.&.&.&.&.&.&.&.&.&.&.x + 5 u u i p a a i u u 5 > 3 Y #.&.&.&.&.&.&.&.&.&.&.&.",
"&.&.&.&.&.&.&.&.&.&.&.&.&.&.x $ h i u u u u u 5 u i N > w %.&.&.&.&.&.&.&.&.&.&.&.&.",
"&.&.&.&.&.&.&.&.&.&.&.&.&.&.L 0 ! h g p u u 5 a a h [ d x %.&.&.&.&.&.&.&.&.&.&.&.&.",
"&.&.&.&.&.&.&.&.&.&.&.&.&.&.+.W 6 [ X.V i u i B | { 6 M O.&.&.&.&.&.&.&.&.&.&.&.&.&.",
"&.&.&.&.&.&.&.&.&.&.&.&.&.&.&./ # N X.X.{ [ [ | o.B @ Y &.&.&.&.&.&.&.&.&.&.&.&.&.&.",
"&.&.&.&.&.&.&.&.&.&.&.&.&.&.&./ # p V } { { { { C a O Y &.&.&.&.&.&.&.&.&.&.&.&.&.&.",
"&.&.&.&.&.&.&.&.&.&.&.&.&.&.+.W 2 l z n m h h h N i . Y &.&.&.&.&.&.&.&.&.&.&.&.&.&.",
"&.&.&.&.&.&.&.&.&.&.&.&.&.&.v 0  .I -.1.:.m h m f 6 . Y &.&.&.&.&.&.&.&.&.&.&.&.&.&.",
"&.&.&.&.&.&.&.&.&.&.&.&.&.&.x 6 ..z J U Q P ;.>.;.G % Y &.&.&.&.&.&.&.&.&.&.&.&.&.&.",
"&.&.&.&.&.&.&.&.&.&.&.&.&.&._ b k s s j d Z *.<.,.F & Y &.&.&.&.&.&.&.&.&.&.&.&.&.&.",
"&.&.&.&.&.&.&.&.&.&.&.&.&.%.@.~ - 6 7 u 4 X S =.=.F & v @.&.&.&.&.&.&.&.&.&.&.&.&.&.",
"&.&.&.&.&.&.&.&.&.&.&.&.%.$._ Y c = + % o X A H F D * t ^ #.%.&.&.&.&.&.&.&.&.&.&.&.",
"&.&.&.&.&.&.&.&.&.&.&.&.%.) R K L y c c t . 8 q 8 * t K R ^ $.&.&.&.&.&.&.&.&.&.&.&.",
"&.&.&.&.&.&.&.&.&.&.&.&.$.^ L L L L L L K t y y r t K K L E $.&.&.&.&.&.&.&.&.&.&.&.",
"&.&.&.&.&.&.&.&.&.&.&.&.%.] E L R L K R R K L L R K R R R ) $.&.&.&.&.&.&.&.&.&.&.&.",
"&.&.&.&.&.&.&.&.&.&.&.&.&.%.] E E E E E E E E E E E E E _ &.&.&.&.&.&.&.&.&.&.&.&.&.",
"&.&.&.&.&.&.&.&.&.&.&.&.&.&.$.$.$.$.@.$.#.#.$.#.$.$.$.$.$.%.&.&.&.&.&.&.&.&.&.&.&.&.",
"&.&.&.&.&.&.&.&.&.&.&.&.&.&.&.&.&.%.&.&.&.%.&.&.%.%.%.&.&.&.&.&.&.&.&.&.&.&.&.&.&.&."
};
