/* XPM */
static char *result[] = {
/* columns rows colors chars-per-pixel */
"42 42 128 2 ",
"   c #05132A",
".  c #071B2E",
"X  c #121C26",
"o  c #011936",
"O  c #011738",
"+  c #01193A",
"@  c #19292D",
"#  c #162B36",
"$  c #213333",
"%  c #2A3D36",
"&  c #2E443D",
"*  c #011E46",
"=  c #0A2846",
"-  c #022349",
";  c #0D2E4D",
":  c #012653",
">  c #072A51",
",  c #032A5B",
"<  c #0A325D",
"1  c #103353",
"2  c #243D42",
"3  c #022D62",
"4  c #012F68",
"5  c #063065",
"6  c #0A3267",
"7  c #0E3865",
"8  c #05336C",
"9  c #113A64",
"0  c #013574",
"q  c #003679",
"w  c #01397C",
"e  c #113B71",
"r  c #2F4847",
"t  c #27434A",
"y  c #314740",
"u  c #354B44",
"i  c #394E42",
"p  c #334E49",
"a  c #3A4F4C",
"s  c #39534C",
"d  c #3E584D",
"f  c #204257",
"g  c #2B4750",
"h  c #3C5450",
"j  c #234961",
"k  c #2C566A",
"l  c #465F4B",
"z  c #465F5E",
"x  c #49634F",
"c  c #476151",
"v  c #4B6755",
"b  c #4F6C59",
"n  c #547057",
"m  c #54735C",
"M  c #59775C",
"N  c #5B795E",
"B  c #486260",
"V  c #547563",
"C  c #5D7C63",
"Z  c #476576",
"A  c #48667B",
"S  c #4A697D",
"D  c #638467",
"F  c #658769",
"G  c #67896B",
"H  c #6A8E6E",
"J  c #6C906F",
"K  c #6F9373",
"L  c #709574",
"P  c #003B83",
"I  c #083E84",
"U  c #073F88",
"Y  c #0B4087",
"T  c #05428C",
"R  c #0A458B",
"E  c #0B4D8C",
"W  c #184583",
"Q  c #154B82",
"!  c #044592",
"~  c #064E9F",
"^  c #154D94",
"/  c #044CA3",
"(  c #0650A8",
")  c #1159A9",
"_  c #0756B6",
"`  c #0757B8",
"'  c #0758BB",
"]  c #255DA3",
"[  c #3267AD",
"{  c #316CAC",
"}  c #396DB0",
"|  c #4E6F8C",
" . c #50718F",
".. c #4471A5",
"X. c #4E75A5",
"o. c #4575AF",
"O. c #4575B1",
"+. c #4876B1",
"@. c #4478BC",
"#. c #4F7FBC",
"$. c #085FC6",
"%. c #0962C6",
"&. c #0A66D3",
"*. c #0D6DD4",
"=. c #0F73DD",
"-. c #0D77EF",
";. c #0F78EC",
":. c #0E7AF5",
">. c #0E7BF8",
",. c #107FFD",
"<. c #457CC1",
"1. c #5C8BC2",
"2. c #5890D2",
"3. c #6393C7",
"4. c #6596CC",
"5. c #6998CC",
"6. c #619BD3",
"7. c #6E9FD1",
"8. c #629ADD",
"9. c #70A1D0",
"0. c #6BA4E2",
"q. c #74ADEE",
"w. c #78B1E1",
"e. c #7BB3EB",
"r. c #7EB7F5",
"t. c #7EB7F9",
"y. c #84BFF5",
"u. c #80B9F9",
/* pixels */
"L L L L L L L L L L L L L L L L L L L L L L L L L L L L L L L L L L L L L L L L L L ",
"L L L L L L L L L L L L L L L L L L L L L L L L L L L L L L L L L L L L L L L L L L ",
"L L L L L L L L L L L L L L L L L L L L L L L L L L L L L L L L L L L L L L L L L L ",
"L L L L L L L L L L L L L L L L L L L L L L L L L L L L L L L L L L L L L L L L L L ",
"L L L L L L L L L L L L L L L L L L L L L L L L L L L L L L L L L L L L L L L L L L ",
"L L L L L L L L L L L L L L L L L L L L L L L L L L L L L L L L L L L L L L L L L L ",
"L L L L L L L L L L L L L L L L L L L L L L L L L L L L L L L L L L L L L L L L L L ",
"L L L L L L L L L L L L L L L L L L K K H K L L L L L L L L L L L L L L L L L L L L ",
"L L L L L L L L L L L L L L L L L L K & p C L L L L L L L L L L L L L L L L L L L L ",
"L L L L L L L L L L L L L L L L L K M X X.a H K L L L L L L L L L L L L L L L L L L ",
"L L L L L L L L L L L L L L L L K J i   1. .N K L L L L L L L L L L L L L L L L L L ",
"L L L L L L L L L L L L L L L L L N = O 1.9.B H K L L L L L L L L L L L L L L L L L ",
"L L L L L L L L L L L L L L K K L y 3 O 1.w.Z C K K L L L L L L L L L L L L L L L L ",
"L L L L L L L L L L L L L L K K n ; w + +.{ 3.z K K L L L L L L L L L L L L L L L L ",
"L L L L L L L L L L L L L L K J y 8 w + O.R 6.A C K L L L L L L L L L L L L L L L L ",
"L L L L L L L L L L L L L L K m 1 ( w O O.I [ 7.u H K L L L L L L L L L L L L L L L ",
"L L L L L L L L L L L L K K H s T &.q O O.U ^ 0.| N K L L L L L L L L L L L L L L L ",
"L L L L L L L L L L L L K K C = ` -./ O +.T U 8.9.z G L L L L L L L L L L L L L L L ",
"L L L L L L L L L L L L K K p P $.:.` O +.U [ r.e.Z C L L L L L L L L L L L L L L L ",
"L L L L L L L L L L L L L m ; %.-.,.` O +.R <.t.u.5.B L L L L L L L L L L L L L L L ",
"L L L L L L L L L L L K H & 8 ~ -.>._ O o.^ 0.u.t.y.S C L L L L L L L L L L L L L L ",
"L L L L L L L L L L L K M 1 T T ' ` P O #.] } @.2.q.4.u L L L L L L L L L L L L L L ",
"L L L L L L L L L L L K M Q =.$.P w 0 0 <.e + * 6 W W r L L L L L L L L L L L L L L ",
"L L L L L L L L L L K K C Q *.~ / P P q <.5 O O : 3 > u L L L L L L L L L L L L L L ",
"L L L L L L L L L L L L K u R _ ! P P , O.5 + + + 4 # D L L L L L L L L L L L L L L ",
"L L L L L L L L L L L L L D = U P P / ! O.8 4 * o O l K K L L L L L L L L L L L L L ",
"L L L L L L L L L L L L L L d , P P %.~ O.8 q : O @ C L L L L L L L L L L L L L L L ",
"L L L L L L L L L L L L L L V - w ~ ,./ O.8 0 0 o % G L L L L L L L L L L L L L L L ",
"L L L L L L L L L L L L L K F t q &.,.~ O.8 0 0 . x H K L L L L L L L L L L L L L L ",
"L L L L L L L L L L L L L L J b 6 =.,.~ +.8 0 0 $ F L L L L L L L L L L L L L L L L ",
"L L L L L L L L L L L L L L J F j =.,.~ O.8 0 < l L L L L L L L L L L L L L L L L L ",
"L L L L L L L L L L L L L L L K l ) ,.~ o.0 0 2 H L L L L L L L L L L L L L L L L L ",
"L L L L L L L L L L L L L L L K G f ;.~ O.R > b J K L L L L L L L L L L L L L L L L ",
"L L L L L L L L L L L L L L L L K V E ~ o.Y t G K L L L L L L L L L L L L L L L L L ",
"L L L L L L L L L L L L L L L L K G k ! o.7 v J K L L L L L L L L L L L L L L L L L ",
"L L L L L L L L L L L L L L L L K K V 9 ..g D K L L L L L L L L L L L L L L L L L L ",
"L L L L L L L L L L L L L L L L L K K c h G K K L L L L L L L L L L L L L L L L L L ",
"L L L L L L L L L L L L L L L L L L K K K K K L L L L L L L L L L L L L L L L L L L ",
"L L L L L L L L L L L L L L L L L L L L K L L L L L L L L L L L L L L L L L L L L L ",
"L L L L L L L L L L L L L L L L L L L L L L L L L L L L L L L L L L L L L L L L L L ",
"L L L L L L L L L L L L L L L L L L L L L L L L L L L L L L L L L L L L L L L L L L ",
"L L L L L L L L L L L L L L L L L L L L L L L L L L L L L L L L L L L L L L L L L L "
};
