/* XPM */
static char *result[] = {
/* columns rows colors chars-per-pixel */
"42 42 132 2 ",
"   c #001735",
".  c #001836",
"X  c #081C30",
"o  c #021B3D",
"O  c #15252D",
"+  c #142A38",
"@  c #1F3233",
"#  c #293C37",
"$  c #2D423C",
"%  c #041E43",
"&  c #011F49",
"*  c #0F2C45",
"=  c #09264A",
"-  c #0E2A4A",
";  c #112D43",
":  c #14334C",
">  c #1D3A49",
",  c #022654",
"<  c #042A55",
"1  c #022B5D",
"2  c #022D63",
"3  c #002F68",
"4  c #093463",
"5  c #01326D",
"6  c #08376B",
"7  c #143567",
"8  c #003676",
"9  c #0C3C72",
"0  c #013779",
"q  c #02397C",
"w  c #2E4440",
"e  c #2B484E",
"r  c #334A44",
"t  c #384F44",
"y  c #334E4A",
"u  c #3F5446",
"i  c #3B554D",
"p  c #254450",
"a  c #345252",
"s  c #1A4264",
"d  c #164269",
"f  c #1D496D",
"g  c #375060",
"h  c #215276",
"j  c #415748",
"k  c #425B4C",
"l  c #425B53",
"z  c #496552",
"x  c #46665D",
"c  c #4C675A",
"v  c #4E6A5D",
"b  c #506C58",
"n  c #567359",
"m  c #58775D",
"M  c #5B795E",
"N  c #405C6C",
"B  c #476A64",
"V  c #5E7D62",
"C  c #476478",
"Z  c #628267",
"A  c #638469",
"S  c #678A6B",
"D  c #6A8E6E",
"F  c #6E9372",
"G  c #709574",
"H  c #023C82",
"J  c #064186",
"K  c #17528C",
"L  c #034595",
"P  c #084996",
"I  c #084F9E",
"U  c #134D95",
"Y  c #09519C",
"T  c #155392",
"R  c #214E95",
"E  c #235894",
"W  c #044DA4",
"Q  c #084EA1",
"!  c #0C5AA4",
"~  c #0651AD",
"^  c #0B53A8",
"/  c #0755B3",
"(  c #0956B3",
")  c #0C5AB7",
"_  c #0657B8",
"`  c #075ABD",
"'  c #145BB5",
"]  c #235EA6",
"[  c #1060BB",
"{  c #3B69AA",
"}  c #2A68B2",
"|  c #3F74B6",
" . c #3572BB",
".. c #3D77BD",
"X. c #4A6A82",
"o. c #4576B3",
"O. c #497BB8",
"+. c #075BC0",
"@. c #0965C7",
"#. c #0A65D3",
"$. c #0C6CD5",
"%. c #0A69DA",
"&. c #0D72DF",
"*. c #206CC4",
"=. c #2572CB",
"-. c #3D78C0",
";. c #0B6CE0",
":. c #0C72E4",
">. c #0D71E8",
",. c #0D76F2",
"<. c #107DF1",
"1. c #107FFD",
"2. c #467EC3",
"3. c #4A7FC0",
"4. c #5E87A9",
"5. c #5E88AC",
"6. c #628FB6",
"7. c #638FBC",
"8. c #1081FD",
"9. c #4C86C8",
"0. c #5286C1",
"q. c #5086CA",
"w. c #518FCC",
"e. c #5B96DD",
"r. c #6091CD",
"t. c #639AD3",
"y. c #6497DC",
"u. c #71A7E6",
"i. c #78B2E6",
"p. c #79B1EC",
"a. c #7EB6F3",
"s. c #81BBF5",
/* pixels */
"G G G G G G G G G G G G G G G G G G G G G G G G G G G G G G G G G G G G G G G G G G ",
"G G G G G G G G G G G G G G G G G G G G G G G G G G G G G G G G G G G G G G G G G G ",
"G G G G G G G G G G G G G G G G G G G G G G G G G G G G G G G G G G G G G G G G G G ",
"G G G G G G G G G G G G G G G G G G G G G G G G G G G G G G G G G G G G G G G G G G ",
"G G G G G G G G G G G G G G G G G G G G G G G G G G G G G G G G G G G G G G G G G G ",
"G G G G G G G G G G G G G G G G G G G G G G G G G G G G G G G G G G G G G G G G G G ",
"G G G G G G G G G G G G G G G G G G G G G G G G G G G G G G G G G G G G G G G G G G ",
"G G G G G G G G G G G G G G G G G G G F F G G G G G G G G G G G G G G G G G G G G G ",
"G G G G G G G G G G G G G G G G G G G D S F G G G G G G G G G G G G G G G G G G G G ",
"G G G G G G G G G G G G G G G G G G S j l Z F G G G G G G G G G G G G G G G G G G G ",
"G G G G G G G G G G G G G G G G G G M O E k F F G G G G G G G G G G G G G G G G G G ",
"G G G G G G G G G G G G G G G G G D t   *.X.V F G G G G G G G G G G G G G G G G G G ",
"G G G G G G G G G G G G G G G G G V ; o =.6.v D F G G G G G G G G G G G G G G G G G ",
"G G G G G G G G G G G G G G G G D r 2 o =.p.C Z G G G G G G G G G G G G G G G G G G ",
"G G G G G G G G G G G G G G F F V * 8 o ) w.4.c G G G G G G G G G G G G G G G G G G ",
"G G G G G G G G G G G G G G F D w 5 q o ' ] i.N Z G G G G G G G G G G G G G G G G G ",
"G G G G G G G G G G G G G G F m : q 0 o | U u.7.u F G G G G G G G G G G G G G G G G ",
"G G G G G G G G G G G G G F D y 8 H 0 o o.-.y.u.X.V G G G G G G G G G G G G G G G G ",
"G G G G G G G G G G G G G G Z : q L P o o.-.R y.6.c D G G G G G G G G G G G G G G G ",
"G G G G G G G G G G G G F F y 5 q W ~ o '  ...a.p.C V G F G G G G G G G G G G G G G ",
"G G G G G G G G G G G F G V * +.` W ~ o q.e.9.s.s.5.v G F G G G G G G G G G G G G G ",
"G G G G G G G G G G G F D $ 0 ` ,.%.~ % r.2.t.3.{ 0.g A G G G G G G G G G G G G G G ",
"G G G G G G G G G G G F m d $.:./ >._ q O.- 7 2 & = o l G G G G G G G G G G G G G G ",
"G G G G G G G G G G G F n T <.#._ ;.H H 2., , 0 1 3 2 a G G G G G G G G G G G G G G ",
"G G G G G G G G G G G F n K &.W %.#.H q 2.1 , 8 1 2 2 t G G G G G G G G G G G G G G ",
"G G G G G G G G G G G F D e Q / #.Q H 2 o.1 & 8 2 3 + V G G G G G G G G G G G G G G ",
"G G G G G G G G G G G G F M - W ` H P J o.2   5 2 % i G G G G G G G G G G G G G G G ",
"G G G G G G G G G G G G G D r H _ H @.Y o.2 . 5 2 O V D G G G G G G G G G G G G G G ",
"G G G G G G G G G G G G G G b 2 W W <.Q o.2   2 % # D D G G G G G G G G G G G G G G ",
"G G G G G G G G G G G G G G A > q +.1.I o.2   1 X z D G G G G G G G G G G G G G G G ",
"G G G G G G G G G G G G G G D k 6 >.1.Q } 2 . 1 # V G G G G G G G G G G G G G G G G ",
"G G G G G G G G G G G G G G G V f >.1.I / 2 . = k F G G G G G G G G G G G G G G G G ",
"G G G G G G G G G G G G G G F F i [ 8.Q ( 3 o @ D G G G G G G G G G G G G G G G G G ",
"G G G G G G G G G G G G G G F F A s <.Y / H < b F F G G G G G G G G G G G G G G G G ",
"G G G G G G G G G G G G G G G F F x ! Y ( H p Z F G G G G G G G G G G G G G G G G G ",
"G G G G G G G G G G G G G G G G F Z h P ( 4 z F F G G G G G G G G G G G G G G G G G ",
"G G G G G G G G G G G G G G G G F F B 9 ^ p Z F G G G G G G G G G G G G G G G G G G ",
"G G G G G G G G G G G G G G G G G F S i p Z F G G G G G G G G G G G G G G G G G G G ",
"G G G G G G G G G G G G G G G G G G G D S G G G G G G G G G G G G G G G G G G G G G ",
"G G G G G G G G G G G G G G G G G G G F G G G G G G G G G G G G G G G G G G G G G G ",
"G G G G G G G G G G G G G G G G G G G G G G G G G G G G G G G G G G G G G G G G G G ",
"G G G G G G G G G G G G G G G G G G G G G G G G G G G G G G G G G G G G G G G G G G "
};
