/* XPM */
static char *result[] = {
/* columns rows colors chars-per-pixel */
"42 42 129 2 ",
"   c #051327",
".  c #0D1E2B",
"X  c #001632",
"o  c #021937",
"O  c #001939",
"+  c #081F3A",
"@  c #1C2B2C",
"#  c #122836",
"$  c #21383D",
"%  c #001E44",
"&  c #01214A",
"*  c #112D42",
"=  c #1A3442",
"-  c #1E3843",
";  c #17354A",
":  c #012A5C",
">  c #113454",
",  c #10375A",
"<  c #11395B",
"1  c #012D63",
"2  c #053062",
"3  c #02336D",
"4  c #173E61",
"5  c #003475",
"6  c #013778",
"7  c #02397C",
"8  c #0A3B7B",
"9  c #314945",
"0  c #30444D",
"q  c #3C5244",
"w  c #3A544C",
"e  c #2E4C5D",
"r  c #364C51",
"t  c #3A4F52",
"y  c #3C5455",
"u  c #3E5C55",
"i  c #3A5C5E",
"p  c #0C4074",
"a  c #0B417C",
"s  c #144975",
"d  c #244F6C",
"f  c #3E5B61",
"g  c #2B4C7B",
"h  c #205077",
"j  c #295571",
"k  c #475F4D",
"l  c #435F53",
"z  c #40575E",
"x  c #486354",
"c  c #4C6855",
"v  c #516D57",
"b  c #56745E",
"n  c #5C7B5F",
"m  c #415B60",
"M  c #557261",
"N  c #5E7E64",
"B  c #5B7D69",
"V  c #618265",
"C  c #648569",
"Z  c #678A6C",
"A  c #6A8D6E",
"S  c #6E9372",
"D  c #709574",
"F  c #033C82",
"G  c #093D83",
"H  c #013F89",
"J  c #124582",
"K  c #034493",
"L  c #044A9E",
"P  c #134C92",
"I  c #315587",
"U  c #225197",
"Y  c #21589D",
"T  c #2E5D98",
"R  c #3C679E",
"E  c #064EA7",
"W  c #0A4FA2",
"Q  c #064FA8",
"!  c #0B53A2",
"~  c #0653AC",
"^  c #0A52A9",
"/  c #1559AC",
"(  c #0755B2",
")  c #0658B6",
"_  c #0959B3",
"`  c #075ABC",
"'  c #095EBA",
"]  c #285AA2",
"[  c #0B68BD",
"{  c #1864BA",
"}  c #2E6DA3",
"|  c #2262AE",
" . c #2F64AB",
".. c #3564A2",
"X. c #3C73AF",
"o. c #2F6AB1",
"O. c #3C7BB9",
"+. c #456998",
"@. c #4E7394",
"#. c #466FA4",
"$. c #4472AC",
"%. c #4D75AA",
"&. c #4B78AF",
"*. c #4677B3",
"=. c #0B65C2",
"-. c #0963CD",
";. c #0F6ACE",
":. c #1D70CB",
">. c #0B64D0",
",. c #0B68D6",
"<. c #0D6EDB",
"1. c #196FD2",
"2. c #3270C0",
"3. c #0E74E7",
"4. c #0D75ED",
"5. c #0E78EF",
"6. c #0D77F0",
"7. c #0E79F2",
"8. c #0F7CFB",
"9. c #447EC2",
"0. c #5B83AC",
"q. c #4A88D7",
"w. c #558FD6",
"e. c #659EDD",
"r. c #659FE5",
"t. c #6FA7E5",
"y. c #75AEE6",
"u. c #73ACEA",
"i. c #7EB6F2",
/* pixels */
"D D D D D D D D D D D D D D D D D D D D D D D D D D D D D D D D D D D D D D D D D D ",
"D D D D D D D D D D D D D D D D D D D D D D D D D D D D D D D D D D D D D D D D D D ",
"D D D D D D D D D D D D D D D D D D D D D D D D D D D D D D D D D D D D D D D D D D ",
"D D D D D D D D D D D D D D D D D D D D D D D D D D D D D D D D D D D D D D D D D D ",
"D D D D D D D D D D D D D D D D D D D D D D D D D D D D D D D D D D D D D D D D D D ",
"D D D D D D D D D D D D D D D D D D D S S S D D D D D D D D D D D D D D D D D D D D ",
"D D D D D D D D D D D D D D D D D D S A V S S D D D D D D D D D D D D D D D D D D D ",
"D D D D D D D D D D D D D D D D D D S k 0 v S S D D D D D D D D D D D D D D D D D D ",
"D D D D D D D D D D D D D D D D D D C @ +.z Z D D D D D D D D D D D D D D D D D D D ",
"D D D D D D D D D D D D D D D D D D k   &.X.l S S D D D D D D D D D D D D D D D D D ",
"D D D D D D D D D D D D D D D D D C = % #.1.d C S D D D D D D D D D D D D D D D D D ",
"D D D D D D D D D D D D D D D S D q 2 % R { } M S S D D D D D D D D D D D D D D D D ",
"D D D D D D D D D D D D D D D S N = 6 % W Q :.m A D D D D D D D D D D D D D D D D D ",
"D D D D D D D D D D D D D D S A k 1 F & W K O.@.b S D D D D D D D D D D D D D D D D ",
"D D D D D D D D D D D D D D S V - Q H % / 2.U y.y A S D D D D D D D D D D D D D D D ",
"D D D D D D D D D D D D D S S l 3 ,.K % / q.G e.0.l S S D D D D D D D D D D D D D D ",
"D D D D D D D D D D D D D D Z = L 7.` % X.w.8 w.t.m C D D D D D D D D D D D D D D D ",
"D D D D D D D D D D D D D S q F ` 7.-.% %.t.] u.i.0.M A D D D D D D D D D D D D D D ",
"D D D D D D D D D D D D S C $ ~ 7.8.-.% %.i.w.y.9...m A D D D D D D D D D D D D D D ",
"D D D D D D D D D D D S A u ! 3.8.8.-.% %.r.9. .G ] +.b D D D D D D D D D D D D D D ",
"D D D D D D D D D D D S C d 3.8.8.6.G o %.o.F F G P *.t D D D D D D D D D D D D D D ",
"D D D D D D D D D D D S C h 5.5.>.K % % T 8 1 3 Y ] 9.r D D D D D D D D D D D D D D ",
"D D D D D D D D D D D S C j <.` ) _ K 5 E 1 X o g ..I 9 D D D D D D D D D D D D D D ",
"D D D D D D D D D D D S S x a ( 8.4.K 3 ^ 7 X o o 1 + b D D D D D D D D D D D D D D ",
"D D D D D D D D D D D D S A $ H <.) F 3 Q 7 X o o o 9 Z D D D D D D D D D D D D D D ",
"D D D D D D D D D D D D D D c p <.L H K ~ 7 X O O . v S D D D D D D D D D D D D D D ",
"D D D D D D D D D D D D D D C < ( K ` Q ( 7 X : % @ N S D D D D D D D D D D D D D D ",
"D D D D D D D D D D D D D S S w 1 ` E ^ ( 7 X 1 + q S S D D D D D D D D D D D D D D ",
"D D D D D D D D D D D D D S S M > ` ~ ' ~ 7 X : # n A D D D D D D D D D D D D D D D ",
"D D D D D D D D D D D D D D S A i G ~ [ | 8 O & q D D D D D D D D D D D D D D D D D ",
"D D D D D D D D D D D D D D S S b , <.=.$.J 1 * V D D D D D D D D D D D D D D D D D ",
"D D D D D D D D D D D D D D S S S 9 ;.=.$.P 1 l S D D D D D D D D D D D D D D D D D ",
"D D D D D D D D D D D D D D D D D V s [ X.P ; N S S D D D D D D D D D D D D D D D D ",
"D D D D D D D D D D D D D D D D S S f K *.s q S S S D D D D D D D D D D D D D D D D ",
"D D D D D D D D D D D D D D D D S S B 4 +.e n S S D D D D D D D D D D D D D D D D D ",
"D D D D D D D D D D D D D D D D S S S b y V S S D D D D D D D D D D D D D D D D D D ",
"D D D D D D D D D D D D D D D D D D D S Z S D D D D D D D D D D D D D D D D D D D D ",
"D D D D D D D D D D D D D D D D D D D D S D D D D D D D D D D D D D D D D D D D D D ",
"D D D D D D D D D D D D D D D D D D D D D D D D D D D D D D D D D D D D D D D D D D ",
"D D D D D D D D D D D D D D D D D D D D D D D D D D D D D D D D D D D D D D D D D D ",
"D D D D D D D D D D D D D D D D D D D D D D D D D D D D D D D D D D D D D D D D D D ",
"D D D D D D D D D D D D D D D D D D D D D D D D D D D D D D D D D D D D D D D D D D "
};
