/* XPM */
static char *result[] = {
/* columns rows colors chars-per-pixel */
"42 42 139 2 ",
"   c #06192E",
".  c #001633",
"X  c #061A31",
"o  c #112027",
"O  c #0A233A",
"+  c #142C3C",
"@  c #203230",
"#  c #243A3E",
"$  c #293E3A",
"%  c #34473C",
"&  c #011E43",
"*  c #001F48",
"=  c #0F2C46",
"-  c #00214A",
";  c #0E2E4C",
":  c #1A3645",
">  c #12324C",
",  c #012754",
"<  c #032A57",
"1  c #002A5D",
"2  c #0B3258",
"3  c #103557",
"4  c #233E46",
"5  c #012D63",
"6  c #02336D",
"7  c #0C3A6B",
"8  c #023573",
"9  c #0C3E75",
"0  c #023579",
"q  c #013A7D",
"w  c #083E7E",
"e  c #1D435D",
"r  c #2D4747",
"t  c #2F4A49",
"y  c #334D47",
"u  c #334F4C",
"i  c #3E564C",
"p  c #354C53",
"a  c #305057",
"s  c #395A5C",
"d  c #1D4864",
"f  c #1B486C",
"g  c #12417C",
"h  c #2C4D71",
"j  c #395F7D",
"k  c #425B4C",
"l  c #435B53",
"z  c #49614C",
"x  c #4B6653",
"c  c #4F6B57",
"v  c #476558",
"b  c #4F6E5B",
"n  c #55725B",
"m  c #58775E",
"M  c #5C7A5F",
"N  c #425D6C",
"B  c #415C70",
"V  c #4C6A61",
"C  c #5D7D62",
"Z  c #486476",
"A  c #466378",
"S  c #628265",
"D  c #64866A",
"F  c #678A6C",
"G  c #6A8C6D",
"H  c #6B8F70",
"J  c #6F9373",
"K  c #709574",
"L  c #023D84",
"P  c #023F89",
"I  c #03418C",
"U  c #024392",
"Y  c #034A9E",
"T  c #124D97",
"R  c #1E5397",
"E  c #325282",
"W  c #2F5B97",
"Q  c #215A9B",
"!  c #2D5C9D",
"~  c #325990",
"^  c #054CA2",
"/  c #054FA8",
"(  c #0650A6",
")  c #0D52A5",
"_  c #0954AD",
"`  c #1053A4",
"'  c #1E59A3",
"]  c #145AAE",
"[  c #0656B5",
"{  c #075BBE",
"}  c #0A5DBC",
"|  c #115DB1",
" . c #255EA5",
".. c #1D60AD",
"X. c #0C62B5",
"o. c #3163A3",
"O. c #3869A6",
"+. c #3465A8",
"@. c #3B6FAF",
"#. c #2B6BB8",
"$. c #3D75BA",
"%. c #446DA1",
"&. c #4473AE",
"*. c #4C75AA",
"=. c #4F78AD",
"-. c #5279AD",
";. c #4476B5",
":. c #477BBD",
">. c #075DC3",
",. c #085EC4",
"<. c #0A64C3",
"1. c #0963CD",
"2. c #0C6CD7",
"3. c #0D77E7",
"4. c #0E76EB",
"5. c #0E77F0",
"6. c #0E7AF3",
"7. c #0F7CFA",
"8. c #427CC2",
"9. c #487AC0",
"0. c #6996BA",
"q. c #4E87C7",
"w. c #578CC4",
"e. c #558FCD",
"r. c #588DD3",
"t. c #5891D7",
"y. c #5193D8",
"u. c #618FC4",
"i. c #6794C5",
"p. c #6996CA",
"a. c #639BD5",
"s. c #639BDB",
"d. c #73AADE",
"f. c #66A0E2",
"g. c #71A9E5",
"h. c #76AFEA",
"j. c #7BB2E9",
"k. c #7BB3F1",
"l. c #80B9F5",
/* pixels */
"K K K K K K K K K K K K K K K K K K K K K K K K K K K K K K K K K K K K K K K K K K ",
"K K K K K K K K K K K K K K K K K K K K K K K K K K K K K K K K K K K K K K K K K K ",
"K K K K K K K K K K K K K K K K K K K K K K K K K K K K K K K K K K K K K K K K K K ",
"K K K K K K K K K K K K K K K K K K K K K K K K K K K K K K K K K K K K K K K K K K ",
"K K K K K K K K K K K K K K K K K K K K K K K K K K K K K K K K K K K K K K K K K K ",
"K K K K K K K K K K K K K K K K K K K K K K K K K K K K K K K K K K K K K K K K K K ",
"K K K K K K K K K K K K K K K K K K K J K K K K K K K K K K K K K K K K K K K K K K ",
"K K K K K K K K K K K K K K K K K K J D x G K K K K K K K K K K K K K K K K K K K K ",
"K K K K K K K K K K K K K K K K K J G % h i K K K K K K K K K K K K K K K K K K K K ",
"K K K K K K K K K K K K K K K K J K m o ` j M K K K K K K K K K K K K K K K K K K K ",
"K K K K K K K K K K K K K K K K J J y . ] w.l G K K K K K K K K K K K K K K K K K K ",
"K K K K K K K K K K K K K K K K J M = - ) g.Z C K K K K K K K K K K K K K K K K K K ",
"K K K K K K K K K K K K K K J J H $ 6 - ) y.0.V G J K K K K K K K K K K K K K K K K ",
"K K K K K K K K K K K K K K J J n > q - ^ ..d.N D K K K K K K K K K K K K K K K K K ",
"K K K K K K K K K K K K K K J F t 6 q - o.T e.i.k K K K K K K K K K K K K K K K K K ",
"K K K K K K K K K K K K K J J C > q q * %. .s.k.A C J K K K K K K K K K K K K K K K ",
"K K K K K K K K K K K K K K J u 6 P I * O.$.9.r.p.l H K K K K K K K K K K K K K K K ",
"K K K K K K K K K K K K K K C = q I { * ' #.;.s.j.A C H K K K K K K K K K K K K K K ",
"K K K K K K K K K K K K K G $ L ^ U { &  .8.8.h.l.0.V H J K K K K K K K K K K K K K ",
"K K K K K K K K K K K K K n > ( 3.{ >.& -.f.q.g.f.a.B D K K K K K K K K K K K K K K ",
"K K K K K K K K K K K K F r 8 U 2.6.,.* =.t.Q R L 8.u.V K K K K K K K K K K K K K K ",
"K K K K K K K K K K K J S : L 1.4./ , . *.h.$. .;.h.h.p K K K K K K K K K K K K K K ",
"K K K K K K K K K K K J S e ,.[ >.1.8 5 :.O.E +.~ W ! 4 K K K K K K K K K K K K K K ",
"K K K K K K K K K K K K G s | / ,.1.P 8 ;.9 & 0 5 5 & i K K K K K K K K K K K K K K ",
"K K K K K K K K K K K K K n 3 ^ >.Y L L *.9 . 5 6 , + C K K K K K K K K K K K K K K ",
"K K K K K K K K K K K K K K r 8 >.L Y } &.w . 5 8 X k J K K K K K K K K K K K K K K ",
"K K K K K K K K K K K K K K C ; >.P 1.<.&.L . 1 5 + M K K K K K K K K K K K K K K K ",
"K K K K K K K K K K K K K K D : P ^ 5.<.=.g . 1 & @ C K K K K K K K K K K K K K K K ",
"K K K K K K K K K K K K K K K x < 1.7.,.@.w X 1 O k J J K K K K K K K K K K K K K K ",
"K K K K K K K K K K K K K K H C 4 2.7.<.] q . 1 @ G J K K K K K K K K K K K K K K K ",
"K K K K K K K K K K K K K K K J v ] 7.<._ q X   c K K K K K K K K K K K K K K K K K ",
"K K K K K K K K K K K K K K K K S f 5.<._ P , # F K K K K K K K K K K K K K K K K K ",
"K K K K K K K K K K K K K K K K J l ] X._ U 2 b J J K K K K K K K K K K K K K K K K ",
"K K K K K K K K K K K K K K K K K F d X._ I r S H J K K K K K K K K K K K K K K K K ",
"K K K K K K K K K K K K K K K K J J V w } 7 z J J K K K K K K K K K K K K K K K K K ",
"K K K K K K K K K K K K K K K K J J F a g s D J K K K K K K K K K K K K K K K K K K ",
"K K K K K K K K K K K K K K K K K J J D b F J K K K K K K K K K K K K K K K K K K K ",
"K K K K K K K K K K K K K K K K K K J J K K K K K K K K K K K K K K K K K K K K K K ",
"K K K K K K K K K K K K K K K K K K K K K K K K K K K K K K K K K K K K K K K K K K ",
"K K K K K K K K K K K K K K K K K K K K K K K K K K K K K K K K K K K K K K K K K K ",
"K K K K K K K K K K K K K K K K K K K K K K K K K K K K K K K K K K K K K K K K K K ",
"K K K K K K K K K K K K K K K K K K K K K K K K K K K K K K K K K K K K K K K K K K "
};
