/* XPM */
static char *result[] = {
/* columns rows colors chars-per-pixel */
"42 42 193 2 ",
"   c #2D281A",
".  c #352C1F",
"X  c #3D321B",
"o  c #131E23",
"O  c #142126",
"+  c #1A2225",
"@  c #15252B",
"#  c #1A292D",
"$  c #0A2B3B",
"%  c #162C35",
"&  c #1C2E31",
"*  c #1D3235",
"=  c #1F3836",
"-  c #17333B",
";  c #1A363E",
":  c #282B28",
">  c #3E3421",
",  c #213334",
"<  c #203936",
"1  c #323A38",
"2  c #48391E",
"3  c #413622",
"4  c #453B22",
"5  c #4B3E23",
"6  c #31403E",
"7  c #4B4023",
"8  c #574528",
"9  c #5A452B",
"0  c #5E4B2B",
"q  c #41453A",
"w  c #584F31",
"e  c #50523E",
"r  c #65492B",
"t  c #684C28",
"y  c #7D5E2F",
"u  c #665436",
"i  c #735533",
"p  c #7E5D33",
"a  c #745D3B",
"s  c #7A5F3C",
"d  c #79633A",
"f  c #7B603C",
"g  c #0D374A",
"h  c #1F4047",
"j  c #0D4159",
"k  c #13465A",
"l  c #114B5F",
"z  c #27474A",
"x  c #384E4A",
"c  c #3A534F",
"v  c #2B5257",
"b  c #12566D",
"n  c #17576C",
"m  c #135C74",
"M  c #1E6173",
"N  c #13627C",
"B  c #1D657C",
"V  c #2A626B",
"C  c #20667D",
"Z  c #396E70",
"A  c #3E7D7B",
"S  c #434C43",
"D  c #4D5446",
"F  c #49544B",
"G  c #525746",
"H  c #565846",
"J  c #4C5B51",
"K  c #505E52",
"L  c #4B6554",
"P  c #526D59",
"I  c #56725B",
"U  c #616046",
"Y  c #7B6241",
"T  c #667B5E",
"R  c #697A5D",
"E  c #5E7C62",
"W  c #4F7871",
"Q  c #627E63",
"!  c #6B7D60",
"~  c #805722",
"^  c #826328",
"/  c #906B29",
"(  c #846833",
")  c #83643C",
"_  c #8B673B",
"`  c #83693E",
"'  c #8C6C3F",
"]  c #926D3E",
"[  c #996F3D",
"{  c #8D703C",
"}  c #957834",
"|  c #9A723D",
" . c #A2763D",
".. c #806644",
"X. c #8C6C41",
"o. c #906D42",
"O. c #8F7044",
"+. c #8F724A",
"@. c #947243",
"#. c #9B7543",
"$. c #9E7946",
"%. c #92754A",
"&. c #95794D",
"*. c #9B7C4E",
"=. c #A57C44",
"-. c #A77D45",
";. c #638265",
":. c #6C8465",
">. c #658569",
",. c #67896B",
"<. c #698C6D",
"1. c #718364",
"2. c #6C8F70",
"3. c #6E9272",
"4. c #709574",
"5. c #739778",
"6. c #749879",
"7. c #789B7E",
"8. c #BA8F2D",
"9. c #AE8933",
"0. c #AD8145",
"q. c #AB834B",
"w. c #B08344",
"e. c #B1874C",
"r. c #B5894C",
"t. c #BA8E4E",
"y. c #A68654",
"u. c #AA8652",
"i. c #AD8955",
"p. c #B68D56",
"a. c #BB8F52",
"s. c #B28D59",
"d. c #BF9350",
"f. c #848D62",
"g. c #A68D61",
"h. c #B19767",
"j. c #146681",
"k. c #146A85",
"l. c #176B85",
"z. c #1E6B84",
"x. c #1A6E89",
"c. c #17748F",
"v. c #1C738E",
"b. c #177692",
"n. c #1B7792",
"m. c #1A7996",
"M. c #1A7D9A",
"N. c #206C84",
"B. c #297689",
"V. c #217893",
"C. c #17809E",
"Z. c #1A809D",
"A. c #2E838F",
"S. c #21839F",
"D. c #1C85A3",
"F. c #1A86A5",
"G. c #168BAA",
"H. c #1B8BAB",
"J. c #1B8FB0",
"K. c #1791B2",
"L. c #1C94B5",
"P. c #1C97B8",
"I. c #1B9BBD",
"U. c #2386A3",
"Y. c #2389A7",
"T. c #2C89A5",
"R. c #248EAD",
"E. c #298DAA",
"W. c #2D92AE",
"Q. c #3492AE",
"!. c #2394B3",
"~. c #2598B7",
"^. c #249BBB",
"/. c #2A9BBA",
"(. c #3395B3",
"). c #379CBA",
"_. c #399BB9",
"`. c #1B9EC2",
"'. c #1BA1C4",
"]. c #21A4C7",
"[. c #2AA3C4",
"{. c #2AA7C9",
"}. c #24A8CC",
"|. c #2AABCD",
" X c #33A6C6",
".X c #37ADCC",
"XX c #2AAED1",
"oX c #2EB1D4",
"OX c #33B3D5",
"+X c #3BB2D2",
"@X c #38B8D9",
"#X c #3ABCDD",
"$X c #41BDDC",
/* pixels */
"4.4.4.4.4.4.4.4.4.4.4.4.4.4.4.4.4.4.4.4.4.4.4.4.4.4.4.4.4.4.4.4.4.4.4.3.4.4.4.4.4.4.",
"4.4.4.4.4.4.4.4.4.4.4.4.4.4.4.4.4.4.4.4.3.3.4.4.4.4.4.4.4.4.5.3.4.4.4.4.4.4.4.4.4.4.",
"4.4.4.4.4.4.4.4.4.4.4.4.4.3.3.4.3.<.,.>.>.>.;.>.,.>.;.;.;.;.3.5.4.4.4.4.4.4.4.4.4.4.",
"4.4.3.4.4.4.4.4.5.5.4.,.U d ..` o.=.u.s.u.y.*.*.+.+...Y 9   3.4.4.4.4.4.5.5.4.4.4.3.",
"4.4.4.4.3.4.4.6.4.4.4.>.X.i s X.&.g.g.h.g.%.=.-.-.[ p r r X <.3.4.4.4.6.4.4.4.4.4.4.",
"4.4.4.4.4.4.5.4.4.4.4.Q s.8 : : + o O @ @ % % - ; * g 0 ` 2 3.4.4.4.5.4.4.4.4.4.4.4.",
"4.4.4.4.3.5.6.4.4.4.4.;.s.r * R.m x.F.K.I.I.`.].Q.N.Y.8 #.4 3.3.4.4.7.4.4.4.3.4.4.4.",
"3.4.4.4.6.5.4.4.4.4.4.:.q.i , oXF.M.b.M.M.C.F.F.m.n.H.u #.7 2.5.6.4.4.4.4.4.4.4.4.4.",
"4.4.4.6.4.4.4.4.4.4.4.:.p..., oXG.z.M j N N x.].H.b c u  .7 3.6.4.4.4.4.4.4.4.4.4.4.",
"4.4.4.5.4.4.4.4.4.4.4.1.p.Y z .XF. XI.E.`.H.H.|.'.N w f | 8 2.5.4.4.4.4.4.4.4.4.4.4.",
"4.4.4.4.4.4.4.4.4.4.4.1.e.f z oXG.+XI._.'.L.G.!.U.V L )  .8 <.3.4.4.4.4.4.4.4.4.4.4.",
"4.4.4.4.4.4.4.4.4.4.4.1.e.d v [.R.}.`._.].P.A.` } / t ~ | 7 <.3.4.4.4.4.4.4.4.4.4.4.",
"4.4.4.4.3.4.4.4.4.6.4.1.0.d x /.R.oX'.(.}.'.C.T.b k h | ] 7 :.4.4.4.4.4.4.5.4.4.4.4.",
"4.4.4.4.4.4.4.4.6.4.3.1.0.` z /.~.OX'.Q.'.}.Z.OX'.x.P ` _ 2 ,.4.4.4.4.4.6.4.4.4.4.4.",
"4.4.4.4.4.4.4.6.4.4.4.R 0.@.z |.~.XX'.Q.'.'.S.OX`.N.m.H 0.8 >.3.4.4.4.4.4.4.4.4.4.4.",
"4.4.4.4.4.6.6.4.4.4.4.:.q.X.= OX~.XX'.Q.'.'.m.OX].B.H.G r.0 ;.4.4.5.7.4.4.4.4.4.4.4.",
"4.4.4.4.4.5.4.4.4.4.3.! q.d 6 |.~.|.'.Q.}.H.U.OX'.z.!.D w.0 Q 4.4.4.4.4.4.4.4.4.4.4.",
"4.4.4.4.5.4.3.4.4.4.4.! $.d < ].~.`.`.(.I.!.S.oX'.z.P.G 0.5 Q 4.5.4.4.4.4.4.4.4.4.4.",
"4.4.4.6.4.4.4.4.4.4.4.! @.d = x B.K.'.W.'.L.Z.XX'.z.^.D -.5 Q 6.4.4.4.4.4.4.4.4.4.4.",
"4.4.4.4.4.4.4.4.4.4.4.R *.a < ( v k.'.E.'.`.m.XX'.B [.D =.5 <.3.4.4.4.4.4.4.4.4.4.4.",
"4.4.4.4.4.4.4.4.3.3.4.R #.+.= t 9.D J.Y.'.'.Z.|.`.z.{.S o.4 <.4.4.4.4.4.4.4.4.4.4.4.",
"4.4.4.4.4.4.4.4.4.6.4.R q.&.= ^ 8.6 G.R.`.'.Z.XX`.z.XXS ] > 2.4.4.4.4.4.4.4.4.4.4.4.",
"4.4.4.4.5.4.4.4.6.4.4.R e.' = 0 z c.'.(.'.'.Z.@X`.j.OXF _ 4 3.4.4.4.4.4.4.4.4.4.4.4.",
"4.4.4.4.3.4.4.5.4.5.3.R r.` = M W.K.'._.`.'.Z.$X'.B OXS ] 4 3.4.4.4.4.6.4.4.4.4.4.4.",
"4.4.4.4.4.4.6.4.4.4.4.T t.O.= +X!.I.'.).'.|.C.#X'.z.OXS @.4 3.3.4.4.7.4.4.4.4.4.4.4.",
"4.4.4.4.4.4.6.4.4.3.4.T d.@.= $XR.'.'.).'.|.Z.#X'.C oXS %.5 3.5.4.4.6.4.4.4.4.4.4.4.",
"4.4.4.4.5.4.4.4.4.4.4.T a.+.6 @XD.`.'.(.'.}.m.$X`.M oXF #.7 3.4.5.4.4.4.4.4.4.4.4.4.",
"4.4.4.4.4.4.4.4.4.4.4.T p.+.* +XH.P.'.W.].'.m.#X`.B XXK $.7 3.5.4.4.4.4.4.4.4.4.4.4.",
"4.4.4.4.4.4.4.4.4.4.4.T p.O., +XH.^.'.U.].'.c.@X'.B }.L =.7 3.3.4.4.4.4.4.4.4.4.4.4.",
"4.4.4.4.4.4.4.4.4.4.4.;.p.O.&  XH. XI.n.I.'.x.@XI.N `.J 0.7 3.4.4.4.4.4.4.4.4.4.4.4.",
"4.4.4.4.4.4.4.4.5.3.3.;.i.Y * [.H./.P.x.^.'.l.OXI.b A d 0.7 3.3.4.4.4.4.4.4.4.4.4.4.",
"4.4.4.4.4.4.4.4.5.5.3.>.i.X.# I.H.!.^.N }.'.N |.I.b Z { 0.7 3.4.4.4.4.4.4.4.4.4.4.4.",
"4.4.4.4.4.4.4.5.4.4.4.,.q.o.# L.H.E.P.N ].`.N {.`.b W y [ 3 3.4.4.4.4.4.4.4.4.4.4.4.",
"3.4.4.4.4.4.4.5.4.4.4.,.q.{ # H.F.V.P.N I.P.b [.I.n B.( ] 3 3.4.4.4.5.4.4.4.4.4.4.4.",
"4.4.4.4.4.5.6.4.4.4.4.,.=.| @ R.H.m m.b F.G.l ,.f.} d ~ =.> 3.4.4.5.7.4.4.4.4.4.4.4.",
"4.4.4.4.6.4.4.4.4.4.4.,.@.[ # C.M.n.F.U.c.N n S e 1 h q #.3 3.4.5.4.4.4.4.4.4.4.4.4.",
"4.4.4.5.4.4.4.4.4.4.5.,.) s o k.v.m.^.'.`.].|.{.U.g g z i . 3.5.4.4.4.4.4.4.4.4.4.4.",
"4.4.4.4.4.4.4.4.4.4.4.<.9 r o g $ l j.N m l.k.k.B $ g * 5 X 3.4.4.4.4.4.4.4.4.4.4.4.",
"4.4.4.4.4.4.4.4.4.4.4.4.I E Q E I I P I E E ;.,.;.;.E E R Q 4.4.4.4.4.4.4.4.4.4.4.4.",
"4.4.4.4.4.4.4.4.4.4.4.4.3.4.4.4.4.4.3.5.3.3.4.4.3.4.3.6.4.4.4.4.4.4.4.4.4.4.4.4.4.4.",
"4.4.4.4.4.4.4.4.4.4.4.4.4.4.4.4.4.4.4.4.4.4.4.4.4.4.4.4.4.4.4.3.3.4.4.4.4.4.4.4.4.4.",
"4.4.4.4.4.4.4.4.4.4.4.4.4.3.4.4.4.4.4.4.4.4.4.4.4.4.4.4.4.4.4.4.4.4.4.4.4.4.4.4.4.4."
};
