/* XPM */
static char *result[] = {
/* columns rows colors chars-per-pixel */
"42 42 178 2 ",
"   c #3D1F22",
".  c #3E2022",
"X  c #461E1F",
"o  c #4B1F1D",
"O  c #5D1D16",
"+  c #531E1A",
"@  c #581E18",
"#  c #621D15",
"$  c #6B1D11",
"%  c #4E211E",
"&  c #5F2116",
"*  c #54221D",
"=  c #5A231C",
"-  c #5D341B",
";  c #672216",
":  c #6D2215",
">  c #632419",
",  c #6A271A",
"<  c #60281E",
"1  c #6C2D1C",
"2  c #722313",
"3  c #742A14",
"4  c #7C2C16",
"5  c #722D1A",
"6  c #782F1B",
"7  c #6A351C",
"8  c #7C351C",
"9  c #411F21",
"0  c #452222",
"q  c #4B2523",
"w  c #4C2A26",
"e  c #4A2B28",
"r  c #542D26",
"t  c #592C24",
"y  c #53342C",
"u  c #5A342B",
"i  c #5D392D",
"p  c #493531",
"a  c #493D37",
"s  c #523830",
"d  c #642F22",
"f  c #692F21",
"g  c #663627",
"h  c #6C3425",
"j  c #653D2D",
"k  c #773926",
"l  c #623E30",
"z  c #744416",
"x  c #4C413C",
"c  c #53453B",
"v  c #5A4A3D",
"b  c #6B412E",
"n  c #73422D",
"m  c #79462D",
"M  c #6D4431",
"N  c #684735",
"B  c #664D3B",
"V  c #6A4C39",
"C  c #744532",
"Z  c #774537",
"A  c #714B35",
"S  c #67523F",
"D  c #6D543E",
"F  c #74593F",
"G  c #575547",
"H  c #635442",
"J  c #6D5741",
"K  c #6B5C46",
"L  c #635C49",
"P  c #765944",
"I  c #59604F",
"U  c #5B6654",
"Y  c #5B6855",
"T  c #63624E",
"R  c #6B624A",
"E  c #706047",
"W  c #72674D",
"Q  c #7B6B4B",
"!  c #606954",
"~  c #6E6C52",
"^  c #766E53",
"/  c #6D7156",
"(  c #63745C",
")  c #6C755A",
"_  c #6E7A5E",
"`  c #727054",
"'  c #737559",
"]  c #777958",
"[  c #627760",
"{  c #657B62",
"}  c #6D7D61",
"|  c #707D60",
" . c #832F15",
".. c #853116",
"X. c #8A3316",
"o. c #8C3A18",
"O. c #963B17",
"+. c #923A18",
"@. c #863B22",
"#. c #974518",
"$. c #9E4119",
"%. c #A24419",
"&. c #A54A1C",
"*. c #AB4A1B",
"=. c #B44D1B",
"-. c #AE541B",
";. c #B4501D",
":. c #BC541C",
">. c #AC6117",
",. c #BA6C1A",
"<. c #864728",
"1. c #9D5327",
"2. c #9D4F3C",
"3. c #875332",
"4. c #8A5532",
"5. c #845937",
"6. c #9C7329",
"7. c #A06D23",
"8. c #A06E33",
"9. c #C1571C",
"0. c #C2651B",
"q. c #CE7A1B",
"w. c #874B43",
"e. c #88574E",
"r. c #9E7742",
"t. c #93625C",
"y. c #886E62",
"u. c #9B6D68",
"i. c #967C75",
"p. c #A0696B",
"a. c #A2766B",
"s. c #A17574",
"d. c #A97176",
"f. c #AA7579",
"g. c #A47C79",
"h. c #678166",
"j. c #6E8365",
"k. c #6C8669",
"l. c #6D8C6D",
"z. c #708566",
"x. c #768467",
"c. c #718C6C",
"v. c #7A966A",
"b. c #6E8F70",
"n. c #7C8D74",
"m. c #6F9372",
"M. c #709574",
"N. c #7B9479",
"B. c #BD9225",
"V. c #CD841B",
"C. c #D3941A",
"Z. c #D5A319",
"A. c #DCB619",
"S. c #C3B12D",
"D. c #C8BD2C",
"F. c #DACD1E",
"G. c #E3CB17",
"H. c #E6DB16",
"J. c #EAED14",
"K. c #9B8D43",
"L. c #9CA549",
"P. c #91A359",
"I. c #AAAD44",
"U. c #888675",
"Y. c #948176",
"T. c #A5827F",
"R. c #AF7E84",
"E. c #AB8685",
"W. c #B58D91",
"Q. c #AC9D97",
"!. c #B69194",
"~. c #B89296",
"^. c #B9999C",
"/. c #9EA597",
"(. c #BEA3A5",
"). c #C0A8AA",
"_. c #C4ADB0",
"`. c #C6B2B6",
/* pixels */
"M.M.M.M.M.M.M.M.M.M.M.M.M.M.M.M.M.M.M.M.M.M.M.M.M.M.M.M.M.M.M.M.M.M.M.M.M.M.M.M.M.M.",
"M.M.M.M.M.M.M.M.m.m.M.M.M.M.M.M.M.M.M.M.M.M.M.M.M.M.M.M.M.M.M.M.M.M.M.M.M.M.M.M.M.M.",
"M.M.M.M.M.M.M.M.l.l.M.M.M.M.M.M.M.M.M.M.M.M.M.M.M.M.M.M.M.M.M.M.M.M.M.M.M.M.M.M.M.M.",
"M.M.M.M.M.M.M.m.G I M.M.M.M.M.M.M.M.M.M.M.M.M.M.M.M.M.M.M.M.M.M.M.M.M.M.M.M.M.M.M.M.",
"M.M.M.M.M.M.M.M.) { M.c.c.M.M.M.M.M.M.M.M.M.m.M.{ ! b.m.M.M.M.M.M.M.M.M.M.M.M.M.M.M.",
"M.M.M.M.M.M.M.M.m.m.b.Q ] M.M.M.M.M.M.M.M.M.m.m.} R G m.M.M.M.M.M.M.M.M.M.M.M.M.M.M.",
"M.M.M.M.M.M.M.M.m.l.b.z.x.M.M.M.M.M.M.m.M.M.M.m.( k.h.m.M.M.M.M.M.M.M.M.M.M.M.M.M.M.",
"M.M.M.M.M.M.M.m.l.G { U l.M.M.M.M.M.M.m.m.M.m.l.G ( M.M.M.M.M.M.M.M.M.M.M.M.M.M.M.M.",
"M.M.M.M.M.M.M.M.M.T c T { M.| ` m.m.j.K j.M.M.m.( G G l.m.M.M.m.M.M.M.M.M.M.M.M.M.M.",
"M.M.M.M.M.M.M.M.m.M M j.x._ j z.m.( i ~ m.M.M.z.J B , { m.m.M.M.M.M.M.M.M.M.M.M.M.M.",
"M.M.M.M.M.M.M.M.l.3.4.] c.H K m.l.p S b.M.M.M.l.C #.-.` M.M.M.M.M.M.M.M.M.M.M.M.M.M.",
"M.M.M.M.M.M.M.M.M.r.V.B.x.s [ M.U y z.m.M.M.M.c.8.A.A.K.M.M.M.M.M.M.M.M.M.M.M.M.M.M.",
"M.M.M.M.M.M.M.M.v.S.H.F.L.a ) M.U e _ m.m.M.m.v.S.J.H.I.M.M.M.M.M.M.M.M.M.M.M.M.M.M.",
"M.M.M.M.M.M.M.M.v.D.J.G.L.x T m.( . B M.m.m.M.v.D.H.F.P.M.M.M.M.M.M.M.M.M.M.M.M.M.M.",
"M.M.M.M.M.M.M.M.M.P.D.S.v.G t / K q = E Q Q ` z.v.I.P.M.M.M.M.M.M.M.M.M.M.M.M.M.M.M.",
"M.M.M.M.M.M.M.M.M.M.v.M.m.} s f &.o.= ..;.:.;.&.5.' b.M.M.M.M.M.M.M.M.M.M.M.M.M.M.M.",
"M.M.M.M.M.M.M.M.M.M.M.M.M.M.T * 4 : 8 *.:.V.C.0.%.+.D l.m.m.M.M.M.M.M.M.M.M.M.M.M.M.",
"M.M.M.M.M.M.M.M.M.M.M.M.M.' <.& - > 1 O.=.C.G.>.2 &.#.D c.m.M.M.M.M.M.M.M.M.M.M.M.M.",
"M.M.M.M.M.M.M.M.M.M.M.M.z.7.0.5 * 3 z 3 *.9.q.#.O.Z.Z.+.D c.m.M.M.M.M.M.M.M.M.M.M.M.",
"M.M.M.m.M.M.M.M.M.M.M.b.Q %.+.5 % z 7 $  .:.9.$.4 >.,.X.3 F m.M.M.M.M.M.M.M.M.M.M.M.",
"M.M.M.M.M.M.M.M.M.M.M.M.M > + $ % @ #  .=.:.%.= 9 % * 3 ,.>.~ M.M.M.M.M.M.M.M.M.M.M.",
"M.M.M.M.M.M.M.M.M.M.M.M.N X o $ $ $ ..:.9.#.* + O q w : #.-.<.z.M.M.M.M.M.M.M.M.M.M.",
"M.M.M.M.M.M.M.M.M.M.M.M.) q 9 O $ $  . .3 * O @ # s { v * > 4 m z.M.M.M.M.M.M.M.M.M.",
"M.M.M.M.M.M.M.M.M.M.M.M.l.l . 9 X % % X X + X o > H M.b.( N $.-.E M.M.M.M.M.M.M.M.M.",
"M.M.M.M.M.M.M.M.m.M.M.M.M.B . q H c q o + o O O b l.m.m.m.' $.9.3.l.M.M.M.M.M.M.M.M.",
"M.M.M.M.M.M.M.M.m.m.m.m.j.A % u z.l.k.T t + X + w S j.b.M.c.n &.@.} M.M._ l.M.M.M.M.",
"M.M.M.M.M.M.M.M.j.x.z.Q 6.#.# j c.m.M.m.T 0     @ % t ) M.M.z.n 2 N h.W g ( M.M.M.M.",
"M.M.M.M.M.M.M./ h 1 , +.#.1 D | M.M.c.~ h X   X @ . . y _ M.M.) : o.k g L m.M.M.M.M.",
"M.M.M.M.M.M.~ 1 @ u ; , J _ c.M.M.z.M ; o +   X +   9 < m l.M.j.6 %.j } M.M.M.M.M.M.",
"M.M.m.M.M.M.K l G H h _ M.M.M.M.j.j * 9   + X o + 9 X %.*.W N.U.k A x.M.M.M.M.M.M.M.",
"M.M.M.M.M.M.b.h.( B ~ M.M.M.M.z.j 0       X < V M d & @.2.t.i.^.Y.l.M.M.M.M.M.M.M.M.",
"M.M.M.M.M.M.M.M.m.l.M.M.M.c.| j 9 .   . u K _ b.n.| y.p.d.f.~._.Q.N.M.M.M.M.M.M.M.M.",
"M.M.M.M.M.M.M.M.M.M.M.M.M.` k + . % y S z.M.M.n.U.s.d.d.f.~.).`.T.' c.M.M.M.M.M.M.M.",
"M.M.M.M.M.M.M.M.M.M.M.M.m.5.*.; u R j.b.M.n.i.s.f.R.~.~.(.s.g.a.^ m.M.M.M.M.M.M.M.M.",
"M.M.M.M.M.M.M.M.M.M.M.M.l.3.o.; K m.n.U.i.f.R.R.!.^.`.E.u.; 2 1.M.N.M.M.M.M.M.M.M.M.",
"M.M.M.M.M.M.M.M.M.M.M.M.M.~ h * t ~ U.E.W.).`.(.).w.e.e.P r + 6 _ M.M.M.M.M.M.M.M.M.",
"M.M.M.M.M.M.M.M.M.M.M.M.M.m.j.V q j c./.E.t.g.i.w.Z N } m.Y e + V M.M.M.M.M.M.M.M.M.",
"M.M.M.M.M.M.M.M.M.M.M.M.m.l.| J = e ( N.P h h Z A W c.M.m.l.x 5 k j.M.M.M.M.M.M.M.M.",
"M.M.M.M.M.M.M.M.M.M.M.M.m.G i s p a Y b.N.M.M.M.M.M.M.M.M.{ a j A c.M.M.M.M.M.M.M.M.",
"M.M.M.M.M.M.M.M.M.M.m.m.m.l.l.b.l.b.M.M.M.M.M.M.M.M.M.M.M.b.b.b.b.M.M.M.M.M.M.M.M.M.",
"M.M.M.M.M.M.M.M.M.M.M.M.M.M.M.M.M.M.M.M.M.M.M.M.M.M.M.M.M.M.M.M.M.M.M.M.M.M.M.M.M.M.",
"M.M.M.M.M.M.M.M.M.M.M.M.M.M.M.M.M.M.M.M.M.M.M.M.M.M.M.M.M.M.M.M.M.M.M.M.M.M.M.M.M.M."
};
