/* XPM */
static char *result[] = {
/* columns rows colors chars-per-pixel */
"42 42 187 2 ",
"   c #3C1F23",
".  c #3E2023",
"X  c #461D1E",
"o  c #4B1E1D",
"O  c #5C1E17",
"+  c #531E1A",
"@  c #5C1F18",
"#  c #631E14",
"$  c #691E12",
"%  c #4B211E",
"&  c #55231B",
"*  c #5B231C",
"=  c #5B2B1C",
"-  c #642215",
";  c #6A2114",
":  c #64271B",
">  c #6C2719",
",  c #642B1E",
"<  c #6B2A1C",
"1  c #732313",
"2  c #732916",
"3  c #7E2D15",
"4  c #732719",
"5  c #7A2E19",
"6  c #69371B",
"7  c #773116",
"8  c #7C331C",
"9  c #421F20",
"0  c #432122",
"q  c #4A2321",
"w  c #4C2926",
"e  c #452A29",
"r  c #542924",
"t  c #5A2A22",
"y  c #5C3127",
"u  c #5E3B2E",
"i  c #4C3530",
"p  c #5C3433",
"a  c #543C33",
"s  c #702D21",
"d  c #633024",
"f  c #6D3524",
"g  c #653A2B",
"h  c #6C3D2C",
"j  c #723A26",
"k  c #7A3229",
"l  c #7A3E32",
"z  c #7D4D16",
"x  c #4D443C",
"c  c #5E4336",
"v  c #56483C",
"b  c #5C4B3C",
"n  c #6D422F",
"m  c #76402A",
"M  c #644434",
"N  c #6F4431",
"B  c #6A4937",
"V  c #644D3C",
"C  c #6C4E39",
"Z  c #754A34",
"A  c #7E473C",
"S  c #6E523D",
"D  c #7B573B",
"F  c #4E4841",
"G  c #514C41",
"H  c #584E40",
"J  c #545245",
"K  c #5B5143",
"L  c #545649",
"P  c #56594B",
"I  c #5B5C4B",
"U  c #764841",
"Y  c #665A46",
"T  c #685A45",
"R  c #6C5A44",
"E  c #745941",
"W  c #5E6451",
"Q  c #5D6C58",
"!  c #5F705B",
"~  c #6A644C",
"^  c #6B644D",
"/  c #756246",
"(  c #7A6346",
")  c #726A4E",
"_  c #7A684A",
"`  c #646650",
"'  c #656D56",
"]  c #6C6D54",
"[  c #626E59",
"{  c #716753",
"}  c #716B52",
"|  c #6E7156",
" . c #62765F",
".. c #6D755A",
"X. c #66795F",
"o. c #6D7A5E",
"O. c #727356",
"+. c #717559",
"@. c #71795D",
"#. c #637760",
"$. c #667B62",
"%. c #6C7D61",
"&. c #832D14",
"*. c #843116",
"=. c #87381C",
"-. c #933917",
";. c #9B3F17",
":. c #933B1A",
">. c #823B20",
",. c #944E15",
"<. c #9B421B",
"1. c #A3441A",
"2. c #A74A1B",
"3. c #AD4B1B",
"4. c #B24C1B",
"5. c #A6561B",
"6. c #B5571C",
"7. c #BB531C",
"8. c #AB6618",
"9. c #B9651A",
"0. c #884728",
"q. c #954A24",
"w. c #84403B",
"e. c #895936",
"r. c #A04D23",
"t. c #876C39",
"y. c #B66B21",
"u. c #A97137",
"i. c #C1561C",
"p. c #C76E1C",
"a. c #C87A1B",
"s. c #804D42",
"d. c #865753",
"f. c #8C5551",
"g. c #9E5D59",
"h. c #9A7B47",
"j. c #8D625A",
"k. c #946856",
"l. c #9B6C67",
"z. c #8D7C71",
"x. c #937F76",
"c. c #9A7B77",
"v. c #9E7C7A",
"b. c #A47575",
"n. c #A77779",
"m. c #7B825E",
"M. c #6E8466",
"N. c #6E8669",
"B. c #6D8B6D",
"V. c #728263",
"C. c #788667",
"Z. c #718D6D",
"A. c #74946E",
"S. c #79946B",
"D. c #79976A",
"F. c #6D8F70",
"G. c #6F9372",
"H. c #709574",
"J. c #B89332",
"K. c #B7A135",
"L. c #BDB635",
"P. c #CF8C19",
"I. c #CA9017",
"U. c #D9A419",
"Y. c #E0BC18",
"T. c #C2B731",
"R. c #E1C917",
"E. c #E4D517",
"W. c #E8E215",
"Q. c #82855F",
"!. c #9DA74B",
"~. c #8BA15D",
"^. c #97A654",
"/. c #A4AB49",
"(. c #818974",
"). c #A7817E",
"_. c #AD7A80",
"`. c #A88986",
"'. c #B68D91",
"]. c #AE999A",
"[. c #B59193",
"{. c #B69798",
"}. c #BB9D9F",
"|. c #BD9FA2",
" X c #BDA2A4",
".X c #C2AAAD",
"XX c #C5AFB1",
/* pixels */
"H.H.H.H.H.H.H.H.H.H.H.H.H.H.H.G.H.H.H.H.H.H.H.H.H.H.H.H.H.H.H.H.H.H.H.H.H.H.H.H.H.H.",
"H.H.H.H.H.H.H.H.H.H.H.H.H.H.H.H.H.H.H.H.H.H.H.H.H.H.H.H.H.H.H.H.H.H.H.H.H.H.H.H.H.H.",
"H.H.H.H.H.H.H.H.H.H.H.H.H.H.H.H.H.H.H.H.H.H.H.H.H.H.H.H.H.H.H.H.H.H.H.H.H.H.H.H.H.H.",
"H.H.H.H.H.H.H.H.H.H.H.H.H.H.H.H.H.H.H.H.H.H.H.H.H.H.$.H.H.H.H.H.H.H.H.H.H.H.H.H.H.H.",
"H.H.H.H.H.H.H.H.H.H.H.H.H.H.H.H.H.H.H.H.H.H.H.H.F.$.J B.H.H.H.H.H.H.H.H.H.H.H.H.H.H.",
"H.H.H.H.H.H.H.H.H.H.G.F.G.H.H.H.H.H.H.H.H.H.H.H.N.W #.B.H.H.H.H.H.H.H.H.H.H.H.H.H.H.",
"H.H.H.H.H.H.H.H.F.$.#.$.B.H.H.H.H.H.H.H.H.H.H.H.B.%.B.F.H.H.H.H.H.H.H.H.H.H.H.H.H.H.",
"H.H.H.H.H.H.H.G.W L G B.F.H.H.H.H.H.H.H.H.H.H.H.G.Q P L B.H.H.H.H.H.H.H.H.H.H.H.H.H.",
"H.H.H.H.H.H.H.H.] ~ b K F.H.H.H.H.H.H.H.A.H.H.H.G.F F b M.G.G.H.H.H.H.H.H.H.H.H.H.H.",
"H.H.H.H.H.H.H.H.B.M.O.< %.H.N.+.A.H.Z.] ] H.H.H.H.#.g _ V.G.H.H.H.H.H.H.H.H.H.H.H.H.",
"H.H.H.H.H.H.H.H.H.@.0.f C.M.h @.G.N.b R B.H.H.H.Z.S 5 R H.G.H.H.H.H.H.H.H.H.H.H.H.H.",
"H.H.H.H.H.H.H.H.H.h.3.r.Q.` C F.F.F c M.H.H.H.F.D 5.p.e.Z.H.H.H.H.H.H.H.H.H.H.H.H.H.",
"H.H.H.H.H.H.H.H.S.u.a.p.J.F ] H.! i ..G.H.H.H.C.y.Y.R.K.A.H.H.H.H.H.H.H.H.H.H.H.H.H.",
"H.H.H.H.H.H.H.H.S.J.E.E./.F ' H.! i ..G.H.H.H.S.K.W.W.L.D.H.H.H.H.H.H.H.H.H.H.H.H.H.",
"H.H.H.H.H.H.H.H.S.T.E.E.!.F ` G.#.e V A.H.H.H.H./.E.E.^.H.H.H.H.H.H.H.H.H.H.H.H.H.H.",
"H.H.H.H.H.H.H.H.H.~.T.L.S.H r ..@.e & ..) ( _ V.C./.^.A.H.H.H.H.H.H.H.H.H.H.H.H.H.H.",
"H.H.H.H.H.H.H.H.H.H.A.H.G.o.w g q.=.% j 1.p.p.1.,.) B.A.H.H.H.H.H.H.H.H.H.H.H.H.H.H.",
"H.H.H.H.H.H.H.H.H.H.H.H.G.H.` * -.&.2 <.4.P.R.,.-.:.Z V.G.H.H.H.H.H.H.H.H.H.H.H.H.H.",
"H.H.H.H.H.H.H.H.H.H.H.H.H.Z.D & = - 6 <.3.p.I.3 6.U.5.N N.A.H.H.H.H.H.H.H.H.H.H.H.H.",
"H.H.H.H.H.H.H.H.H.H.H.H.B.t.9.7 & # 7 3 3.i.7.&.9.I.9.2 n N.G.H.H.H.H.H.H.H.H.H.H.H.",
"H.H.H.H.H.H.H.H.H.H.H.H.O.5.6.8 X z z - *.7.1.& * : 5 3 8.D B.G.H.H.H.H.H.H.H.H.H.H.",
"H.H.H.H.H.H.H.H.H.H.H.H.) 8 * $ o X & $ -.7.<.o o   * ;.P.2.+.G.H.H.H.H.H.H.H.H.H.H.",
"H.H.H.H.H.H.H.H.H.H.H.G.' q   o $ # $ ;.7.3.- O $ o i , 2 *.Z G.H.H.H.H.H.H.H.H.H.H.",
"H.H.H.H.H.H.H.H.H.H.H.H.B.c     + # $ 1 > & & % + & $.[ H 8 >.$.H.H.H.H.H.H.H.H.H.H.",
"H.H.H.H.H.H.H.H.H.H.H.H.H...w . q w 9 9 X 9 X + * g B.H.%.q.4./ G.H.H.H.H.H.H.H.H.H.",
"H.H.H.H.H.H.H.H.H.H.H.H.H.] - 0 g ] K a r + o O # V F.G.+.5 4.t.G.H.H.H.H.H.H.H.H.H.",
"H.H.H.H.H.H.H.H.H.H.H.H.Z.E 2 , ] G.F.N.' t + X o w T M.M.l 1.E G.G.Z.B.H.H.H.H.H.H.",
"H.H.H.H.H.H.H.H.H.H.H.H./ 8.*.C G.G.H.G.H.H 9   X @ X a M.| s C M.B./ V G.H.H.H.H.H.",
"H.H.H.H.H.H.H.H.H.H.Z.N.0.5.j V.H.H.H.M.T t X   + 9   X c Z.f 3 m C M M.H.H.H.H.H.H.",
"H.H.H.H.H.H.H.H.H.M.R R 5 > ..H.H.N.Y r   X &   +   X 8 <.) f 1.=.` F.H.H.H.H.H.H.H.",
"H.H.H.H.H.H.H.H.M.f * : > { Z.H.] u 0 .     o q : q q -.6.k.s.j X.A.H.H.H.H.H.H.H.H.",
"H.H.H.H.H.H.H.H.h > a V B Z.H.] t .   .   q M ) @.{ U w.g.[.`.N.H.H.H.H.H.H.H.H.H.H.",
"H.H.H.H.H.H.H.H. .I W h R H.} 8 O     q w Y Z.(.x.n.b.n.{..X].`.G.G.G.G.H.H.H.H.H.H.",
"H.H.H.H.H.H.H.H.G.G.#.] B.G.e.4.1 y Y { %.x.b.n._._.'. X XXXl.D F.G.H.G.H.H.H.H.H.H.",
"H.H.H.H.H.H.H.H.G.G.G.G.H.G.e.:.k j.z.c.n.n._.|.|.`.[.f.v.d.4 1.m.H.H.H.H.H.H.H.H.H.",
"H.H.H.H.H.H.H.H.H.H.H.H.H.G.@.s f.[.[.}.XX.X.X_.}.).A n ..w # -.m.H.H.H.H.H.H.H.H.H.",
"H.H.H.H.H.H.H.H.H.H.H.H.H.H.H.V p ].b.`..Xb.l.k l S | B.F.L q ; ^ H.H.H.H.H.H.H.H.H.",
"H.H.H.H.H.H.H.H.H.H.H.H.H.H.G.O.= p k s l U f R o.A.H.H.H.B.x q d M.H.H.H.H.H.H.H.H.",
"H.H.H.H.H.H.H.H.H.H.G.G.G.$.~ M & . q ~ | @.H.H.G.H.H.H.H.G.J , 0.] A.H.H.H.H.H.H.H.",
"H.H.H.H.H.H.H.H.H.H.G.G.G.W b v J P #.B.H.H.H.H.H.H.H.H.G.N.L J S N.G.H.H.H.H.H.H.H.",
"H.H.H.H.H.H.H.H.H.H.H.H.H.H.H.H.H.H.H.H.H.H.H.H.H.H.H.H.H.H.H.H.H.H.H.H.H.H.H.H.H.H.",
"H.H.H.H.H.H.H.H.H.H.H.H.H.H.H.H.H.H.H.H.H.H.H.H.H.H.H.H.H.H.H.H.H.H.H.H.H.H.H.H.H.H."
};
