/* XPM */
static char *result[] = {
/* columns rows colors chars-per-pixel */
"42 42 181 2 ",
"   c #3D1F22",
".  c #3D2022",
"X  c #461E1F",
"o  c #4B1E1D",
"O  c #5C1E17",
"+  c #531E1A",
"@  c #591E18",
"#  c #631E15",
"$  c #6B1E12",
"%  c #4E211E",
"&  c #53221D",
"*  c #5B241C",
"=  c #5B281F",
"-  c #5E321A",
";  c #6A2114",
":  c #6C2A17",
">  c #652418",
",  c #65251A",
"<  c #652B1E",
"1  c #6C2B1B",
"2  c #762B15",
"3  c #7B2A15",
"4  c #712D1B",
"5  c #6B3917",
"6  c #793316",
"7  c #411F21",
"8  c #442122",
"9  c #4B2320",
"0  c #4C2A26",
"q  c #532721",
"w  c #592922",
"e  c #522E28",
"r  c #48322E",
"t  c #53342C",
"y  c #4B3732",
"u  c #4C3F3B",
"i  c #523D34",
"p  c #5E3C30",
"a  c #652F22",
"s  c #643225",
"d  c #6D3324",
"f  c #64372A",
"g  c #6C3C2B",
"h  c #713424",
"j  c #773E28",
"k  c #633F30",
"l  c #7F3E35",
"z  c #4C443D",
"x  c #58483C",
"c  c #6B412F",
"v  c #71412C",
"b  c #7A452C",
"n  c #6E4431",
"m  c #654D3B",
"M  c #6A4B38",
"N  c #7B473A",
"B  c #724C3B",
"V  c #67503C",
"C  c #6E533D",
"Z  c #72513D",
"A  c #795B3E",
"S  c #5D5343",
"D  c #575A4B",
"F  c #5A5E4D",
"G  c #6C5742",
"H  c #625A47",
"J  c #6C5C46",
"K  c #655F4A",
"L  c #715A42",
"P  c #5A604F",
"I  c #5B6552",
"U  c #5E6955",
"Y  c #5F705A",
"T  c #65614C",
"R  c #6C644C",
"E  c #786749",
"W  c #636752",
"Q  c #696852",
"!  c #6E6D53",
"~  c #7A6552",
"^  c #716B52",
"/  c #6E7257",
"(  c #63725B",
")  c #6D765B",
"_  c #66785F",
"`  c #6D795E",
"'  c #717357",
"]  c #757855",
"[  c #72765C",
"{  c #717C5E",
"}  c #667C63",
"|  c #6D7D61",
" . c #707E60",
".. c #8B3416",
"X. c #843619",
"o. c #8B3A1C",
"O. c #923717",
"+. c #943B17",
"@. c #943A18",
"#. c #993F19",
"$. c #854613",
"%. c #9C4218",
"&. c #985119",
"*. c #A5491B",
"=. c #AB4A1B",
"-. c #B54E1C",
";. c #A95A1A",
":. c #B7511C",
">. c #BD541C",
",. c #B55D1D",
"<. c #B66918",
"1. c #8E4724",
"2. c #994D26",
"3. c #9A542B",
"4. c #82433B",
"5. c #8E5A34",
"6. c #A95221",
"7. c #916634",
"8. c #AA6822",
"9. c #C2591C",
"0. c #C3661C",
"q. c #C97E1B",
"w. c #8F4940",
"e. c #805346",
"r. c #975756",
"t. c #8F6D45",
"y. c #966963",
"u. c #9C6E69",
"i. c #9C726D",
"p. c #957E76",
"a. c #9D7876",
"s. c #A3696D",
"d. c #A57376",
"f. c #AA7177",
"g. c #AA787B",
"h. c #678166",
"j. c #6D8265",
"k. c #6C8769",
"l. c #6E8C6D",
"z. c #738262",
"x. c #75836B",
"c. c #718C6C",
"v. c #75936D",
"b. c #7B996A",
"n. c #6E8F70",
"m. c #758D70",
"M. c #6F9372",
"N. c #709574",
"B. c #7B9478",
"V. c #B28835",
"C. c #BDB635",
"Z. c #CE851A",
"A. c #D4951A",
"S. c #DCB617",
"D. c #C09B2D",
"F. c #C6B52C",
"G. c #E3C919",
"H. c #E3D317",
"J. c #E6DE17",
"K. c #CFC127",
"L. c #9D9747",
"P. c #99A34B",
"I. c #8DA25D",
"U. c #A7AD48",
"Y. c #839C64",
"T. c #858674",
"R. c #928174",
"E. c #AF7F84",
"W. c #998A80",
"Q. c #AB8D8B",
"!. c #B28C8E",
"~. c #B58C90",
"^. c #AD9692",
"/. c #B59897",
"(. c #B9969A",
"). c #B99A9C",
"_. c #95A08F",
"`. c #BDA4A5",
"'. c #BFA6A9",
"]. c #C2A9AC",
"[. c #C6B2B5",
/* pixels */
"N.N.N.N.N.N.N.N.N.N.N.N.N.N.N.N.N.N.N.N.N.N.N.N.N.N.N.N.N.N.N.N.N.N.N.N.N.N.N.N.N.N.",
"N.N.N.N.N.N.N.N.N.N.N.N.N.N.N.N.N.N.N.N.N.N.N.N.N.N.N.N.N.N.N.N.N.N.N.N.N.N.N.N.N.N.",
"N.N.N.N.N.N.N.N.M.M.M.M.N.N.N.N.N.N.N.N.N.N.N.N.N.M.M.N.N.N.N.N.N.N.N.N.N.N.N.N.N.N.",
"N.N.N.N.N.N.N.N.M.l.M.n.M.N.N.N.N.N.N.N.N.N.N.N.k.} M.N.N.N.N.N.N.N.N.N.N.N.N.N.N.N.",
"N.N.N.N.N.N.N.N.k.D k.k.k.N.N.N.N.N.N.N.N.N.N.M.I W M.M.N.N.N.N.N.N.N.N.N.N.N.N.N.N.",
"N.N.N.N.N.N.N.N.| R M.k.n.N.N.N.N.N.N.N.N.N.N.N.K } W k.N.N.N.N.N.N.N.N.N.N.N.N.N.N.",
"N.N.N.N.N.N.N.N.M.l.k.S | M.N.N.N.N.N.N.N.N.N.N.c.( } j.N.N.N.N.N.N.N.N.N.N.N.N.N.N.",
"N.N.N.N.N.N.N.N.M.M.I | l.N.N.l.N.N.N.M.n.N.N.M.M.F I M.N.N.N.N.N.N.N.N.N.N.N.N.N.N.",
"N.N.N.N.N.N.N.N.N.P z M.N.N.' ! M.M.| C j.M.N.N.M.Q i k.M.N.N.N.N.N.N.N.N.N.N.N.N.N.",
"N.N.N.N.N.N.N.N.l.u s ` N.^ v c.M.( p ' N.m.N.N.z.g Q M.M.M.N.N.N.N.N.N.N.N.N.N.N.N.",
"N.N.N.N.N.N.N.N.M.m 3 2.[ x Q M.h.r K N.N.N.N.N.t.*.7.z.M.N.N.N.N.N.N.N.N.N.N.N.N.N.",
"N.N.N.N.N.N.N.N.N.7.<.q.Y.z ) M.I t | N.N.N.N.m.V.A.S.L.N.N.N.N.N.N.N.N.N.N.N.N.N.N.",
"N.N.N.N.N.N.N.N.b.D.S.H.U.u _ M.I r ` M.M.N.N.Y.F.J.J.U.N.N.N.N.N.N.N.N.N.N.N.N.N.N.",
"N.N.N.N.N.N.N.N.b.F.J.J.P.u K v.Y 8 m n.M.M.N.N.C.G.K.Y.N.N.N.N.N.N.N.N.N.N.N.N.N.N.",
"N.N.N.N.N.N.N.N.N.I.F.U.v.S % ^ L & w ^ t.R ` l.Y.U.I.N.N.N.N.N.N.N.N.N.N.N.N.N.N.N.",
"N.N.N.N.N.N.N.N.N.N.b.v.M.| i < =.X.* o.-.,.8.3.5.{ N.N.N.N.N.N.N.N.N.N.N.N.N.N.N.N.",
"N.N.N.N.N.N.N.N.N.N.N.N.N.N.T * 2 $ X.=.-.A.G.<.+.X.C n.N.M.N.N.N.N.N.N.N.N.N.N.N.N.",
"N.N.N.N.N.N.N.N.N.N.N.N.v.] 1.* - * : O.-.Z.S...%.Z.&.Z M.M.N.N.N.N.N.N.N.N.N.N.N.N.",
"N.N.N.N.N.N.N.N.N.N.N.N.{ 8.0.4 + 6 $.: =.>.9...<.S.q.3 V l.N.N.N.N.N.N.N.N.N.N.N.N.",
"N.N.N.N.N.N.N.N.N.N.M.M.E %...: X 5 - ; ..>.:.; > 6 @.2 &.A M.M.N.N.N.N.N.N.N.N.N.N.",
"N.N.N.N.N.N.N.N.N.N.N.N.n * + $ @ o # ..-.9.+.o 7 . + +.A.;.) M.N.N.N.N.N.N.N.N.N.N.",
"N.N.N.N.N.N.N.N.N.N.N.M.m 8 X $ $ $ 3 :.9.+.* O # 0 i < ..+.b j.N.N.N.N.N.N.N.N.N.N.",
"N.N.N.N.N.N.N.N.N.N.N.N.z.w   o # $ 3 6 3 % O + # i n.U i 4 =.b N.N.N.N.N.N.N.N.N.N.",
"N.N.N.N.N.N.N.N.N.N.N.N.c.k .   o o X X o X + o @ K N.M.l.b >.2.k.N.N.N.N.N.N.N.N.N.",
"N.N.N.N.N.N.N.N.N.N.N.N.l.g % 8 J S t e + o O # 1 _ N.N.N.C O.6.' N.N.N.N.N.N.N.N.N.",
"N.N.N.N.N.N.N.N.N.N.N.N.c.c * t k.M.k.h.S w + 7 % t R c.v.` h o.^ N.v.` J M.N.N.N.N.",
"N.N.N.N.N.N.N.N.M.N.N.c.E ;.3 C M.M.N.m.l.i 7 7 + + 8 H c.N.R ; d ^ M a W N.N.N.N.N.",
"N.N.N.N.N.N.N.N.z.G z.J *.;.v k.N.N.N.| J * 7 7 @   . 8 K N.{ 4 ..o.k ( N.N.N.N.N.N.",
"N.N.N.N.N.N.N.k.d * : ; 2 B z.N.m.! k = 9 7 7 7 @   7 ..1.) { 1 @.j ` N.N.N.N.N.N.N.",
"N.N.N.N.N.N.k.c < z k 1 J c.N.N.R = 7     7 + 9 , 9 9 =.+.N W.y.C k.N.N.N.N.N.N.N.N.",
"N.N.N.N.N.M.v.H F W d R N.N.k.R w       8 e m ! / R B 4.r.s.~.^.B.N.N.N.N.N.N.N.N.N.",
"N.N.N.N.N.M.M.M.M._ ) M.M.{ b , 8   8 e K | m.T.p.a.d.f.E.).].`.R.M.N.N.N.N.N.N.N.N.",
"N.N.N.N.N.N.N.N.N.N.N.N.N.E :.3 , m W  .T.p.a.f.g.E.~.(.(./.`.g.! M.M.M.N.N.N.N.N.N.",
"N.N.N.N.N.N.N.N.N.N.N.N.N.] #.; h m.p.a.f.g.f.!.`.[.!.!.4.4.l 3.M.M.N.N.N.N.N.N.N.N.",
"N.N.N.N.N.N.N.N.N.N.N.N.N.' 1 # w [ Q.(.(.].'.`.u.y.i.L s 9 $ 2.N.N.N.N.N.N.N.N.N.N.",
"N.N.N.N.N.N.N.N.N.N.N.N.N.c.R a 7 x _./.u.!.).w.4.h R | n.z + 1 [ N.N.N.N.N.N.N.N.N.",
"N.N.N.N.N.N.N.N.N.N.N.N.N.N.c.R w 0  .~ h h e.G R  .m.N.N.} r q c c.N.N.N.N.N.N.N.N.",
"N.N.N.N.N.N.N.N.N.N.N.N.n.( V f 7   D x.)  .[ M.N.N.N.N.N.k.y h j z.N.N.N.N.N.N.N.N.",
"N.N.N.N.N.N.N.N.N.N.N.N.n.I K P P U k.N.m.N.N.N.N.N.N.N.N.h.P I / v.M.N.N.N.N.N.N.N.",
"N.N.N.N.N.N.N.N.N.N.N.N.N.N.N.N.N.N.N.N.N.N.N.N.N.N.N.N.N.N.N.N.N.N.M.M.N.N.N.N.N.N.",
"N.N.N.N.N.N.N.N.N.N.N.N.N.N.N.N.N.N.N.N.N.N.N.N.N.N.N.N.N.N.N.N.N.N.N.N.N.N.N.N.N.N.",
"N.N.N.N.N.N.N.N.N.N.N.N.N.N.N.N.N.N.N.N.N.N.N.N.N.N.N.N.N.N.N.N.N.N.N.N.N.N.N.N.N.N."
};
