/* XPM */
static char *result[] = {
/* columns rows colors chars-per-pixel */
"42 42 125 2 ",
"   c #090603",
".  c #0C0E0A",
"X  c #13120D",
"o  c #1C120A",
"O  c #151711",
"+  c #1A1717",
"@  c #1E1B12",
"#  c #23160D",
"$  c #271C12",
"%  c #2A1D14",
"&  c #301F13",
"*  c #1D251C",
"=  c #282116",
"-  c #22261D",
";  c #282318",
":  c #352315",
">  c #3C2617",
",  c #3D2718",
"<  c #37291A",
"1  c #3E2A19",
"2  c #131B23",
"3  c #0D1B30",
"4  c #1E2823",
"5  c #232C24",
"6  c #243026",
"7  c #293327",
"8  c #29362A",
"9  c #2D3B2E",
"0  c #293733",
"q  c #3C3536",
"w  c #3F3837",
"e  c #452D1B",
"r  c #492E1C",
"t  c #4C321E",
"y  c #50341F",
"u  c #4B382C",
"i  c #533621",
"p  c #563923",
"a  c #583A25",
"s  c #503A2B",
"d  c #5E3F29",
"f  c #423939",
"g  c #513E32",
"h  c #344436",
"j  c #3E4333",
"k  c #33433A",
"l  c #3E473B",
"z  c #374939",
"x  c #3C4C3C",
"c  c #42493B",
"v  c #554536",
"b  c #5B473C",
"n  c #674531",
"m  c #684731",
"M  c #6D4C35",
"N  c #644C3A",
"B  c #6C513C",
"V  c #765239",
"C  c #7A563C",
"Z  c #29384D",
"A  c #1A3B73",
"S  c #3A4C42",
"D  c #3E5147",
"F  c #465D4E",
"G  c #5A5244",
"H  c #454C5E",
"J  c #494B5A",
"K  c #485F50",
"L  c #644F44",
"P  c #615148",
"I  c #65594A",
"U  c #7E5C45",
"Y  c #4E664F",
"T  c #496151",
"R  c #4F6856",
"E  c #516C58",
"W  c #58755D",
"Q  c #5B7A5E",
"!  c #706453",
"~  c #5E7D62",
"^  c #825F49",
"/  c #84614B",
"(  c #86694F",
")  c #966B52",
"_  c #8A745F",
"`  c #A07256",
"'  c #A67659",
"]  c #AC7B5D",
"[  c #937D67",
"{  c #8F7A76",
"}  c #907C7A",
"|  c #628267",
" . c #658669",
".. c #67896A",
"X. c #6A8D6D",
"o. c #6E9372",
"O. c #709574",
"+. c #958471",
"@. c #9D8B76",
"#. c #AE8366",
"$. c #A78468",
"%. c #B08567",
"&. c #B38D6F",
"*. c #AB967D",
"=. c #B69376",
"-. c #1D4384",
";. c #275AA5",
":. c #2D61AD",
">. c #3B66A3",
",. c #3062AB",
"<. c #65769A",
"1. c #787B90",
"2. c #7D8A9C",
"3. c #7E90AF",
"4. c #7C90B2",
"5. c #858E9B",
"6. c #888C9E",
"7. c #A79985",
"8. c #B59E82",
"9. c #B6A186",
"0. c #B9A386",
"q. c #BBA68A",
"w. c #BFA98D",
"e. c #878DA1",
"r. c #C1AC8F",
/* pixels */
"O.O.O.O.O.O.O.O.O.O.O.O.O.O.O.O.O.O.O.O.O.O.O.O.O.O.O.O.O.O.O.O.O.O.O.O.O.O.O.O.O.O.",
"O.O.O.O.O.O.O.O.O.O.O.O.O.O.O.O.O.O.O.O.O.O.O.O.O.O.O.O.O.O.O.O.O.O.O.O.O.O.O.O.O.O.",
"O.O.O.O.O.O.O.O.O.O.O.O.O.O.O.O.O.O.O.O.O.O.O.O.O.O.O.O.O.O.O.O.O.O.O.O.O.O.O.O.O.O.",
"O.O.O.O.O.O.O.O.O.O.O.O.O.O.O.O.O.O.O.O.O.O.O.O.O.O.O.O.O.O.O.O.O.O.O.O.O.O.O.O.O.O.",
"O.O.O.O.O.O.O.O.O.O.O.O.O.O.O.O.O.O.O.O.O.O.O.O.O.O.O.O.O.O.O.O.O.O.O.O.O.O.O.O.O.O.",
"O.O.O.O.O.O.O.O.O.O.O.O.O.O.O.O.O.O.O.O.O.O.O.O.O.O.O.O.O.O.O.O.O.O.O.O.O.O.O.O.O.O.",
"O.O.O.O.O.O.O.O.O.O.O.O.O.O.O.O.O.O.O.O.O.O.O.O.O.O.O.O.O.O.O.O.O.O.O.O.O.O.O.O.O.O.",
"O.O.O.O.O.O.O.O.O.O.O.O.O.O.O.O.O.O.O.O.O.O.O.O.O.O.O.O.O.O.O.O.O.O.O.O.O.O.O.O.O.O.",
"O.O.O.O.O.O.O.O.O.O.O.O.O.O.O.O.O.O.O.O.O.O.O.O.O.O.O.O.O.O.O.O.O.O.O.O.O.O.O.O.O.O.",
"O.O.O.O.O.O.O.O.O.O.O.O.O.O.O.O.O.O.O.O.O.O.O.O.O.O.O.O.O.O.O.O.O.O.O.O.O.O.O.O.O.O.",
"O.O.O.O.O.O.O.O.O.O.O.O.O.O.O.O.O.O.O.O.O.O.O.O.O.O.O.O.O.O.O.O.O.O.O.O.O.O.O.O.O.O.",
"O.O.O.O.O.O.O.O.O.O.O.O.O.O.O.O.O.O.O.O.O.O.O.O.O.O.O.O.O.O.O.O.O.O.O.O.O.O.O.O.O.O.",
"O.O.O.O.O.O.O.O.O.O.O.O.O.O.O.O.O.O.O.O.O.O.O.O.O.O.O.O.O.O.O.O.O.O.O.O.O.O.O.O.O.O.",
"O.O.O.O.O.O.O.O.O.O.O.O.O.O.O.O.O.O.O.O.O.O.O.O.O.O.O.O.O.O.O.O.O.O.O.O.O.O.O.O.O.O.",
"O.O.O.O.O.O.O.O.O.O.O.O.O.O.O.O.O.O.O.O.O.O.O.O.O.O.O.O.O.O.O.O.O.O.O.O.O.O.O.O.O.O.",
"O.O.O.O.O.O.O.O.O.O.O.O.O.O.O.O.O.O.O.O.O.O.O.O.O.O.O.O.O.O.O.O.O.O.O.O.O.O.O.O.O.O.",
"O.O.O.O.O.O.O.O.O.O.O.O.O.O.O.O. .W Q W Q X.| Q ..O.O.O.O.O.O.O.O.O.O.O.O.O.O.O.O.O.",
"O.O.O.O.O.O.O.O.O.O.O.O.O.O.O.O.z . X X * Y -   x | ..O.O.O.O.O.O.O.O.O.O.O.O.O.O.O.",
"O.O.O.O.O.O.O.O.O.O.O.O.O.O.O.O.h o r t : @ e o X O h ..o.O.O.O.O.O.O.O.O.O.O.O.O.O.",
"O.O.O.O.O.O.O.O.O.O.O.O.O.O.O.o.h   $ y t > t y e 1 $ h o.O.O.O.O.O.O.O.O.O.O.O.O.O.",
"O.O.O.O.O.O.O.O.O.O.O.O.O.O.O.x = : t y p y a a d y & 6 o.O.O.O.O.O.O.O.O.O.O.O.O.O.",
"O.O.O.O.O.O.O.O.O.O.O.O.O.o.x ; , y p y p t y p p y e = z X.O.O.O.O.O.O.O.O.O.O.O.O.",
"O.O.O.O.O.O.O.O.O.O.O.O.O.X.* : y p p t t e e y p p y : * ..O.O.O.O.O.O.O.O.O.O.O.O.",
"O.O.O.O.O.O.O.O.O.O.O.O.O.X.* : p p y t m M m V m y y : * ..O.O.O.O.O.O.O.O.O.O.O.O.",
"O.O.O.O.O.O.O.O.O.O.O.O.O.X.* : a i i M ' ] ] ] C y y 1 * ..O.O.O.O.O.O.O.O.O.O.O.O.",
"O.O.O.O.O.O.O.O.O.O.O.O.o.o.* : i a n ) #.%.%.) ` V e < 7 ..O.O.O.O.O.O.O.O.O.O.O.O.",
"O.O.O.O.O.O.O.O.O.O.O.O.O.o.8 % r C U u 8.w.0.g U / < 5 ..O.O.O.O.O.O.O.O.O.O.O.O.O.",
"O.O.O.O.O.O.O.O.O.O.O.O.O.o. .7 : ( [ v 9.r.q.v _ =.I 5 o.O.O.O.O.O.O.O.O.O.O.O.O.O.",
"O.O.O.O.O.O.O.O.O.O.O.O.O.O.O.9 s $.9.*.w.r.r.*.*.&.N 5 o.O.O.O.O.O.O.O.O.O.O.O.O.O.",
"O.O.O.O.O.O.O.O.O.O.O.O.O.O.O.~ j N =.r.r.r.r.r.=.B j | O.O.O.O.O.O.O.O.O.O.O.O.O.O.",
"O.O.O.O.O.O.O.O.O.O.O.O.O.O.O.O.h $ U &.&.&.&.&.( : 8 o.O.O.O.O.O.O.O.O.O.O.O.O.O.O.",
"O.O.O.O.O.O.O.O.O.O.O.O.O.O.O.O.h o i ^ { } [ / v o h O.O.O.O.O.O.O.O.O.O.O.O.O.O.O.",
"O.O.O.O.O.O.O.O.O.O.O.O.O.O.O.O.z o t b 1.e.6.L t # 9 O.O.O.O.O.O.O.O.O.O.O.O.O.O.O.",
"O.O.O.O.O.O.O.O.O.O.O.O.O.O.O.Q c v B b <.4.3.P B v c W o.O.O.O.O.O.O.O.O.O.O.O.O.O.",
"O.O.O.O.O.O.O.O.O.O.O.O.O.o.O.9 I w.@.J ,.:.:.H +.w.! 6 o.O.O.O.O.O.O.O.O.O.O.O.O.O.",
"O.O.O.O.O.O.O.O.O.O.O.O.O.o.o.h G 7.5.,.;.-.;.:.2.7.I 7 o.O.O.O.O.O.O.O.O.O.O.O.O.O.",
"O.O.O.O.O.O.O.O.O.O.O.O.O.o.o.T 6 Z >.;.A 3 A ;.>.S 5 F X.o.O.O.O.O.O.O.O.O.O.O.O.O.",
"O.O.O.O.O.O.O.O.O.O.O.O.O.o.E D 4 + w w 2 0 + q f 2 4 D R o.O.O.O.O.O.O.O.O.O.O.O.O.",
"O.O.O.O.O.O.O.O.O.O.O.O.O.o.T D k w l S 0 D k S S q k D F o.o.O.O.O.O.O.O.O.O.O.O.O.",
"O.O.O.O.O.O.O.O.O.O.O.O.O.o. .T D D D D D D D D D D D K ~ O.O.O.O.O.O.O.O.O.O.O.O.O.",
"O.O.O.O.O.O.O.O.O.O.O.O.O.O.O.| ~ ~ E ~ ~ E ~ E W ~ W | o.O.O.O.O.O.O.O.O.O.O.O.O.O.",
"O.O.O.O.O.O.O.O.O.O.O.O.O.O.O.o.o.o.o.O.o.o.O.O.o.O.o.O.O.O.O.O.O.O.O.O.O.O.O.O.O.O."
};
