/* XPM */
static char *_a6fda0055ef42f29759550d477e1282EV3p8OMBrcS85Bov[] = {
/* columns rows colors chars-per-pixel */
"42 42 150 2 ",
"   c #0D0906",
".  c #0D0C0B",
"X  c #130D09",
"o  c #0D120E",
"O  c #17120D",
"+  c #1C130B",
"@  c #151A14",
"#  c #24170E",
"$  c #25180F",
"%  c #241B13",
"&  c #2C1C11",
"*  c #311F13",
"=  c #182119",
"-  c #272116",
";  c #292016",
":  c #29251A",
">  c #322114",
",  c #3B2516",
"<  c #35281A",
"1  c #0B182D",
"2  c #111D2D",
"3  c #222A23",
"4  c #22272C",
"5  c #232C2A",
"6  c #3C2E23",
"7  c #263227",
"8  c #293024",
"9  c #25312E",
"0  c #2B362D",
"q  c #2C3A2D",
"w  c #313527",
"e  c #36362B",
"r  c #3C362B",
"t  c #3C382D",
"y  c #2E3D30",
"u  c #2B303F",
"i  c #323F30",
"p  c #31323E",
"a  c #452C1A",
"s  c #482E1B",
"d  c #4D321E",
"f  c #50341F",
"g  c #4F3321",
"h  c #463529",
"j  c #4B362A",
"k  c #40392F",
"l  c #533621",
"z  c #563923",
"x  c #533B2F",
"c  c #5E3F28",
"v  c #433E34",
"b  c #603F2B",
"n  c #324234",
"m  c #324139",
"M  c #37493C",
"N  c #3A4C3A",
"B  c #474131",
"V  c #484134",
"C  c #454C3D",
"Z  c #66462E",
"A  c #654533",
"S  c #694730",
"D  c #6A4C36",
"F  c #6C5138",
"G  c #74533C",
"H  c #7B553D",
"J  c #2D3241",
"K  c #323340",
"L  c #18366C",
"P  c #193972",
"I  c #3E5147",
"U  c #3B557F",
"Y  c #44434F",
"T  c #465240",
"R  c #42574B",
"E  c #445A4B",
"W  c #665345",
"Q  c #6C5949",
"!  c #775E49",
"~  c #6A5B59",
"^  c #4A634D",
"/  c #4B6352",
"(  c #4E6851",
")  c #506A57",
"_  c #526D59",
"`  c #55725A",
"'  c #5B795E",
"]  c #756554",
"[  c #7C6856",
"{  c #74655F",
"}  c #515362",
"|  c #5A5861",
" . c #5E7E62",
".. c #6C6667",
"X. c #716B6A",
"o. c #607F63",
"O. c #885F45",
"+. c #80624E",
"@. c #8C6248",
"#. c #856751",
"$. c #986B50",
"%. c #8C765D",
"&. c #9A725A",
"*. c #A17256",
"=. c #A57558",
"-. c #AC7C5E",
";. c #9E7B60",
":. c #9E7B6C",
">. c #A17C61",
",. c #628366",
"<. c #658669",
"1. c #67896B",
"2. c #6A8C6E",
"3. c #6C8F70",
"4. c #6E9372",
"5. c #709574",
"6. c #9C8C77",
"7. c #9F907A",
"8. c #A48165",
"9. c #AC967B",
"0. c #B79476",
"q. c #B49C7F",
"w. c #B9997B",
"e. c #1C4080",
"r. c #3A5683",
"t. c #26559E",
"y. c #3B5E91",
"u. c #3C6094",
"i. c #2657A2",
"p. c #275BA8",
"a. c #2B61AF",
"s. c #3566AC",
"d. c #2B62B2",
"f. c #7D7F93",
"g. c #5778A7",
"h. c #5175AA",
"j. c #5C7FB4",
"k. c #5E81B5",
"l. c #818396",
"z. c #80869D",
"x. c #B39E83",
"c. c #BA9F82",
"v. c #A29B92",
"b. c #B6A186",
"n. c #BBA184",
"m. c #BAA589",
"M. c #BDA88D",
"N. c #989DAD",
"B. c #9BA0AF",
"V. c #C1AC8F",
/* pixels */
"5.5.5.5.5.5.5.5.5.5.5.5.5.5.5.5.5.5.5.5.5.5.5.5.5.5.5.5.5.5.5.5.5.5.5.5.5.5.5.5.5.5.",
"5.5.5.5.5.5.5.5.5.5.5.5.5.5.5.5.5.5.5.5.5.5.5.5.5.5.5.5.5.5.5.5.5.5.5.5.5.5.5.5.5.5.",
"5.5.5.5.5.5.5.5.5.5.5.5.5.5.5.5.5.5.5.5.5.5.5.5.5.5.5.5.5.5.5.5.5.5.5.5.5.5.5.5.5.5.",
"5.5.5.5.5.5.5.5.5.5.5.5.5.5.5.5.5.5.5.5.5.5.5.5.5.5.5.5.5.5.5.5.5.5.5.5.5.5.5.5.5.5.",
"5.5.5.5.5.5.5.5.5.5.5.5.5.5.5.5.5.5.5.5.5.5.5.5.5.5.5.5.5.5.5.5.5.5.5.5.5.5.5.5.5.5.",
"5.5.5.5.5.5.5.5.5.5.5.5.5.5.5.5.5.5.5.5.5.5.5.5.5.5.5.5.5.5.5.5.5.5.5.5.5.5.5.5.5.5.",
"5.5.5.5.5.5.5.5.5.5.5.5.5.5.5.5.5.5.5.5.5.5.5.5.5.5.5.5.5.5.5.5.5.5.5.5.5.5.5.5.5.5.",
"5.5.5.5.5.5.5.5.5.5.5.5.5.5.5.5.5.5.5.5.5.5.5.5.5.5.5.5.5.5.5.5.5.5.5.5.5.5.5.5.5.5.",
"5.5.5.5.5.5.5.5.5.5.5.5.5.5.5.5.5.5.5.5.5.5.5.5.5.5.5.5.5.5.5.5.5.5.5.5.5.5.5.5.5.5.",
"5.5.5.5.5.5.5.5.5.5.5.5.5.5.5.5.5.5.5.5.5.5.5.5.5.5.5.5.5.5.5.5.5.5.5.5.5.5.5.5.5.5.",
"5.5.5.5.5.5.5.5.5.5.5.5.5.5.5.5.5.5.5.5.5.5.5.5.5.5.5.5.5.5.5.5.5.5.5.5.5.5.5.5.5.5.",
"5.5.5.5.5.5.5.5.5.5.5.5.5.5.5.5.5.5.5.5.5.5.5.5.5.5.5.5.5.5.5.5.5.5.5.5.5.5.5.5.5.5.",
"5.5.5.5.5.5.5.5.5.5.5.5.5.5.5.2.o. . . .,.4.,. .<.4.5.5.5.5.5.5.5.5.5.5.5.5.5.5.5.5.",
"5.5.5.5.5.5.5.5.5.5.5.5.5.5.5.^ @ @ @ @ 0 ' 7 @ n 1.4.4.5.5.5.5.5.5.5.5.5.5.5.5.5.5.",
"5.5.5.5.5.5.5.5.5.5.5.5.5.5.5.E   > , * ; 8 < O o 7 q ` 5.5.5.5.5.5.5.5.5.5.5.5.5.5.",
"5.5.5.5.5.5.5.5.5.5.5.5.5.5.5.E   & d f , # d , $ # + i ` 5.5.5.5.5.5.5.5.5.5.5.5.5.",
"5.5.5.5.5.5.5.5.5.5.5.5.5.4.,.N   X a z l s l z z l a X n 5.5.5.5.5.5.5.5.5.5.5.5.5.",
"5.5.5.5.5.5.5.5.5.5.5.5.4.1.n % , d z z z l z z z z l + i 1.4.5.5.5.5.5.5.5.5.5.5.5.",
"5.5.5.5.5.5.5.5.5.5.5.5.<.q ; , l z z z l s l z z z z , - y 1.5.5.5.5.5.5.5.5.5.5.5.",
"5.5.5.5.5.5.5.5.5.5.5.5.,.@ & f z z d d s a s l z z z d & = <.5.5.5.5.5.5.5.5.5.5.5.",
"5.5.5.5.5.5.5.5.5.5.5.5.,.@ > z z z a g b b b S Z l z z > = <.5.5.5.5.5.5.5.5.5.5.5.",
"5.5.5.5.5.5.5.5.5.5.5.5.,.@ > z z l g G =.=.=.=.O.l l z > = <.5.5.5.5.5.5.5.5.5.5.5.",
"5.5.5.5.5.5.5.5.5.5.5.5.,.@ > z l d H *.-.-.-.-.=.@.l d > = <.5.5.5.5.5.5.5.5.5.5.5.",
"5.5.5.5.5.5.5.5.5.5.5.5.,.@ & d c H A #.w.w.w.+.G $.g & w ( 2.5.5.5.5.5.5.5.5.5.5.5.",
"5.5.5.5.5.5.5.5.5.5.5.5.1.N : , Z ;.j Q V.V.V.W x 8.! % n 5.5.5.5.5.5.5.5.5.5.5.5.5.",
"5.5.5.5.5.5.5.5.5.5.5.5.4.4.q % G 9.W [ V.V.V.] Q m.q.r n 5.5.5.5.5.5.5.5.5.5.5.5.5.",
"5.5.5.5.5.5.5.5.5.5.5.5.5.4.n 6 &.c.x.b.V.V.V.b.x.n.>.6 M 5.5.5.5.5.5.5.5.5.5.5.5.5.",
"5.5.5.5.5.5.5.5.5.5.5.5.5.4. .C h >.n.V.V.V.V.V.c.;.h T  .5.5.5.5.5.5.5.5.5.5.5.5.5.",
"5.5.5.5.5.5.5.5.5.5.5.5.5.5.5.E O D 8.0.0.0.0.0.>.A O ^ 5.5.5.5.5.5.5.5.5.5.5.5.5.5.",
"5.5.5.5.5.5.5.5.5.5.5.5.5.5.5.E   , H &.:.:.:.&.G , . ^ 5.5.5.5.5.5.5.5.5.5.5.5.5.5.",
"5.5.5.5.5.5.5.5.5.5.5.5.5.5.5.E   , z ~ f.l.l.~ l , . ^ 5.5.5.5.5.5.5.5.5.5.5.5.5.5.",
"5.5.5.5.5.5.5.5.5.5.5.5.5.5.5.E X s z ~ z.N.B.{ z a X ^ 5.5.5.5.5.5.5.5.5.5.5.5.5.5.",
"5.5.5.5.5.5.5.5.5.5.5.5.5.4.^ C ] %.D } h.j.k.| F %.] C ^ 5.5.5.5.5.5.5.5.5.5.5.5.5.",
"5.5.5.5.5.5.5.5.5.5.5.5.5.4.q V M.m...r.d.p.d.U X.M.m.k n 5.5.5.5.5.5.5.5.5.5.5.5.5.",
"5.5.5.5.5.5.5.5.5.5.5.5.5.4.n v 7.v.h.a.t.e.i.a.g.v.6.t M 5.5.5.5.5.5.5.5.5.5.5.5.5.",
"5.5.5.5.5.5.5.5.5.5.5.5.4.4./ 0 4 u.s.t.L 1 P t.s.y.4 0 ( 4.4.5.5.5.5.5.5.5.5.5.5.5.",
"5.5.5.5.5.5.5.5.5.5.5.5.3._ E 9 . K Y u 2 9 2 J Y p . 0 E ` 4.5.5.5.5.5.5.5.5.5.5.5.",
"5.5.5.5.5.5.5.5.5.5.5.5.2.E I m 3 t B e 5 M 5 e B r 3 m I / 2.5.5.5.5.5.5.5.5.5.5.5.",
"5.5.5.5.5.5.5.5.5.5.5.5.2.) R I I I I I I I I I I I I I R _ 3.5.5.5.5.5.5.5.5.5.5.5.",
"5.5.5.5.5.5.5.5.5.5.5.5.4.3._ R R R R R R R R R R R R R ` 3.4.5.5.5.5.5.5.5.5.5.5.5.",
"5.5.5.5.5.5.5.5.5.5.5.5.5.5.1.<.<.<.<.<.<.<.<.<.<.<.<.<.2.5.5.5.5.5.5.5.5.5.5.5.5.5.",
"5.5.5.5.5.5.5.5.5.5.5.5.5.5.5.5.5.5.5.5.5.5.5.5.5.5.5.5.5.5.5.5.5.5.5.5.5.5.5.5.5.5."
};
