/* XPM */
static char *result[] = {
/* columns rows colors chars-per-pixel */
"42 42 140 2 ",
"   c #0C0805",
".  c #0E0E0A",
"X  c #130C07",
"o  c #130D09",
"O  c #190F09",
"+  c #12120E",
"@  c #1B130C",
"#  c #0B0F10",
"$  c #121611",
"%  c #151916",
"&  c #1C1A13",
"*  c #171F18",
"=  c #21160D",
"-  c #2C1B0F",
";  c #251E14",
":  c #2B1D12",
">  c #231F19",
",  c #1B221B",
"<  c #332215",
"1  c #3D2617",
"2  c #37291A",
"3  c #3C2818",
"4  c #111A29",
"5  c #162026",
"6  c #14243C",
"7  c #222D25",
"8  c #2A2B23",
"9  c #283125",
"0  c #2C332B",
"q  c #2D3C2E",
"w  c #323C2E",
"e  c #452C1A",
"r  c #4A2F1D",
"t  c #4D321E",
"y  c #51341F",
"u  c #432D23",
"i  c #423326",
"p  c #4C3A2D",
"a  c #563923",
"s  c #5B3D27",
"d  c #304132",
"f  c #384032",
"g  c #35443C",
"h  c #37483A",
"j  c #3A4B3D",
"k  c #3F503E",
"l  c #5F452F",
"z  c #474938",
"x  c #63422D",
"c  c #694A35",
"v  c #644D3D",
"b  c #6A4E3A",
"n  c #704D37",
"m  c #74533C",
"M  c #11264C",
"N  c #162D54",
"B  c #233654",
"V  c #19396F",
"C  c #3C4C42",
"Z  c #3E5146",
"A  c #3F5348",
"S  c #324B76",
"D  c #38527C",
"F  c #404D41",
"G  c #5A4941",
"H  c #445A46",
"J  c #455B4B",
"K  c #5C5546",
"L  c #5E5048",
"P  c #494853",
"I  c #655949",
"U  c #745747",
"Y  c #7E5941",
"T  c #4B644D",
"R  c #536C55",
"E  c #526D59",
"W  c #557157",
"Q  c #55715C",
"!  c #59765D",
"~  c #5B795E",
"^  c #76624F",
"/  c #78614B",
"(  c #6D6150",
")  c #5D7C61",
"_  c #7E6C6A",
"`  c #7B7479",
"'  c #855D44",
"]  c #8A6147",
"[  c #82644E",
"{  c #8F684D",
"}  c #92664C",
"|  c #8F775C",
" . c #977055",
".. c #9A7155",
"X. c #A67659",
"o. c #AC7B5D",
"O. c #837467",
"+. c #8C7963",
"@. c #9F7F66",
"#. c #AA7E62",
"$. c #638466",
"%. c #658669",
"&. c #67886B",
"*. c #698B6D",
"=. c #6B8E70",
"-. c #6E9372",
";. c #709574",
":. c #94836D",
">. c #9E8368",
",. c #AA8167",
"<. c #AC8669",
"1. c #B28A6C",
"2. c #A58D73",
"3. c #A6937A",
"4. c #AD987E",
"5. c #B09579",
"6. c #B8977A",
"7. c #B4997D",
"8. c #3D5A85",
"9. c #224E96",
"0. c #2658A5",
"q. c #325FA0",
"w. c #2B61AD",
"e. c #3966A6",
"r. c #2C65B5",
"t. c #3367B1",
"y. c #767889",
"u. c #657496",
"i. c #436BA5",
"p. c #867D87",
"a. c #7C8FB0",
"s. c #A89A87",
"d. c #B39D82",
"f. c #B7A286",
"g. c #BDA385",
"h. c #BDA88B",
"j. c #898EA2",
"k. c #8E93A6",
"l. c #8396B5",
"z. c #C1AC8F",
/* pixels */
";.;.;.;.;.;.;.;.;.;.;.;.;.;.;.;.;.;.;.;.;.;.;.;.;.;.;.;.;.;.;.;.;.;.;.;.;.;.;.;.;.;.",
";.;.;.;.;.;.;.;.;.;.;.;.;.;.;.;.;.;.;.;.;.;.;.;.;.;.;.;.;.;.;.;.;.;.;.;.;.;.;.;.;.;.",
";.;.;.;.;.;.;.;.;.;.;.;.;.;.;.;.;.;.;.;.;.;.;.;.;.;.;.;.;.;.;.;.;.;.;.;.;.;.;.;.;.;.",
";.;.;.;.;.;.;.;.;.;.;.;.;.;.;.;.;.;.;.;.;.;.;.;.;.;.;.;.;.;.;.;.;.;.;.;.;.;.;.;.;.;.",
";.;.;.;.;.;.;.;.;.;.;.;.;.;.;.;.;.;.;.;.;.;.;.;.;.;.;.;.;.;.;.;.;.;.;.;.;.;.;.;.;.;.",
";.;.;.;.;.;.;.;.;.;.;.;.;.;.;.;.;.;.;.;.;.;.;.;.;.;.;.;.;.;.;.;.;.;.;.;.;.;.;.;.;.;.",
";.;.;.;.;.;.;.;.;.;.;.;.;.;.;.;.;.;.;.;.;.;.;.;.;.;.;.;.;.;.;.;.;.;.;.;.;.;.;.;.;.;.",
";.;.;.;.;.;.;.;.;.;.;.;.;.;.;.;.;.;.;.;.;.;.;.;.;.;.;.;.;.;.;.;.;.;.;.;.;.;.;.;.;.;.",
";.;.;.;.;.;.;.;.;.;.;.;.;.;.;.;.;.;.;.;.;.;.;.;.;.;.;.;.;.;.;.;.;.;.;.;.;.;.;.;.;.;.",
";.;.;.;.;.;.;.;.;.;.;.;.;.;.;.;.;.;.;.;.;.;.;.;.;.;.;.;.;.;.;.;.;.;.;.;.;.;.;.;.;.;.",
";.;.;.;.;.;.;.;.;.;.;.;.;.;.;.;.;.;.;.;.;.;.;.;.;.;.;.;.;.;.;.;.;.;.;.;.;.;.;.;.;.;.",
";.;.;.;.;.;.;.;.;.;.;.;.;.;.;.;.;.;.;.;.;.;.;.;.;.;.;.;.;.;.;.;.;.;.;.;.;.;.;.;.;.;.",
";.;.;.;.;.;.;.;.;.;.;.;.;.;.;.;.;.-.;.;.;.;.;.;.;.;.;.;.;.;.;.;.;.;.;.;.;.;.;.;.;.;.",
";.;.;.;.;.;.;.;.;.;.;.;.;.;.;.&.k d d d h $.T d j &.;.;.;.;.;.;.;.;.;.;.;.;.;.;.;.;.",
";.;.;.;.;.;.;.;.;.;.;.;.;.;.;.~ $ o @ O @ k 0 X . k T ! ;.;.;.;.;.;.;.;.;.;.;.;.;.;.",
";.;.;.;.;.;.;.;.;.;.;.;.;.;.;.) $ < t t 1 @ < 3 X + . w $.-.;.;.;.;.;.;.;.;.;.;.;.;.",
";.;.;.;.;.;.;.;.;.;.;.;.;.;.-.! $   < y y e r y t t 3 ; 9 $.;.;.;.;.;.;.;.;.;.;.;.;.",
";.;.;.;.;.;.;.;.;.;.;.;.;.-.W 9 : < e l y y y a a y y - , $.;.;.;.;.;.;.;.;.;.;.;.;.",
";.;.;.;.;.;.;.;.;.;.;.;.-.W w = e y y y y y y s a a a e ; k $.;.;.;.;.;.;.;.;.;.;.;.",
";.;.;.;.;.;.;.;.;.;.;.;.-.q O t y l a y y e t y a s a y < + W ;.;.;.;.;.;.;.;.;.;.;.",
";.;.;.;.;.;.;.;.;.;.;.;.;.q @ y y s t e r r r y s a a a e + W ;.;.;.;.;.;.;.;.;.;.;.",
";.;.;.;.;.;.;.;.;.;.;.;.-.q = a a a t y ] } } } ] y y y e $ W ;.;.;.;.;.;.;.;.;.;.;.",
";.;.;.;.;.;.;.;.;.;.;.;.;.q @ a y t x ' X.o.o.,.X.Y l y e + W ;.;.;.;.;.;.;.;.;.;.;.",
";.;.;.;.;.;.;.;.;.;.;.;.-.q @ t s x n { <.1.1.X.] X.x 3 2 9 $.;.;.;.;.;.;.;.;.;.;.;.",
";.;.;.;.;.;.;.;.;.;.;.;.-.h & 3 a { b p 7.z.z.+.e  .n < , $.=.-.;.;.;.;.;.;.;.;.;.;.",
";.;.;.;.;.;.;.;.;.;.;.;.;.$.k @ a >.^ p f.z.z.+.i 2.5.I , $.;.-.;.;.;.;.;.;.;.;.;.;.",
";.;.;.;.;.;.;.;.;.;.;.;.;.;.T @ Y 4.3.:.f.z.z.4.:.f.6.b , $.;.;.;.;.;.;.;.;.;.;.;.;.",
";.;.;.;.;.;.;.;.;.;.;.;.;.;.W f v @.g.z.z.z.z.h.g.6.[ z j *.;.;.;.;.;.;.;.;.;.;.;.;.",
";.;.;.;.;.;.;.;.;.;.;.;.;.;.-.) % c <.g.g.g.g.g.7. .2 d -.;.;.;.;.;.;.;.;.;.;.;.;.;.",
";.;.;.;.;.;.;.;.;.;.;.;.;.;.;.) $ < m #.,.,.,.,...a @ d ;.;.;.;.;.;.;.;.;.;.;.;.;.;.",
";.;.;.;.;.;.;.;.;.;.;.;.;.;.-.) $ - a U p.p.p._ c e O d ;.;.;.;.;.;.;.;.;.;.;.;.;.;.",
";.;.;.;.;.;.;.;.;.;.;.;.;.;.) z K ^ m G y.j.k.` l / ( z H *.;.;.;.;.;.;.;.;.;.;.;.;.",
";.;.;.;.;.;.;.;.;.;.;.;.;.;.T ; s.z.| G u.a.l.y.b 4.h.( , &.;.;.;.;.;.;.;.;.;.;.;.;.",
";.;.;.;.;.;.;.;.;.;.;.;.;.;.T 8 :.d.O.P e.t.t.8.L s.s.I 5 &.;.;.;.;.;.;.;.;.;.;.;.;.",
";.;.;.;.;.;.;.;.;.;.;.;.;.-.&.R 0 D e.q.0.9.0.r.e.i.C g ) =.;.;.;.;.;.;.;.;.;.;.;.;.",
";.;.;.;.;.;.;.;.;.;.;.;.;.-.%.H . 9.r.w.9.M V 0.r.0.M 7 ) =.;.;.;.;.;.;.;.;.;.;.;.;.",
";.;.;.;.;.;.;.;.;.;.;.;.;.&.E g # B D S N 4 6 V D S 4 , J ) =.;.;.;.;.;.;.;.;.;.;.;.",
";.;.;.;.;.;.;.;.;.;.;.;.-.E A g % > i u * w 7 % p 2 ; 5 Z J %.;.;.;.;.;.;.;.;.;.;.;.",
";.;.;.;.;.;.;.;.;.;.;.;.-.Q A C C C F C C C C C F C C C Z J %.;.;.;.;.;.;.;.;.;.;.;.",
";.;.;.;.;.;.;.;.;.;.;.;.-.&.E A Z Z A A A F A A H Z C Z J ) =.;.;.;.;.;.;.;.;.;.;.;.",
";.;.;.;.;.;.;.;.;.;.;.;.;.;.&.Q ) E Q Q Q Q Q Q Q Q E ) ) -.;.;.;.;.;.;.;.;.;.;.;.;.",
";.;.;.;.;.;.;.;.;.;.;.;.;.;.;.-.;.-.-.-.;.-.;.;.-.-.-.;.;.;.;.;.;.;.;.;.;.;.;.;.;.;."
};
